<svg xmlns="http://www.w3.org/2000/svg" xmlns:xlink="http://www.w3.org/1999/xlink" viewBox="0 0 1085.18 254.08"><defs><style>.cls-1{isolation:isolate;}.cls-2{mix-blend-mode:luminosity;}.cls-3{fill:url(#linear-gradient);}.cls-10,.cls-15,.cls-4{opacity:0.3;}.cls-10,.cls-13,.cls-15,.cls-18,.cls-4,.cls-8{mix-blend-mode:multiply;}.cls-4{fill:url(#linear-gradient-2);}.cls-5{fill:url(#linear-gradient-3);}.cls-6{fill:url(#linear-gradient-4);}.cls-21,.cls-7{fill:#fff;}.cls-13,.cls-18,.cls-27,.cls-8{opacity:0.2;}.cls-8{fill:url(#linear-gradient-5);}.cls-9{fill:url(#linear-gradient-6);}.cls-10{fill:url(#linear-gradient-7);}.cls-11{fill:url(#linear-gradient-8);}.cls-12{fill:url(#linear-gradient-9);}.cls-13{fill:url(#linear-gradient-10);}.cls-14{fill:url(#linear-gradient-11);}.cls-15{fill:url(#linear-gradient-12);}.cls-16{fill:url(#linear-gradient-13);}.cls-17{fill:url(#linear-gradient-14);}.cls-18{fill:url(#linear-gradient-15);}.cls-19{fill:#ffc800;}.cls-20{opacity:0.5;}.cls-21{stroke:#1a2e35;stroke-miterlimit:10;opacity:0.6;}.cls-22{fill:#1a2e35;}.cls-23{fill:#dcdcdc;}.cls-24{fill:#a8a8a8;}.cls-25{fill:#ececec;}.cls-26,.cls-28{opacity:0.1;}</style><linearGradient id="linear-gradient" x1="868" y1="196.2" x2="971.18" y2="196.2" gradientUnits="userSpaceOnUse"><stop offset="0" stop-color="#ffc444"/><stop offset="1" stop-color="#f36f56"/></linearGradient><linearGradient id="linear-gradient-2" x1="945.06" y1="180.95" x2="927.62" y2="229.02" gradientUnits="userSpaceOnUse"><stop offset="0" stop-color="#ffc444"/><stop offset="0.59" stop-color="#f8924f"/><stop offset="1" stop-color="#f36f56"/></linearGradient><linearGradient id="linear-gradient-3" x1="927.05" y1="174.09" x2="908.57" y2="225.01" xlink:href="#linear-gradient-2"/><linearGradient id="linear-gradient-4" x1="919.96" y1="97.62" x2="916.21" y2="219.89" xlink:href="#linear-gradient"/><linearGradient id="linear-gradient-5" x1="887.1" y1="159.19" x2="926.5" y2="159.19" xlink:href="#linear-gradient"/><linearGradient id="linear-gradient-6" x1="982" y1="194.2" x2="1085.18" y2="194.2" xlink:href="#linear-gradient"/><linearGradient id="linear-gradient-7" x1="1059.06" y1="178.95" x2="1041.62" y2="227.02" xlink:href="#linear-gradient-2"/><linearGradient id="linear-gradient-8" x1="1041.05" y1="172.09" x2="1022.57" y2="223.01" xlink:href="#linear-gradient-2"/><linearGradient id="linear-gradient-9" x1="1033.96" y1="95.62" x2="1030.21" y2="217.89" xlink:href="#linear-gradient"/><linearGradient id="linear-gradient-10" x1="1001.1" y1="157.19" x2="1040.5" y2="157.19" xlink:href="#linear-gradient"/><linearGradient id="linear-gradient-11" x1="0" y1="208.2" x2="103.18" y2="208.2" xlink:href="#linear-gradient"/><linearGradient id="linear-gradient-12" x1="77.06" y1="192.95" x2="59.62" y2="241.02" xlink:href="#linear-gradient-2"/><linearGradient id="linear-gradient-13" x1="59.05" y1="186.09" x2="40.57" y2="237.01" xlink:href="#linear-gradient-2"/><linearGradient id="linear-gradient-14" x1="51.96" y1="109.62" x2="48.21" y2="231.89" xlink:href="#linear-gradient"/><linearGradient id="linear-gradient-15" x1="19.1" y1="171.19" x2="58.5" y2="171.19" xlink:href="#linear-gradient"/></defs><g class="cls-1"><g id="Layer_2" data-name="Layer 2"><g id="Layer_1-2" data-name="Layer 1"><g class="cls-2"><path class="cls-3" d="M971.18,195.83v3.76c0,1-.49,1.76-1.15,1.85l-58.72,5.32a4.05,4.05,0,0,1-1.3,0l-.34-.07L868.75,199a1.32,1.32,0,0,1-.75-1.34v-4l43.41-5.38L917,185.6l5.55.81,3.28-.63,7.5,2.18Z"/><path class="cls-4" d="M971.18,195.83v3.76c0,1-.49,1.76-1.15,1.85l-58.71,5.32a4,4,0,0,1-1.31,0V186.46l7-.86,5.55.81,3.28-.63,7.5,2.18Z"/><path class="cls-5" d="M925.83,185.78,868,193.45l41.71,7.86a4.11,4.11,0,0,0,1.56.09l59.91-5.57Z"/><path class="cls-6" d="M947,192.71c0,2.75-8.66,4.9-20.63,5.45-3,.14-6.25.18-9.6.1-16.47-.38-29.7-3.44-29.7-6.83a1.21,1.21,0,0,1,0-.25h0l.07-.16a.44.44,0,0,1,.06-.16l3.8-9.93,4.58-12L902,152.16,907,139.31l6.12-16c.76-2,2.18-3.25,3.71-3.25a2.56,2.56,0,0,1,.62.07,4.74,4.74,0,0,1,3.11,3.18l6.17,16.09-.55,6.44,5.47,6.59,6.5,17.13h0l-3.94,6.27,8.61,6h.07l3.89,10A1.65,1.65,0,0,1,947,192.71Z"/><path class="cls-7" d="M942.84,181.9c-3.75,1.25-9.74,2.15-16.92,2.49-2.89.13-5.95.18-9.14.12-11.06-.21-20.66-1.64-25.76-3.57l4.59-12a108.47,108.47,0,0,0,21.18,2.15c2.69,0,5.31,0,7.81-.09a90.84,90.84,0,0,0,13.54-1.43l4.63,12.3h.07Z"/><path class="cls-7" d="M931.66,152.45c-2.86.31-6,.52-9.35.61-1.79.05-3.63.07-5.51.05a126.29,126.29,0,0,1-14.76-1L907,139.31c3.08.24,6.39.38,9.85.4,1.22,0,2.42,0,3.61,0,2.16-.05,4.26-.13,6.27-.27Z"/><path class="cls-8" d="M926.4,198.16c-3,.14-6.25.18-9.6.1-16.47-.38-29.7-3.44-29.7-6.83a1.21,1.21,0,0,1,0-.25h0l.07-.16a.44.44,0,0,1,.06-.16l3.8-9.93,4.58-12L902,152.16,907,139.31l6.12-16c.76-2,2.18-3.25,3.71-3.25a2.56,2.56,0,0,1,.62.07c.65,4.07,1.77,11.17,3,19.54.62,4.21,1.27,8.75,1.9,13.37.82,6,1.62,12.13,2.29,17.95.55,4.77,1,9.31,1.36,13.38A98.31,98.31,0,0,1,926.4,198.16Z"/></g><g class="cls-2"><path class="cls-9" d="M1085.18,193.83v3.76c0,1-.49,1.76-1.15,1.85l-58.72,5.32a4.05,4.05,0,0,1-1.3,0l-.34-.07L982.75,197a1.32,1.32,0,0,1-.75-1.34v-4l43.41-5.38,5.59-2.65,5.55.81,3.28-.63,7.5,2.18Z"/><path class="cls-10" d="M1085.18,193.83v3.76c0,1-.49,1.76-1.15,1.85l-58.71,5.32a4,4,0,0,1-1.31,0V184.46l7-.86,5.55.81,3.28-.63,7.5,2.18Z"/><path class="cls-11" d="M1039.83,183.78,982,191.45l41.71,7.86a4.11,4.11,0,0,0,1.56.09l59.91-5.57Z"/><path class="cls-12" d="M1061,190.71c0,2.75-8.66,4.9-20.63,5.45-3,.14-6.25.18-9.6.1-16.47-.38-29.7-3.44-29.7-6.83a1.21,1.21,0,0,1,0-.25h0l.07-.16a.44.44,0,0,1,.06-.16l3.8-9.93,4.58-12,6.43-16.79,4.91-12.85,6.12-16c.76-2,2.18-3.25,3.71-3.25a2.56,2.56,0,0,1,.62.07,4.74,4.74,0,0,1,3.11,3.18l6.17,16.09-.55,6.44,5.47,6.59,6.5,17.13h0l-3.94,6.27,8.61,6h.07l3.89,10A1.65,1.65,0,0,1,1061,190.71Z"/><path class="cls-7" d="M1056.84,179.9c-3.75,1.25-9.74,2.15-16.92,2.49-2.89.13-6,.18-9.14.12-11.06-.21-20.66-1.64-25.76-3.57l4.59-12a108.47,108.47,0,0,0,21.18,2.15c2.69,0,5.31,0,7.81-.09a90.84,90.84,0,0,0,13.54-1.43l4.63,12.3h.07Z"/><path class="cls-7" d="M1045.66,150.45c-2.86.31-6,.52-9.35.61-1.79.05-3.63.07-5.51.05a126.29,126.29,0,0,1-14.76-1l4.91-12.85c3.08.24,6.39.38,9.85.4,1.22,0,2.42,0,3.61,0,2.16-.05,4.26-.13,6.27-.27Z"/><path class="cls-13" d="M1040.4,196.16c-3,.14-6.25.18-9.6.1-16.47-.38-29.7-3.44-29.7-6.83a1.21,1.21,0,0,1,0-.25h0l.07-.16a.44.44,0,0,1,.06-.16l3.8-9.93,4.58-12,6.43-16.79,4.91-12.85,6.12-16c.76-2,2.18-3.25,3.71-3.25a2.56,2.56,0,0,1,.62.07c.65,4.07,1.77,11.17,3,19.54.62,4.21,1.27,8.75,1.9,13.37.82,6,1.62,12.13,2.29,17.95.55,4.77,1,9.31,1.36,13.38A98.31,98.31,0,0,1,1040.4,196.16Z"/></g><g class="cls-2"><path class="cls-14" d="M103.18,207.83v3.76c0,1-.49,1.76-1.15,1.85l-58.72,5.32a4.05,4.05,0,0,1-1.3,0l-.34-.07L.75,211A1.32,1.32,0,0,1,0,209.61v-4l43.41-5.38L49,197.6l5.55.81,3.28-.63,7.5,2.18Z"/><path class="cls-15" d="M103.18,207.83v3.76c0,1-.49,1.76-1.15,1.85l-58.71,5.32a4,4,0,0,1-1.31,0V198.46l7-.86,5.55.81,3.28-.63,7.5,2.18Z"/><path class="cls-16" d="M57.83,197.78,0,205.45l41.71,7.86a4.11,4.11,0,0,0,1.56.09l59.91-5.57Z"/><path class="cls-17" d="M79,204.71c0,2.75-8.66,4.9-20.63,5.45-3,.14-6.25.18-9.6.1-16.47-.38-29.7-3.44-29.7-6.83a1.21,1.21,0,0,1,0-.25h0l.07-.16a.44.44,0,0,1,.06-.16l3.8-9.93,4.58-12L34,164.16,39,151.31l6.12-16c.76-2,2.18-3.25,3.71-3.25a2.56,2.56,0,0,1,.62.07,4.74,4.74,0,0,1,3.11,3.18l6.17,16.09-.55,6.44,5.47,6.59,6.5,17.13h0l-3.94,6.27,8.61,6h.07l3.89,10A1.65,1.65,0,0,1,79,204.71Z"/><path class="cls-7" d="M74.84,193.9c-3.75,1.25-9.74,2.15-16.92,2.49-2.89.13-6,.18-9.14.12-11.06-.21-20.66-1.64-25.76-3.57l4.59-12a108.47,108.47,0,0,0,21.18,2.15c2.69,0,5.31,0,7.81-.09a90.84,90.84,0,0,0,13.54-1.43l4.63,12.3h.07Z"/><path class="cls-7" d="M63.66,164.45c-2.86.31-6,.52-9.35.61-1.79.05-3.63.07-5.51.05a126.29,126.29,0,0,1-14.76-1L39,151.31c3.08.24,6.39.38,9.85.4,1.22,0,2.42,0,3.61,0,2.16-.05,4.26-.13,6.27-.27Z"/><path class="cls-18" d="M58.4,210.16c-3,.14-6.25.18-9.6.1-16.47-.38-29.7-3.44-29.7-6.83a1.21,1.21,0,0,1,0-.25h0l.07-.16a.44.44,0,0,1,.06-.16l3.8-9.93,4.58-12L34,164.16,39,151.31l6.12-16c.76-2,2.18-3.25,3.71-3.25a2.56,2.56,0,0,1,.62.07c.65,4.07,1.77,11.17,3,19.54.62,4.21,1.27,8.75,1.9,13.37.82,6,1.62,12.13,2.29,17.95.55,4.77,1,9.31,1.36,13.38A98.31,98.31,0,0,1,58.4,210.16Z"/></g><g class="cls-2"><path class="cls-19" d="M210.48,206.09,356.2,208s-7.28-93.68-77.43-87.79S210.48,206.09,210.48,206.09Z"/><path class="cls-20" d="M210.48,206.09,356.2,208s-7.28-93.68-77.43-87.79S210.48,206.09,210.48,206.09Z"/><path class="cls-19" d="M646.66,208.55,792,198S777.39,105.26,708,117.1,646.66,208.55,646.66,208.55Z"/><path class="cls-20" d="M646.66,208.55,792,198S777.39,105.26,708,117.1,646.66,208.55,646.66,208.55Z"/><path class="cls-21" d="M324.8,66.91l-3.11,1.82s19.52,2,23.84,1.51,81-49.23,82.08-49.71S478.54.77,478.54.77s-68.29,22.14-72.7,23.77S324.8,66.91,324.8,66.91Z"/><path class="cls-19" d="M148.78,191.12s14.62,14,19.19,15.38,46.83,5.51,49.33,4.67-10-80.72,62.37-84.81,63.85,88.88,65.64,88.86,308.78-.61,310.17-1.94-8.81-85.69,61.38-86.2c67.2-.49,62.95,76.68,65.61,76.79s54.16-6,58.5-7.19,10.7-14.17,11.16-15.29-.89-4.12-.89-4.12,6.78-22,7.17-30.8S843,113.22,843,113.22l-11-39.14s5.23-3.2,6-4.32,1.37-5.34,1.37-5.34L731.74,54.6a22.82,22.82,0,0,0-3.9-2.32c-1.15-.33-8.11-.58-8.11-.58s-11.33,8.81-16,9.94S393.21,76.5,391.51,75.93s42.32-45.29,46.81-49.54S481,11.46,481.45,10.3s.62-10.42-.59-10.3S431.47,18.21,426,21.36s-79.3,47.82-81.52,48.71-22.54-1.19-22.74-1.34,3.11-1.42,3.11-1.82-5.42.82-6.59.81-89,13.07-103.51,18.33-36.09,18.86-45.83,28.46-18.71,24.26-20.35,25.24-5.52,1.14-6.24,7.6.12,13,1.48,14.38,5.76,2.84,6.21,3.37.95,15.92.72,16.5-2,1-2.21,2.36S147.89,189.59,148.78,191.12Z"/><ellipse class="cls-22" cx="280.67" cy="191.31" rx="57.82" ry="60.06"/><ellipse class="cls-23" cx="280.67" cy="191.31" rx="42.22" ry="43.85"/><ellipse class="cls-24" cx="280.67" cy="191.31" rx="38.93" ry="40.43"/><path class="cls-23" d="M288.17,182.23l-12.09-1.9c5-5.48-6.13-29.07-6.13-29.07l6.68-1.22c3.13,8.21,4.92,10.75,8.4,11.3s5.92-1.33,11.26-8.2l6,3.21S285,175.47,288.17,182.23Z"/><path class="cls-23" d="M275,180.93l-5.48,11.36C266,185.68,241,189.36,241,189.36l1-7c8.48-.56,11.36-1.54,12.94-4.81s.61-6.26-4-13.66l4.8-5S267.78,182,275,180.93Z"/><path class="cls-23" d="M269.69,193.58l8.7,8.92c-7.12,1.4-11.49,27.27-11.49,27.27l-6.09-3.1c2.11-8.55,2.1-11.7-.41-14.27s-5.53-2.53-13.75-.24l-3.05-6.27S268.44,201,269.69,193.58Z"/><path class="cls-23" d="M279.64,202.7l10.86-5.84c-.92,7.47,21.41,19.77,21.41,19.77l-4.72,5.06C300,217,297.13,216,294,217.68s-4,4.69-4.46,13.51l-6.69,1.09S286.05,206.23,279.64,202.7Z"/><path class="cls-23" d="M291.07,195.68l-2-12.53c6.56,3.22,24.73-15,24.73-15l3.17,6.23c-6.55,5.62-8.32,8.18-7.75,11.79s3,5.43,11,8.58l-1.08,6.94S296.27,190.44,291.07,195.68Z"/><path class="cls-23" d="M291.88,192.78A11.36,11.36,0,0,1,279,202.63a11.68,11.68,0,0,1-9.49-13.36,11.38,11.38,0,0,1,12.87-9.85A11.68,11.68,0,0,1,291.88,192.78Z"/><ellipse class="cls-22" cx="718.48" cy="194.02" rx="57.82" ry="60.06"/><ellipse class="cls-23" cx="718.48" cy="194.02" rx="42.22" ry="43.85"/><ellipse class="cls-24" cx="718.48" cy="194.02" rx="38.93" ry="40.43"/><path class="cls-23" d="M726,184.94,713.9,183c5-5.48-6.13-29.07-6.13-29.07l6.68-1.22c3.13,8.21,4.92,10.75,8.4,11.3s5.92-1.33,11.26-8.2l6,3.2S722.8,178.18,726,184.94Z"/><path class="cls-23" d="M712.78,183.64,707.3,195c-3.48-6.61-28.52-2.93-28.52-2.93l1-7c8.48-.56,11.36-1.54,12.94-4.81s.61-6.26-4-13.66l4.8-5S705.6,184.7,712.78,183.64Z"/><path class="cls-23" d="M707.51,196.29l8.7,8.92c-7.12,1.4-11.49,27.27-11.49,27.27l-6.09-3.1c2.11-8.55,2.1-11.7-.41-14.27s-5.54-2.53-13.75-.24l-3.06-6.27S706.26,203.71,707.51,196.29Z"/><path class="cls-23" d="M717.46,205.41l10.86-5.84c-.92,7.47,21.41,19.77,21.41,19.77L745,224.4c-7.17-4.73-10.06-5.69-13.19-4s-4,4.69-4.46,13.51L720.67,235S723.87,208.93,717.46,205.41Z"/><path class="cls-23" d="M728.88,198.39l-2-12.53c6.55,3.22,24.72-15,24.72-15l3.18,6.22c-6.55,5.63-8.32,8.19-7.75,11.8s3.05,5.43,11,8.58L757,204.36S734.09,193.15,728.88,198.39Z"/><path class="cls-23" d="M729.7,195.49a11.38,11.38,0,0,1-12.87,9.85A11.68,11.68,0,0,1,707.35,192a11.38,11.38,0,0,1,12.87-9.85A11.68,11.68,0,0,1,729.7,195.49Z"/><path class="cls-7" d="M832.51,75.81c4.07,1.21,12,12.77,12.32,15s.84,17-.83,18.93-7.41,6.46-11.71,6-31.37-14-33-16.08-1.41-13.09,1.31-16.21S827.32,74.26,832.51,75.81Z"/><path class="cls-22" d="M832.51,75.81a10.48,10.48,0,0,1,3.54,2.47A37.3,37.3,0,0,1,839,81.5a54.21,54.21,0,0,1,5,7.14,10.6,10.6,0,0,1,.92,2,14.57,14.57,0,0,1,.25,2.17c.11,1.45.17,2.9.21,4.35a84.58,84.58,0,0,1-.15,8.72,20,20,0,0,1-.28,2.18,7.4,7.4,0,0,1-.28,1.1,3.59,3.59,0,0,1-.23.55,4.05,4.05,0,0,1-.38.47,22.29,22.29,0,0,1-3.35,2.87,21.67,21.67,0,0,1-3.83,2.21,9.54,9.54,0,0,1-4.41.9,10.27,10.27,0,0,1-2.2-.55c-.71-.22-1.38-.5-2.07-.75-1.36-.54-2.7-1.1-4-1.69-2.66-1.16-5.3-2.39-7.92-3.65s-5.19-2.59-7.77-3.94-5.12-2.74-7.61-4.28A10.64,10.64,0,0,1,799,99.9a6,6,0,0,1-.78-2.22,24.19,24.19,0,0,1-.26-4.41,33.5,33.5,0,0,1,.42-4.37,16.2,16.2,0,0,1,1.22-4.24,6.35,6.35,0,0,1,.56-1,3,3,0,0,1,.79-.83,10.94,10.94,0,0,1,1.94-1.08,40.29,40.29,0,0,1,4.08-1.56c2.76-.91,5.57-1.66,8.39-2.34s5.66-1.28,8.53-1.73c1.43-.22,2.87-.41,4.32-.51A14,14,0,0,1,832.51,75.81Zm0,0a14.28,14.28,0,0,0-4.33-.15c-1.44.12-2.88.32-4.31.56-2.86.47-5.69,1.08-8.5,1.79s-5.59,1.54-8.33,2.5a37.65,37.65,0,0,0-4,1.63,10.42,10.42,0,0,0-1.84,1.07,2.55,2.55,0,0,0-.67.75,4.74,4.74,0,0,0-.51.91A16,16,0,0,0,798.94,89a30.74,30.74,0,0,0-.32,4.29,23.25,23.25,0,0,0,.34,4.26,5.26,5.26,0,0,0,.67,1.85,14.54,14.54,0,0,0,1.64,1.18c5,3,10.17,5.52,15.37,8.05,2.6,1.27,5.21,2.52,7.86,3.7,1.31.59,2.64,1.16,4,1.7.67.26,1.34.54,2,.75a9.57,9.57,0,0,0,2,.53,9.12,9.12,0,0,0,4-.77,20.93,20.93,0,0,0,3.74-2,21.62,21.62,0,0,0,3.31-2.71,3.41,3.41,0,0,0,.79-1.82,21.42,21.42,0,0,0,.31-2.13,80.58,80.58,0,0,0,.34-8.66q0-2.18-.12-4.35a15.2,15.2,0,0,0-.2-2.14,9.81,9.81,0,0,0-.88-2,54.38,54.38,0,0,0-4.9-7.17A42.3,42.3,0,0,0,836,78.3,10.6,10.6,0,0,0,832.51,75.81Z"/><path class="cls-25" d="M799.3,99.65c1.62,2.07,28.7,15.58,33,16.07,3.27.37,7.39-2.19,9.9-4.27-3.43,1.58-6.49,2-8.75,1.42S805.19,100.56,803,97.78s-.95-11.78-.39-13.35S824.92,76,824.92,76c-9.78.86-22.47,5.3-24.3,7.41C797.89,86.55,797.68,97.57,799.3,99.65Z"/><path class="cls-7" d="M224.22,101.91c-3,7-29.76,22.71-40.11,26.08-6.51,2.12-29.43,7-31,6s7.45-18.72,12.69-23.47,32.72-19,41.5-19.89S227.22,94.78,224.22,101.91Z"/><path class="cls-22" d="M224.22,101.91a15,15,0,0,1-3.43,4.3,53.35,53.35,0,0,1-4.23,3.58c-2.93,2.26-6,4.32-9.12,6.3A155.26,155.26,0,0,1,188,126.75a60.66,60.66,0,0,1-10.58,3.4c-3.59.89-7.19,1.73-10.81,2.48s-7.25,1.45-11,1.85c-.47.05-.94.08-1.42.09a5.23,5.23,0,0,1-.77,0,.85.85,0,0,1-.22,0,1.48,1.48,0,0,1-.29-.12.91.91,0,0,1-.27-.28,1,1,0,0,1-.11-.29,4,4,0,0,1,.16-1.6c.12-.46.26-.91.42-1.36a52,52,0,0,1,2.21-5.14,92.38,92.38,0,0,1,5.52-9.67,42.56,42.56,0,0,1,3.35-4.49,20.68,20.68,0,0,1,4.33-3.6c3.12-2,6.36-3.83,9.62-5.56s6.59-3.38,9.94-4.94,6.74-3,10.2-4.36c1.73-.65,3.48-1.25,5.26-1.77a21.18,21.18,0,0,1,5.48-.87A22.73,22.73,0,0,1,219.75,93a10.77,10.77,0,0,1,4.12,3.63,5.8,5.8,0,0,1,.85,2.61A5.87,5.87,0,0,1,224.22,101.91Zm0,0a5.84,5.84,0,0,0,.48-2.7,5.74,5.74,0,0,0-.87-2.6A10.59,10.59,0,0,0,219.71,93a22.64,22.64,0,0,0-10.66-2.45,20,20,0,0,0-5.42,1c-1.76.54-3.49,1.17-5.2,1.85-3.43,1.37-6.79,2.91-10.11,4.51A180.58,180.58,0,0,0,169,108.64a19.66,19.66,0,0,0-4.14,3.48,41.67,41.67,0,0,0-3.24,4.41,91.4,91.4,0,0,0-5.4,9.6,51.63,51.63,0,0,0-2.2,5c-.16.43-.29.86-.41,1.28a3.77,3.77,0,0,0-.16,1.14,3.16,3.16,0,0,0,.73.06c.44,0,.89,0,1.34-.07,3.64-.37,7.27-1.07,10.89-1.77s7.23-1.46,10.82-2.31a59.72,59.72,0,0,0,10.55-3.18c3.39-1.43,6.7-3.08,10-4.81s6.46-3.57,9.6-5.52,6.2-4,9.14-6.24a53.49,53.49,0,0,0,4.25-3.54A15,15,0,0,0,224.22,101.91Z"/><path class="cls-25" d="M153.16,134c1.52,1.06,24.43-3.85,31-6,10.35-3.37,37.14-19,40.12-26.09s-8.09-12.16-16.88-11.31a17.15,17.15,0,0,0-2,.34c8.55,1.92,11.11,8.27,6.68,12.77s-19.1,15.63-25.18,18.4c-5.86,2.68-28.13,9.71-30.32,8.38-.84-.5-1.2-1.83-1.33-3.27C153.53,130.77,152.59,133.56,153.16,134Z"/><g class="cls-26"><path d="M217.84,200.45c-.17,6.37,0,10.52-.54,10.71-2.51.85-44.76-3.31-49.33-4.66s-19.19-15.39-19.19-15.39a.66.66,0,0,1-.09-.19,167.69,167.69,0,0,0,47.56,9.43C199.2,200.48,206.68,200.51,217.84,200.45Z"/><path d="M656.16,193.25c-.93,11.31-.26,19.62-.69,20-1.37,1.33-308.37,1.91-310.16,1.94-.49,0-.22-6.67-1-16.37C438.09,197.37,559.16,195.15,656.16,193.25Z"/><path d="M852.14,181.39c-.48,1.12-6.83,14.12-11.18,15.3s-55.83,7.3-58.49,7.19c-.69,0-.92-5.34-2.08-13.16a407.35,407.35,0,0,0,50.89-4.41,54.13,54.13,0,0,0,20-9S852.6,180.27,852.14,181.39Z"/></g><g class="cls-27"><path d="M369.26,198.45c-.42-10.76-.72-21.51-1-32.26s-.47-21.51-.68-32.27c-.06-5.38-.13-10.76-.14-16.14,0-.68,0-1.34,0-2.06v-.52a1.94,1.94,0,0,1,.17-.55,6.93,6.93,0,0,1,.46-1c.62-1.22,1.31-2.37,2-3.55,1.35-2.33,2.74-4.63,4.16-6.92q8.44-13.76,17.26-27.27l-16.6,27.67-4.07,7c-.66,1.16-1.34,2.33-1.94,3.51a6.72,6.72,0,0,0-.39.84c0,.14-.15.24-.14.4v.48c0,.63,0,1.32,0,2,0,5.37.14,10.75.23,16.12l.44,32.27C369.14,176.93,369.26,187.69,369.26,198.45Z"/><path d="M589.91,67.43c2.86,10.28,5.71,20.55,7.83,31,.09.67.24,1.31.29,2a13.89,13.89,0,0,1,0,2l-.1,4-.2,8-.41,16-1,32-.59,16-.7,16,.21-16,.31-16,.79-32,.5-16,.24-8,.13-4A15.51,15.51,0,0,0,597,98.6c-.91-5.23-2.15-10.42-3.35-15.61S591.16,72.62,589.91,67.43Z"/><path d="M767.37,152.53c4.79-3,9.62-5.9,14.46-8.8s9.71-5.74,14.51-8.69l1.79-1.09a8.45,8.45,0,0,0,1.63-1.19c1-1,1.9-2,2.81-3.1,1.85-2.12,3.64-4.3,5.47-6.44l5.43-6.48,5.47-6.46c-3.34,4.55-6.8,9-10.31,13.43-1.74,2.22-3.54,4.38-5.37,6.55-.91,1.08-1.83,2.14-2.84,3.18a8.67,8.67,0,0,1-1.76,1.33c-.6.39-1.2.76-1.8,1.13-4.86,2.89-9.73,5.72-14.65,8.49S772.37,149.9,767.37,152.53Z"/><path d="M225.1,97.38c10.14-1.68,20.29-3.25,30.44-4.81L286,88l15.23-2.26c2.52-.39,5.12-.76,7.55-1.23,2.35-.81,4.76-1.83,7.14-2.76l28.51-11.65q-14,6.34-28.22,12.36c-2.38,1-4.69,2-7.19,2.89-2.61.52-5.1.88-7.65,1.29L286.15,89c-10.17,1.47-20.33,3-30.5,4.37S235.3,96.11,225.1,97.38Z"/><path d="M545.35,104.77a21.28,21.28,0,0,0,2.11,4.18,8.5,8.5,0,0,0,1.45,1.75,2.5,2.5,0,0,0,.88.54,4.29,4.29,0,0,0,1.07.13c3.1.07,6.26,0,9.39-.12s6.27-.23,9.36-.55a10.43,10.43,0,0,0,1.14-.16c.18,0,.38-.07.54-.12a2.78,2.78,0,0,0,.44-.19,7,7,0,0,0,1.41-1.74,31,31,0,0,0,2.18-4.16,25.31,25.31,0,0,1-1.75,4.41,7.36,7.36,0,0,1-1.45,2,3.25,3.25,0,0,1-.61.33c-.21.08-.4.11-.6.17-.4.12-.79.16-1.19.25a81,81,0,0,1-9.44.78,90.93,90.93,0,0,1-9.48-.12,5,5,0,0,1-1.25-.23,3.35,3.35,0,0,1-1.07-.74,8.75,8.75,0,0,1-1.44-2A18.48,18.48,0,0,1,545.35,104.77Z"/><path d="M545.13,100.6a15.63,15.63,0,0,1,1.17-4.67,5.35,5.35,0,0,1,1.45-2.07,7.55,7.55,0,0,1,2.43-.7,62.14,62.14,0,0,1,9.62-.66c1.61,0,3.22,0,4.82.16a18.73,18.73,0,0,1,4.84.85,11.85,11.85,0,0,1,3.82,3.07,13.24,13.24,0,0,1,2.5,4.12,14.72,14.72,0,0,0-2.86-3.78,11.24,11.24,0,0,0-3.75-2.69,20.76,20.76,0,0,0-4.61-.62c-1.58-.09-3.17-.13-4.76-.11s-3.18,0-4.77.09-3.17.16-4.74.33a7.24,7.24,0,0,0-2.18.46,5,5,0,0,0-1.37,1.76A17.73,17.73,0,0,0,545.13,100.6Z"/><path d="M546.09,100.34a8.93,8.93,0,0,0-2.15.79,3.59,3.59,0,0,0-.9.69,1.38,1.38,0,0,0-.44,1,1.25,1.25,0,0,0,.53.94,2.06,2.06,0,0,0,.46.31,2.76,2.76,0,0,0,.52.25,9.27,9.27,0,0,0,2.21.54,41.07,41.07,0,0,0,4.58.2c1.53,0,3.06,0,4.6,0,3.06,0,6.12-.16,9.18-.27l4.59-.17c1.51-.08,3.11-.13,4.51-.31a7.8,7.8,0,0,0,2-.7c.62-.31,1.14-.83,1.13-1.27s-.6-.91-1.24-1.17a8.41,8.41,0,0,0-2.1-.54c-3-.34-6.08-.45-9.14-.57s-6.12-.18-9.19-.18c-1.53,0-3.06,0-4.59.11A36.9,36.9,0,0,0,546.09,100.34Zm0,0a36.83,36.83,0,0,1,4.57-.45c1.53-.09,3.07-.14,4.6-.18,3.06-.1,6.13-.17,9.2-.18s6.12,0,9.24.22a8.89,8.89,0,0,1,2.34.57,4.08,4.08,0,0,1,1.11.65,1.83,1.83,0,0,1,.7,1.3,1.94,1.94,0,0,1-.55,1.37,4.14,4.14,0,0,1-.5.44l-.53.35a8.74,8.74,0,0,1-2.29.83c-1.65.19-3.12.19-4.67.26l-4.61.09c-3.07,0-6.14,0-9.21-.09s-6.14-.13-9.19-.51a9.53,9.53,0,0,1-2.23-.59,2.81,2.81,0,0,1-.52-.26,2.27,2.27,0,0,1-.48-.33,1.32,1.32,0,0,1-.54-1,1.44,1.44,0,0,1,.47-1,3.85,3.85,0,0,1,.92-.68A9.17,9.17,0,0,1,546.09,100.34Z"/></g><path class="cls-22" d="M150,165.1s27.51,2.7,27.85,2.64,1.26-4,3.5-4.11,10.25,7,11.49,13.86-.28,11.93-4.45,11.39-9.8-9.33-9.8-9.33-21.13-1.33-21.63-1a21.47,21.47,0,0,1-2.66,2.13,18.32,18.32,0,0,1-3.58.87Z"/><path class="cls-19" d="M411.78,88.81c1.88-2.9-2.43-24.57-4.45-26s-25.57,1.72-24.9,15.58S408.85,93.34,411.78,88.81Z"/><path class="cls-28" d="M411.78,88.81c1.88-2.9-2.43-24.57-4.45-26s-25.57,1.72-24.9,15.58S408.85,93.34,411.78,88.81Z"/></g></g></g></g></svg>