<svg xmlns="http://www.w3.org/2000/svg" viewBox="0 0 716.4 254.08"><defs><style>.cls-1{isolation:isolate;}.cls-2{mix-blend-mode:luminosity;}.cls-3{fill:#ffc800;}.cls-4{opacity:0.5;}.cls-5,.cls-9{fill:#fff;}.cls-5{stroke:#1a2e35;stroke-miterlimit:10;opacity:0.6;}.cls-6{fill:#1a2e35;}.cls-7{fill:#dcdcdc;}.cls-8{fill:#a8a8a8;}.cls-10{fill:#ececec;}.cls-11,.cls-13{opacity:0.1;}.cls-12{opacity:0.2;}</style></defs><g class="cls-1"><g id="Layer_2" data-name="Layer 2"><g id="Layer_1-2" data-name="Layer 1"><g class="cls-2"><path class="cls-3" d="M68.46,206.09,214.18,208s-7.28-93.68-77.42-87.79S68.46,206.09,68.46,206.09Z"/><path class="cls-4" d="M68.46,206.09,214.18,208s-7.28-93.68-77.42-87.79S68.46,206.09,68.46,206.09Z"/><path class="cls-3" d="M504.64,208.55,650,198s-14.65-92.75-84.09-80.91S504.64,208.55,504.64,208.55Z"/><path class="cls-4" d="M504.64,208.55,650,198s-14.65-92.75-84.09-80.91S504.64,208.55,504.64,208.55Z"/><path class="cls-5" d="M182.78,66.91l-3.11,1.82s19.53,2,23.84,1.51,81-49.23,82.09-49.71S336.52.77,336.52.77s-68.29,22.14-72.69,23.77S182.78,66.91,182.78,66.91Z"/><path class="cls-3" d="M6.76,191.12s14.62,14,19.19,15.38,46.83,5.51,49.33,4.67-10-80.72,62.37-84.81,63.85,88.88,65.64,88.86,308.78-.61,310.17-1.94-8.81-85.69,61.38-86.2c67.2-.49,62.95,76.68,65.61,76.79s54.16-6,58.5-7.19,10.7-14.17,11.16-15.29-.89-4.12-.89-4.12,6.78-22,7.17-30.8S701,113.22,701,113.22L690,74.08s5.23-3.2,6-4.32,1.37-5.34,1.37-5.34L589.72,54.6a22.82,22.82,0,0,0-3.9-2.32c-1.14-.33-8.1-.58-8.1-.58s-11.33,8.81-16,9.94S251.19,76.5,249.49,75.93s42.32-45.29,46.81-49.54S339,11.46,339.43,10.3s.62-10.42-.58-10.3-49.39,18.21-54.91,21.36-79.31,47.82-81.52,48.71-22.55-1.19-22.75-1.34,3.11-1.42,3.11-1.82-5.42.82-6.59.81-89,13.07-103.51,18.33-36.09,18.86-45.82,28.46S8.14,138.77,6.51,139.75,1,140.89.26,147.35s.12,13,1.48,14.38S7.5,164.57,8,165.1s1,15.92.72,16.5-2,1-2.21,2.36S5.87,189.59,6.76,191.12Z"/><ellipse class="cls-6" cx="138.65" cy="191.31" rx="57.82" ry="60.06"/><ellipse class="cls-7" cx="138.65" cy="191.31" rx="42.22" ry="43.85"/><ellipse class="cls-8" cx="138.65" cy="191.31" rx="38.93" ry="40.43"/><path class="cls-7" d="M146.15,182.23l-12.09-1.9c5-5.48-6.13-29.07-6.13-29.07l6.68-1.22c3.13,8.21,4.92,10.75,8.4,11.3s5.92-1.33,11.26-8.2l6,3.21S143,175.47,146.15,182.23Z"/><path class="cls-7" d="M132.94,180.93l-5.48,11.36C124,185.68,99,189.36,99,189.36l1-7c8.48-.56,11.36-1.54,12.94-4.81s.61-6.26-4-13.66l4.8-5S125.76,182,132.94,180.93Z"/><path class="cls-7" d="M127.67,193.58l8.7,8.92c-7.12,1.4-11.49,27.27-11.49,27.27l-6.09-3.1c2.11-8.55,2.1-11.7-.4-14.27s-5.54-2.53-13.75-.24l-3.06-6.27S126.42,201,127.67,193.58Z"/><path class="cls-7" d="M137.62,202.7l10.86-5.84c-.92,7.47,21.42,19.77,21.42,19.77l-4.72,5.06C158,217,155.11,216,152,217.68s-4,4.69-4.47,13.51l-6.69,1.09S144,206.23,137.62,202.7Z"/><path class="cls-7" d="M149.05,195.68l-2-12.53c6.56,3.22,24.73-15,24.73-15l3.17,6.23c-6.54,5.62-8.32,8.18-7.74,11.79s3,5.43,11,8.58l-1.08,6.94S154.26,190.44,149.05,195.68Z"/><path class="cls-7" d="M149.86,192.78A11.36,11.36,0,0,1,137,202.63a11.69,11.69,0,0,1-9.49-13.36,11.38,11.38,0,0,1,12.87-9.85A11.67,11.67,0,0,1,149.86,192.78Z"/><ellipse class="cls-6" cx="576.47" cy="194.02" rx="57.82" ry="60.06"/><ellipse class="cls-7" cx="576.47" cy="194.02" rx="42.22" ry="43.85"/><ellipse class="cls-8" cx="576.47" cy="194.02" rx="38.93" ry="40.43"/><path class="cls-7" d="M584,184.94,571.88,183c5-5.48-6.13-29.07-6.13-29.07l6.68-1.22c3.13,8.21,4.92,10.75,8.4,11.3s5.92-1.33,11.26-8.2l6,3.2S580.78,178.18,584,184.94Z"/><path class="cls-7" d="M570.76,183.64,565.28,195c-3.48-6.61-28.52-2.93-28.52-2.93l1-7c8.48-.56,11.36-1.54,12.94-4.81s.61-6.26-4-13.66l4.79-5S563.58,184.7,570.76,183.64Z"/><path class="cls-7" d="M565.49,196.29l8.7,8.92c-7.12,1.4-11.49,27.27-11.49,27.27l-6.09-3.1c2.11-8.55,2.1-11.7-.41-14.27s-5.54-2.53-13.75-.24l-3.05-6.27S564.24,203.71,565.49,196.29Z"/><path class="cls-7" d="M575.44,205.41l10.86-5.84c-.92,7.47,21.41,19.77,21.41,19.77L603,224.4c-7.17-4.73-10.06-5.69-13.19-4s-4,4.69-4.46,13.51L578.65,235S581.85,208.93,575.44,205.41Z"/><path class="cls-7" d="M586.86,198.39l-2-12.53c6.55,3.22,24.73-15,24.73-15l3.17,6.22c-6.55,5.63-8.32,8.19-7.75,11.8s3.05,5.43,11,8.58l-1.07,6.94S592.07,193.15,586.86,198.39Z"/><path class="cls-7" d="M587.68,195.49a11.37,11.37,0,0,1-12.87,9.85A11.68,11.68,0,0,1,565.33,192a11.38,11.38,0,0,1,12.87-9.85A11.68,11.68,0,0,1,587.68,195.49Z"/><path class="cls-9" d="M690.49,75.81c4.08,1.21,12,12.77,12.32,15s.85,17-.83,18.93-7.41,6.46-11.71,6-31.37-14-33-16.08-1.41-13.09,1.31-16.21S685.3,74.26,690.49,75.81Z"/><path class="cls-6" d="M690.49,75.81A10.48,10.48,0,0,1,694,78.28,37.3,37.3,0,0,1,697,81.5a54.21,54.21,0,0,1,5,7.14,10.6,10.6,0,0,1,.92,2,14.57,14.57,0,0,1,.25,2.17c.11,1.45.17,2.9.21,4.35a81.86,81.86,0,0,1-.15,8.72,20,20,0,0,1-.28,2.18,7.4,7.4,0,0,1-.28,1.1,3.59,3.59,0,0,1-.23.55,3.22,3.22,0,0,1-.38.47,22.29,22.29,0,0,1-3.35,2.87,21.32,21.32,0,0,1-3.83,2.21,9.54,9.54,0,0,1-4.41.9,10.27,10.27,0,0,1-2.2-.55c-.71-.22-1.38-.5-2.07-.75-1.35-.54-2.7-1.1-4-1.69-2.66-1.16-5.3-2.39-7.91-3.65s-5.2-2.59-7.77-3.94-5.13-2.74-7.62-4.28A11,11,0,0,1,657,99.9a5.78,5.78,0,0,1-.77-2.22,22.52,22.52,0,0,1-.26-4.41,31.84,31.84,0,0,1,.41-4.37,16.2,16.2,0,0,1,1.22-4.24,5.68,5.68,0,0,1,.57-1,2.84,2.84,0,0,1,.79-.83,10.53,10.53,0,0,1,1.93-1.08,40.29,40.29,0,0,1,4.08-1.56c2.76-.91,5.57-1.66,8.39-2.34s5.66-1.28,8.53-1.73c1.44-.22,2.88-.41,4.32-.51A14,14,0,0,1,690.49,75.81Zm0,0a14.22,14.22,0,0,0-4.32-.15c-1.45.12-2.89.32-4.32.56-2.86.47-5.69,1.08-8.5,1.79s-5.59,1.54-8.32,2.5a37,37,0,0,0-4,1.63,10.42,10.42,0,0,0-1.84,1.07,2.55,2.55,0,0,0-.67.75,4.74,4.74,0,0,0-.51.91A16,16,0,0,0,656.92,89a30.74,30.74,0,0,0-.32,4.29,24.17,24.17,0,0,0,.34,4.26,5.26,5.26,0,0,0,.67,1.85,13.85,13.85,0,0,0,1.65,1.18c4.94,3,10.16,5.52,15.36,8.05,2.6,1.27,5.22,2.52,7.86,3.7,1.31.59,2.64,1.16,4,1.7.67.26,1.34.54,2,.75a9.73,9.73,0,0,0,2,.53,9.09,9.09,0,0,0,4-.77,20.93,20.93,0,0,0,3.74-2,21.62,21.62,0,0,0,3.31-2.71,3.41,3.41,0,0,0,.79-1.82c.14-.7.24-1.41.32-2.13a83.25,83.25,0,0,0,.33-8.66c0-1.45,0-2.9-.12-4.35a13.85,13.85,0,0,0-.2-2.14,9.77,9.77,0,0,0-.87-2,54.45,54.45,0,0,0-4.91-7.17A40.28,40.28,0,0,0,694,78.3,10.6,10.6,0,0,0,690.49,75.81Z"/><path class="cls-10" d="M657.28,99.65c1.62,2.07,28.7,15.58,33,16.07,3.27.37,7.39-2.19,9.9-4.27-3.43,1.58-6.48,2-8.75,1.42S663.18,100.56,661,97.78s-1-11.78-.39-13.35S682.9,76,682.9,76c-9.78.86-22.47,5.3-24.3,7.41C655.87,86.55,655.66,97.57,657.28,99.65Z"/><path class="cls-9" d="M82.21,101.91c-3,7-29.76,22.71-40.12,26.08-6.51,2.12-29.43,7-30.94,6s7.44-18.72,12.68-23.47,32.72-19,41.5-19.89S85.21,94.78,82.21,101.91Z"/><path class="cls-6" d="M82.21,101.91a15.21,15.21,0,0,1-3.44,4.3,53.35,53.35,0,0,1-4.23,3.58c-2.93,2.26-6,4.32-9.12,6.3A155.26,155.26,0,0,1,46,126.75a60.39,60.39,0,0,1-10.58,3.4c-3.58.89-7.19,1.73-10.81,2.48s-7.25,1.45-11,1.85c-.47.05-.94.08-1.42.09a5.23,5.23,0,0,1-.77,0,.85.85,0,0,1-.22,0,1.78,1.78,0,0,1-.29-.12.91.91,0,0,1-.27-.28.71.71,0,0,1-.1-.29,3.81,3.81,0,0,1,.15-1.6c.12-.46.27-.91.42-1.36a54.46,54.46,0,0,1,2.21-5.14A90.71,90.71,0,0,1,18.86,116a41.13,41.13,0,0,1,3.34-4.49,20.94,20.94,0,0,1,4.33-3.6c3.12-2,6.36-3.83,9.63-5.56s6.58-3.38,9.93-4.94,6.75-3,10.2-4.36c1.73-.65,3.48-1.25,5.26-1.77A21.18,21.18,0,0,1,67,90.43,22.7,22.7,0,0,1,77.73,93a10.69,10.69,0,0,1,4.12,3.63,5.8,5.8,0,0,1,.85,2.61A6,6,0,0,1,82.21,101.91Zm0,0a6,6,0,0,0,.47-2.7,5.85,5.85,0,0,0-.86-2.6A10.62,10.62,0,0,0,77.69,93,22.64,22.64,0,0,0,67,90.57a19.89,19.89,0,0,0-5.41,1c-1.77.54-3.5,1.17-5.21,1.85C53,94.74,49.63,96.28,46.3,97.88A180.58,180.58,0,0,0,27,108.64a19.91,19.91,0,0,0-4.14,3.48,41.67,41.67,0,0,0-3.24,4.41,93.23,93.23,0,0,0-5.4,9.6,51.63,51.63,0,0,0-2.2,5c-.15.43-.29.86-.41,1.28a3.77,3.77,0,0,0-.16,1.14,3.16,3.16,0,0,0,.73.06c.44,0,.89,0,1.34-.07,3.64-.37,7.28-1.07,10.89-1.77s7.23-1.46,10.82-2.31a59.72,59.72,0,0,0,10.55-3.18c3.39-1.43,6.7-3.08,10-4.81s6.46-3.57,9.6-5.52,6.21-4,9.14-6.24c1.47-1.12,2.91-2.28,4.26-3.54A15.37,15.37,0,0,0,82.21,101.91Z"/><path class="cls-10" d="M11.14,134c1.52,1.06,24.43-3.85,31-6,10.35-3.37,37.14-19,40.12-26.09S74.12,89.74,65.33,90.59a16.69,16.69,0,0,0-2,.34c8.54,1.92,11.1,8.27,6.67,12.77s-19.1,15.63-25.18,18.4c-5.86,2.68-28.13,9.71-30.32,8.38-.84-.5-1.2-1.83-1.33-3.27C11.51,130.77,10.57,133.56,11.14,134Z"/><g class="cls-11"><path d="M75.83,200.45c-.18,6.37,0,10.52-.54,10.71-2.52.85-44.77-3.31-49.34-4.66S6.76,191.11,6.76,191.11a.66.66,0,0,1-.09-.19,167.69,167.69,0,0,0,47.57,9.43C57.19,200.48,64.66,200.51,75.83,200.45Z"/><path d="M514.15,193.25c-.94,11.31-.27,19.62-.69,20-1.38,1.33-308.38,1.91-310.17,1.94-.48,0-.22-6.67-1-16.37C296.07,197.37,417.14,195.15,514.15,193.25Z"/><path d="M710.12,181.39c-.47,1.12-6.83,14.12-11.17,15.3s-55.84,7.3-58.49,7.19c-.7,0-.93-5.34-2.09-13.16a407.35,407.35,0,0,0,50.89-4.41,54.13,54.13,0,0,0,20-9S710.58,180.27,710.12,181.39Z"/></g><g class="cls-12"><path d="M227.25,198.45c-.43-10.76-.73-21.51-1-32.26s-.47-21.51-.67-32.27c-.07-5.38-.14-10.76-.15-16.14,0-.68,0-1.34,0-2.06v-.52a2.32,2.32,0,0,1,.17-.55,6.93,6.93,0,0,1,.46-1c.63-1.22,1.31-2.37,2-3.55,1.35-2.33,2.75-4.63,4.16-6.92q8.45-13.76,17.26-27.27l-16.6,27.67-4.07,7c-.66,1.16-1.34,2.33-1.94,3.51a6.72,6.72,0,0,0-.39.84c0,.14-.15.24-.14.4v.48c0,.63,0,1.32,0,2,0,5.37.14,10.75.23,16.12l.45,32.27C227.13,176.93,227.24,187.69,227.25,198.45Z"/><path d="M447.89,67.43c2.86,10.28,5.71,20.55,7.83,31,.09.67.24,1.31.29,2a13.89,13.89,0,0,1,0,2l-.1,4-.2,8-.41,16-1,32-.59,16-.69,16,.2-16,.31-16,.79-32,.5-16,.25-8,.12-4A15.51,15.51,0,0,0,455,98.6c-.91-5.23-2.15-10.42-3.35-15.61S449.14,72.62,447.89,67.43Z"/><path d="M625.35,152.53c4.79-3,9.63-5.9,14.46-8.8s9.71-5.74,14.51-8.69l1.8-1.09a8.69,8.69,0,0,0,1.62-1.19c1-1,1.9-2,2.82-3.1,1.84-2.12,3.63-4.3,5.46-6.44l5.43-6.48,5.47-6.46c-3.34,4.55-6.8,9-10.3,13.43-1.75,2.22-3.55,4.38-5.37,6.55-.92,1.08-1.84,2.14-2.84,3.18a9,9,0,0,1-1.77,1.33c-.6.39-1.2.76-1.8,1.13q-7.29,4.33-14.64,8.49C635.28,147.16,630.35,149.9,625.35,152.53Z"/><path d="M83.09,97.38c10.13-1.68,20.28-3.25,30.43-4.81L144,88l15.23-2.26c2.52-.39,5.12-.76,7.55-1.23,2.36-.81,4.76-1.83,7.14-2.76l28.52-11.65q-14,6.34-28.23,12.36c-2.38,1-4.69,2-7.19,2.89-2.61.52-5.09.88-7.65,1.29L144.13,89c-10.17,1.47-20.33,3-30.5,4.37S93.28,96.11,83.09,97.38Z"/><path d="M403.33,104.77a21.28,21.28,0,0,0,2.11,4.18,8.5,8.5,0,0,0,1.45,1.75,2.5,2.5,0,0,0,.88.54,4.35,4.35,0,0,0,1.07.13c3.1.07,6.26,0,9.39-.12s6.27-.23,9.36-.55a10.43,10.43,0,0,0,1.14-.16c.18,0,.38-.07.54-.12a2.78,2.78,0,0,0,.44-.19,7,7,0,0,0,1.41-1.74,31,31,0,0,0,2.18-4.16,25.31,25.31,0,0,1-1.75,4.41,7.15,7.15,0,0,1-1.45,2,2.73,2.73,0,0,1-.61.33c-.21.08-.4.11-.6.17-.4.12-.79.16-1.18.25a81.34,81.34,0,0,1-9.45.78,90.93,90.93,0,0,1-9.48-.12,5,5,0,0,1-1.25-.23,3.35,3.35,0,0,1-1.07-.74,9.07,9.07,0,0,1-1.44-2A18.48,18.48,0,0,1,403.33,104.77Z"/><path d="M403.11,100.6a15.94,15.94,0,0,1,1.17-4.67,5.35,5.35,0,0,1,1.45-2.07,7.55,7.55,0,0,1,2.43-.7,62.14,62.14,0,0,1,9.62-.66c1.61,0,3.22,0,4.83.16a18.73,18.73,0,0,1,4.83.85,11.75,11.75,0,0,1,3.82,3.07,13.24,13.24,0,0,1,2.5,4.12,14.72,14.72,0,0,0-2.86-3.78,11.24,11.24,0,0,0-3.75-2.69,20.76,20.76,0,0,0-4.61-.62c-1.58-.09-3.17-.13-4.76-.11s-3.18,0-4.76.09-3.18.16-4.75.33a7.24,7.24,0,0,0-2.18.46,5,5,0,0,0-1.37,1.76A17.73,17.73,0,0,0,403.11,100.6Z"/><path d="M404.07,100.34a9.09,9.09,0,0,0-2.15.79,3.59,3.59,0,0,0-.9.69,1.38,1.38,0,0,0-.44,1,1.25,1.25,0,0,0,.53.94,1.92,1.92,0,0,0,.47.31,2.41,2.41,0,0,0,.51.25,9.27,9.27,0,0,0,2.21.54,41.07,41.07,0,0,0,4.58.2c1.53,0,3.06,0,4.6,0,3.06,0,6.12-.16,9.18-.27l4.59-.17c1.51-.08,3.11-.13,4.51-.31a7.8,7.8,0,0,0,2-.7c.62-.31,1.14-.83,1.13-1.27s-.6-.91-1.24-1.17a8.41,8.41,0,0,0-2.1-.54c-3-.34-6.08-.45-9.13-.57s-6.13-.18-9.2-.18c-1.53,0-3.06,0-4.59.11A36.9,36.9,0,0,0,404.07,100.34Zm0,0a36.83,36.83,0,0,1,4.57-.45c1.53-.09,3.07-.14,4.6-.18,3.07-.1,6.13-.17,9.2-.18s6.13,0,9.24.22a8.89,8.89,0,0,1,2.34.57,4,4,0,0,1,1.12.65,1.9,1.9,0,0,1,.7,1.3,2,2,0,0,1-.56,1.37,5,5,0,0,1-.49.44l-.54.35a8.74,8.74,0,0,1-2.29.83c-1.65.19-3.12.19-4.67.26l-4.61.09c-3.07,0-6.14,0-9.21-.09s-6.13-.13-9.19-.51a9.53,9.53,0,0,1-2.23-.59,2.81,2.81,0,0,1-.52-.26,2.27,2.27,0,0,1-.48-.33,1.32,1.32,0,0,1-.54-1,1.44,1.44,0,0,1,.47-1,3.85,3.85,0,0,1,.92-.68A9.17,9.17,0,0,1,404.07,100.34Z"/></g><path class="cls-6" d="M8,165.1s27.51,2.7,27.85,2.64,1.26-4,3.51-4.11,10.25,7,11.48,13.86-.28,11.93-4.45,11.39-9.8-9.33-9.8-9.33-21.13-1.33-21.63-1a21.47,21.47,0,0,1-2.66,2.13,18.32,18.32,0,0,1-3.58.87Z"/><path class="cls-3" d="M269.77,88.81c1.87-2.9-2.43-24.57-4.46-26s-25.57,1.72-24.89,15.58S266.83,93.34,269.77,88.81Z"/><path class="cls-13" d="M269.77,88.81c1.87-2.9-2.43-24.57-4.46-26s-25.57,1.72-24.89,15.58S266.83,93.34,269.77,88.81Z"/></g></g></g></g></svg>