<svg xmlns="http://www.w3.org/2000/svg" viewBox="0 0 2000 1876.6"><defs><style>.cls-1{fill:#60917e;}.cls-2{fill:#182420;}.cls-3{fill:#f9cc35;}.cls-4{fill:#a3cc86;}.cls-5{fill:#005284;}.cls-6{fill:#f26b7a;}.cls-7{fill:#654a17;}.cls-8{fill:#f9cb37;}.cls-9{fill:#607f74;}.cls-10{fill:#a27a9d;}.cls-11{fill:#ff8000;}.cls-12{fill:#a9bab0;}.cls-13{fill:#ed7d67;}.cls-14{fill:#fff;}.cls-15{fill:#30bea4;}</style></defs><g id="Layer_2" data-name="Layer 2"><g id="Layer_1-2" data-name="Layer 1"><polygon class="cls-1" points="284.5 71.26 292.5 55.26 295.5 56.26 289.5 73.26 284.5 71.26"/><polygon class="cls-1" points="297.5 71.26 302.5 56.26 304.5 57.26 302.5 72.26 297.5 71.26"/><polygon class="cls-1" points="385.5 68.26 377.5 52.26 374.5 53.26 380.5 70.26 385.5 68.26"/><polygon class="cls-1" points="372.5 68.26 367.5 53.26 365.5 54.26 367.5 69.26 372.5 68.26"/><path class="cls-2" d="M313.5,170.26c-1-9-7-17-17-17-13,0-19,11-19,21s7,16,19,15S314.5,179.26,313.5,170.26Zm-19.11,9c-4.28.36-6.78-1.78-6.78-5.35s2.14-7.5,6.78-7.5c3.57,0,5.71,2.86,6.07,6.07S298.68,178.87,294.39,179.22Z"/><path class="cls-2" d="M415.5,171.26c-1-9-7-17-17-17-13,0-19,11-19,21s7,16,19,15S416.5,180.26,415.5,171.26Zm-19.11,9c-4.28.36-6.78-1.78-6.78-5.35s2.14-7.5,6.78-7.5c3.57,0,5.71,2.86,6.07,6.07S400.68,179.87,396.39,180.22Z"/><path class="cls-1" d="M455.16,159c-.51,9.5-4.6,10.81-19.16,10.81-1.75,0-4.93,0-9.27-.13-4.75-30.48-49.5-32.1-56.44-1.29-15-.37-31.22-.77-47-1.14-6.52-27.37-47-28.77-55.35-1.18-18.19-.34-31.43-.48-34.91-.26-16,1-22-4-20-18,1.11-7.78,3.77-17.42,7.11-28.06,33.28-.25,174.33-1.14,229.41,1.66A39.19,39.19,0,0,1,453,132C432.49,139.28,439.67,155.2,455.16,159Z"/><path class="cls-3" d="M455.16,159c-15.49-3.75-22.67-19.67-2.2-26.91a144.93,144.93,0,0,1,2,18.72A79.18,79.18,0,0,1,455.16,159Z"/><path class="cls-4" d="M443,114.76c-6-3-5-5-9-18s-4-32-22-32-134,4-149,5-27,2-34,23c-3.11,9.32-6.22,18.45-8.89,26.94,33.28-.25,174.33-1.14,229.41,1.66A13.92,13.92,0,0,0,443,114.76Zm-159-4c-4,0-29,1-37,1s-2.15-18.06,1-25c5-11,18-8,26-8s11-1,12,4,1,9,2,18S288,110.76,284,110.76Zm84,1c-5,0-57-2-65-2s-7-3-7-7v-18c0-3,1-5,7-6s32-2,46-3,16,0,18,4,3,9,4,18S373,111.76,368,111.76Zm56,2c-6,0-27-1-33-1s-10,0-11-5-2.86-20-4-28c-1-7,9-6,22-6s15,1,18,5,7,16,9,22S430,113.76,424,113.76Z"/><path class="cls-5" d="M298.5,43.26c23,0,77-4,103-5s20,6,6,10-57,13-89,12-66-7-65-12S290.5,43.26,298.5,43.26Z"/><path class="cls-6" d="M1420,283.26s-17.71-6.65-39-51c-12-25,9.56-27.37,19-38,8-9,10.6-27.64,46-15,28,10,15.18,52,1,68C1424,273.26,1433,276.26,1420,283.26Z"/><path class="cls-7" d="M1419.3,239.63c3.42-7,12.32-25.56,10.7-26.37s-8.22,11.74-11.36,17.8c-.54-7.87-.79-14.69-.64-19.8,0-10-6-9-5,2,.25,2.79.7,12.81,1.22,26.23-4.62-6.24-13.48-18-14.22-17.23s10.53,19.9,14.58,26.65c1.51,40.22,3.42,99.35,3.42,99.35s8,3,15,0C1433,348.26,1423,283.16,1419.3,239.63Z"/><path class="cls-8" d="M1661,108.26s-17.71-6.65-39-51c-12-25,9.56-27.37,19-38,8-9,10.6-27.64,46-15,28,10,15.18,52,1,68C1665,98.26,1674,101.26,1661,108.26Z"/><path class="cls-7" d="M1660.3,64.63c3.42-7,12.32-25.56,10.7-26.37s-8.22,11.74-11.36,17.8c-.54-7.87-.79-14.69-.64-19.8,0-10-6-9-5,2,.25,2.79.7,12.81,1.22,26.23-4.62-6.24-13.48-18-14.22-17.23s10.53,19.9,14.58,26.65c1.51,40.22,3.42,99.35,3.42,99.35s8,3,15,0C1674,173.26,1664,108.16,1660.3,64.63Z"/><path class="cls-9" d="M1821,303.26s-17.71-6.65-39-51c-12-25,9.56-27.37,19-38,8-9,10.6-27.64,46-15,28,10,15.18,52,1,68C1825,293.26,1834,296.26,1821,303.26Z"/><path class="cls-7" d="M1820.3,259.63c3.42-7,12.32-25.56,10.7-26.37s-8.22,11.74-11.36,17.8c-.54-7.87-.79-14.69-.64-19.8,0-10-6-9-5,2,.25,2.79.7,12.81,1.22,26.23-4.62-6.24-13.48-18-14.22-17.23s10.53,19.9,14.58,26.65c1.51,40.22,3.42,99.35,3.42,99.35s8,3,15,0C1834,368.26,1824,303.16,1820.3,259.63Z"/><path class="cls-10" d="M700,773.26s-17.71-6.65-39-51c-12-25,9.56-27.37,19-38,8-9,10.6-27.64,46-15,28,10,15.18,52,1,68C704,763.26,713,766.26,700,773.26Z"/><path class="cls-7" d="M699.3,729.63c3.42-7,12.32-25.56,10.7-26.37s-8.22,11.74-11.36,17.8c-.54-7.87-.79-14.69-.64-19.8,0-10-6-9-5,2,.25,2.79.7,12.81,1.22,26.23-4.62-6.24-13.48-18-14.22-17.23s10.53,19.9,14.58,26.65c1.51,40.22,3.42,99.35,3.42,99.35s8,3,15,0C713,838.26,703,773.16,699.3,729.63Z"/><path class="cls-5" d="M161,926.26s-17.71-6.65-39-51c-12-25,9.56-27.37,19-38,8-9,10.6-27.64,46-15,28,10,15.18,52,1,68C165,916.26,174,919.26,161,926.26Z"/><path class="cls-7" d="M160.3,882.63c3.42-7,12.32-25.56,10.7-26.37s-8.22,11.74-11.36,17.8c-.54-7.87-.79-14.69-.64-19.8,0-10-6-9-5,2,.25,2.79.7,12.81,1.22,26.23-4.62-6.24-13.48-18-14.22-17.23s10.53,19.9,14.58,26.65c1.51,40.22,3.42,99.35,3.42,99.35s8,3,15,0C174,991.26,164,926.16,160.3,882.63Z"/><path class="cls-4" d="M214,491.26s-17.71-6.65-39-51c-12-25,9.56-27.37,19-38,8-9,10.6-27.64,46-15,28,10,15.18,52,1,68C218,481.26,227,484.26,214,491.26Z"/><path class="cls-7" d="M213.3,447.63c3.42-7,12.32-25.56,10.7-26.37s-8.22,11.74-11.36,17.8c-.54-7.87-.79-14.69-.64-19.8,0-10-6-9-5,2,.25,2.79.7,12.81,1.22,26.23-4.62-6.24-13.48-18-14.22-17.23s10.53,19.9,14.58,26.65c1.51,40.22,3.42,99.35,3.42,99.35s8,3,15,0C227,556.26,217,491.16,213.3,447.63Z"/><path class="cls-6" d="M540,545.26s-17.71-6.65-39-51c-12-25,9.56-27.37,19-38,8-9,10.6-27.64,46-15,28,10,15.18,52,1,68C544,535.26,553,538.26,540,545.26Z"/><path class="cls-7" d="M539.3,501.63c3.42-7,12.32-25.56,10.7-26.37s-8.22,11.74-11.36,17.8c-.54-7.87-.79-14.69-.64-19.8,0-10-6-9-5,2,.25,2.79.7,12.81,1.22,26.23-4.62-6.24-13.48-18-14.22-17.23s10.53,19.9,14.58,26.65c1.51,40.22,3.42,99.35,3.42,99.35s8,3,15,0C553,610.26,543,545.16,539.3,501.63Z"/><path class="cls-11" d="M421,766.26s-17.71-6.65-39-51c-12-25,9.56-27.37,19-38,8-9,10.6-27.64,46-15,28,10,15.18,52,1,68C425,756.26,434,759.26,421,766.26Z"/><path class="cls-7" d="M420.3,722.63c3.42-7,12.32-25.56,10.7-26.37s-8.22,11.74-11.36,17.8c-.54-7.87-.79-14.69-.64-19.8,0-10-6-9-5,2,.25,2.79.7,12.81,1.22,26.23-4.62-6.24-13.48-18-14.22-17.23s10.53,19.9,14.58,26.65c1.51,40.22,3.42,99.35,3.42,99.35s8,3,15,0C434,831.26,424,766.16,420.3,722.63Z"/><path class="cls-12" d="M195,1700.26s-17.71-6.65-39-51c-12-25,9.56-27.37,19-38,8-9,10.6-27.64,46-15,28,10,15.18,52,1,68C199,1690.26,208,1693.26,195,1700.26Z"/><path class="cls-7" d="M194.3,1656.63c3.42-7,12.32-25.56,10.7-26.37s-8.22,11.74-11.36,17.8c-.54-7.87-.79-14.69-.64-19.8,0-10-6-9-5,2,.25,2.79.7,12.81,1.22,26.23-4.62-6.24-13.48-18-14.22-17.23s10.53,19.9,14.58,26.65c1.51,40.22,3.42,99.35,3.42,99.35s8,3,15,0C208,1765.26,198,1700.16,194.3,1656.63Z"/><path class="cls-13" d="M262,1321.26s-17.71-6.65-39-51c-12-25,9.56-27.37,19-38,8-9,10.6-27.64,46-15,28,10,15.18,52,1,68C266,1311.26,275,1314.26,262,1321.26Z"/><path class="cls-7" d="M261.3,1277.63c3.42-7,12.32-25.56,10.7-26.37s-8.22,11.74-11.36,17.8c-.54-7.87-.79-14.69-.64-19.8,0-10-6-9-5,2,.25,2.79.7,12.81,1.22,26.23-4.62-6.24-13.48-18-14.22-17.23s10.53,19.9,14.58,26.65c1.51,40.22,3.42,99.35,3.42,99.35s8,3,15,0C275,1386.26,265,1321.16,261.3,1277.63Z"/><path class="cls-4" d="M1034,1752.26s-17.71-6.65-39-51c-12-25,9.56-27.37,19-38,8-9,10.6-27.64,46-15,28,10,15.18,52,1,68C1038,1742.26,1047,1745.26,1034,1752.26Z"/><path class="cls-7" d="M1033.3,1708.63c3.42-7,12.32-25.56,10.7-26.37s-8.22,11.74-11.36,17.8c-.54-7.87-.79-14.69-.64-19.8,0-10-6-9-5,2,.25,2.79.7,12.81,1.22,26.23-4.62-6.24-13.48-18-14.22-17.23s10.53,19.9,14.58,26.65c1.51,40.22,3.42,99.35,3.42,99.35s8,3,15,0C1047,1817.26,1037,1752.16,1033.3,1708.63Z"/><path class="cls-11" d="M1827,1737.26s-17.71-6.65-39-51c-12-25,9.56-27.37,19-38,8-9,10.6-27.64,46-15,28,10,15.18,52,1,68C1831,1727.26,1840,1730.26,1827,1737.26Z"/><path class="cls-7" d="M1826.3,1693.63c3.42-7,12.32-25.56,10.7-26.37s-8.22,11.74-11.36,17.8c-.54-7.87-.79-14.69-.64-19.8,0-10-6-9-5,2,.25,2.79.7,12.81,1.22,26.23-4.62-6.24-13.48-18-14.22-17.23s10.53,19.9,14.58,26.65c1.51,40.22,3.42,99.35,3.42,99.35s8,3,15,0C1840,1802.26,1830,1737.16,1826.3,1693.63Z"/><path class="cls-10" d="M578,1778.26s-17.71-6.65-39-51c-12-25,9.56-27.37,19-38,8-9,10.6-27.64,46-15,28,10,15.18,52,1,68C582,1768.26,591,1771.26,578,1778.26Z"/><path class="cls-7" d="M577.3,1734.63c3.42-7,12.32-25.56,10.7-26.37s-8.22,11.74-11.36,17.8c-.54-7.87-.79-14.69-.64-19.8,0-10-6-9-5,2,.25,2.79.7,12.81,1.22,26.23-4.62-6.24-13.48-18-14.22-17.23s10.53,19.9,14.58,26.65c1.51,40.22,3.42,99.35,3.42,99.35s8,3,15,0C591,1843.26,581,1778.16,577.3,1734.63Z"/><path class="cls-5" d="M1466,1810.26s-17.71-6.65-39-51c-12-25,9.56-27.37,19-38,8-9,10.6-27.64,46-15,28,10,15.18,52,1,68C1470,1800.26,1479,1803.26,1466,1810.26Z"/><path class="cls-7" d="M1465.3,1766.63c3.42-7,12.32-25.56,10.7-26.37s-8.22,11.74-11.36,17.8c-.54-7.87-.79-14.69-.64-19.8,0-10-6-9-5,2,.25,2.79.7,12.81,1.22,26.23-4.62-6.24-13.48-18-14.22-17.23s10.53,19.9,14.58,26.65c1.51,40.22,3.42,99.35,3.42,99.35s8,3,15,0C1479,1875.26,1469,1810.16,1465.3,1766.63Z"/><path class="cls-12" d="M1847,1337.26s-17.71-6.65-39-51c-12-25,9.56-27.37,19-38,8-9,10.6-27.64,46-15,28,10,15.18,52,1,68C1851,1327.26,1860,1330.26,1847,1337.26Z"/><path class="cls-7" d="M1846.3,1293.63c3.42-7,12.32-25.56,10.7-26.37s-8.22,11.74-11.36,17.8c-.54-7.87-.79-14.69-.64-19.8,0-10-6-9-5,2,.25,2.79.7,12.81,1.22,26.23-4.62-6.24-13.48-18-14.22-17.23s10.53,19.9,14.58,26.65c1.51,40.22,3.42,99.35,3.42,99.35s8,3,15,0C1860,1402.26,1850,1337.16,1846.3,1293.63Z"/><path class="cls-4" d="M1635.78,418.29s-16.6-35.19-8.61-38.78,9.11,36.06,9.11,36.06,16.44-43.17,26.27-32.34c6.18,6.22-21.5,31-21.5,31s32.68-24.38,36.56-11.83S1640.89,418.11,1635.78,418.29Z"/><path class="cls-4" d="M1635.89,418.55s13.62-36.45,5.36-39.36-6.09,36.69-6.09,36.69-20-41.66-28.86-30.05c-5.63,6.71,24,29.07,24,29.07s-34.59-21.58-37.41-8.76S1630.79,418.79,1635.89,418.55Z"/><path class="cls-4" d="M747.78,587.29s-16.6-35.19-8.61-38.78,9.11,36.06,9.11,36.06,16.44-43.17,26.27-32.34c6.18,6.22-21.5,31-21.5,31s32.68-24.38,36.56-11.83S752.89,587.11,747.78,587.29Z"/><path class="cls-4" d="M747.89,587.55s13.62-36.45,5.36-39.36-6.09,36.69-6.09,36.69-20-41.66-28.86-30c-5.63,6.71,24,29.07,24,29.07s-34.59-21.58-37.41-8.76S742.79,587.79,747.89,587.55Z"/><path class="cls-4" d="M247.78,675.29s-16.6-35.19-8.61-38.78,9.11,36.06,9.11,36.06,16.44-43.17,26.27-32.34c6.18,6.22-21.5,31-21.5,31s32.68-24.38,36.56-11.83S252.89,675.11,247.78,675.29Z"/><path class="cls-4" d="M247.89,675.55s13.62-36.45,5.36-39.36-6.09,36.69-6.09,36.69-20-41.66-28.86-30c-5.63,6.71,24,29.07,24,29.07s-34.59-21.58-37.41-8.76S242.79,675.79,247.89,675.55Z"/><path class="cls-4" d="M583.78,939.29s-16.6-35.19-8.61-38.78,9.11,36.06,9.11,36.06,16.44-43.17,26.27-32.34c6.18,6.22-21.5,31-21.5,31s32.68-24.38,36.56-11.83S588.89,939.11,583.78,939.29Z"/><path class="cls-4" d="M583.89,939.55s13.62-36.45,5.36-39.36-6.09,36.69-6.09,36.69-20-41.66-28.86-30c-5.63,6.71,24,29.07,24,29.07s-34.59-21.58-37.41-8.76S578.79,939.79,583.89,939.55Z"/><path class="cls-4" d="M1340.78,886.29s-16.6-35.19-8.61-38.78,9.11,36.06,9.11,36.06,16.44-43.17,26.27-32.34c6.18,6.22-21.5,31-21.5,31s32.68-24.38,36.56-11.83S1345.89,886.11,1340.78,886.29Z"/><path class="cls-4" d="M1340.89,886.55s13.62-36.45,5.36-39.36-6.09,36.69-6.09,36.69-20-41.66-28.86-30c-5.63,6.71,24,29.07,24,29.07s-34.59-21.58-37.41-8.76S1335.79,886.79,1340.89,886.55Z"/><path class="cls-4" d="M299.78,1059.29s-16.6-35.19-8.61-38.78,9.11,36.06,9.11,36.06,16.44-43.17,26.27-32.34c6.18,6.22-21.5,31-21.5,31s32.68-24.38,36.56-11.83S304.89,1059.11,299.78,1059.29Z"/><path class="cls-4" d="M299.89,1059.55s13.62-36.45,5.36-39.36-6.09,36.69-6.09,36.69-20-41.66-28.86-30.05c-5.63,6.71,24,29.07,24,29.07s-34.59-21.58-37.41-8.76S294.79,1059.79,299.89,1059.55Z"/><path class="cls-4" d="M440.78,1757.29s-16.6-35.19-8.61-38.78,9.11,36.06,9.11,36.06,16.44-43.17,26.27-32.34c6.18,6.22-21.5,31-21.5,31s32.68-24.38,36.56-11.83S445.89,1757.11,440.78,1757.29Z"/><path class="cls-4" d="M440.89,1757.55s13.62-36.45,5.36-39.36-6.09,36.69-6.09,36.69-20-41.66-28.86-30.05c-5.63,6.71,24,29.07,24,29.07s-34.59-21.58-37.41-8.76S435.79,1757.79,440.89,1757.55Z"/><path class="cls-4" d="M1210.78,1834.29s-16.6-35.19-8.61-38.78,9.11,36.06,9.11,36.06,16.44-43.17,26.27-32.34c6.18,6.22-21.5,31-21.5,31s32.68-24.38,36.56-11.83S1215.89,1834.11,1210.78,1834.29Z"/><path class="cls-4" d="M1210.89,1834.55s13.62-36.45,5.36-39.36-6.09,36.69-6.09,36.69-20-41.66-28.86-30.05c-5.63,6.71,24,29.07,24,29.07s-34.59-21.58-37.41-8.76S1205.79,1834.79,1210.89,1834.55Z"/><path class="cls-4" d="M173.78,1457.29s-16.6-35.19-8.61-38.78,9.11,36.06,9.11,36.06,16.44-43.17,26.27-32.34c6.18,6.22-21.5,31-21.5,31s32.68-24.38,36.56-11.83S178.89,1457.11,173.78,1457.29Z"/><path class="cls-4" d="M173.89,1457.55s13.62-36.45,5.36-39.36-6.09,36.69-6.09,36.69-20-41.66-28.86-30.05c-5.63,6.71,24,29.07,24,29.07s-34.59-21.58-37.41-8.76S168.79,1457.79,173.89,1457.55Z"/><path class="cls-4" d="M838.78,1721.29s-16.6-35.19-8.61-38.78,9.11,36.06,9.11,36.06,16.44-43.17,26.27-32.34c6.18,6.22-21.5,31-21.5,31s32.68-24.38,36.56-11.83S843.89,1721.11,838.78,1721.29Z"/><path class="cls-4" d="M838.89,1721.55s13.62-36.45,5.36-39.36-6.09,36.69-6.09,36.69-20-41.66-28.86-30.05c-5.63,6.71,24,29.07,24,29.07s-34.59-21.58-37.41-8.76S833.79,1721.79,838.89,1721.55Z"/><path class="cls-4" d="M1647.78,1762.29s-16.6-35.19-8.61-38.78,9.11,36.06,9.11,36.06,16.44-43.17,26.27-32.34c6.18,6.22-21.5,31-21.5,31s32.68-24.38,36.56-11.83S1652.89,1762.11,1647.78,1762.29Z"/><path class="cls-4" d="M1647.89,1762.55s13.62-36.45,5.36-39.36-6.09,36.69-6.09,36.69-20-41.66-28.86-30.05c-5.63,6.71,24,29.07,24,29.07s-34.59-21.58-37.41-8.76S1642.79,1762.79,1647.89,1762.55Z"/><path class="cls-4" d="M1932.78,1023.29s-16.6-35.19-8.61-38.78,9.11,36.06,9.11,36.06,16.44-43.17,26.27-32.34c6.18,6.22-21.5,31-21.5,31s32.68-24.38,36.56-11.83S1937.89,1023.11,1932.78,1023.29Z"/><path class="cls-4" d="M1932.89,1023.55s13.62-36.45,5.36-39.36-6.09,36.69-6.09,36.69-20-41.66-28.86-30c-5.63,6.71,24,29.07,24,29.07s-34.59-21.58-37.41-8.76S1927.79,1023.79,1932.89,1023.55Z"/><path class="cls-4" d="M1300.78,1361.29s-16.6-35.19-8.61-38.78,9.11,36.06,9.11,36.06,16.44-43.17,26.27-32.34c6.18,6.22-21.5,31-21.5,31s32.68-24.38,36.56-11.83S1305.89,1361.11,1300.78,1361.29Z"/><path class="cls-4" d="M1300.89,1361.55s13.62-36.45,5.36-39.36-6.09,36.69-6.09,36.69-20-41.66-28.86-30.05c-5.63,6.71,24,29.07,24,29.07s-34.59-21.58-37.41-8.76S1295.79,1361.79,1300.89,1361.55Z"/><path class="cls-4" d="M1166.78,123.29s-16.6-35.19-8.61-38.78,9.11,36.06,9.11,36.06,16.44-43.17,26.27-32.34c6.18,6.22-21.5,31-21.5,31s32.68-24.38,36.56-11.83S1171.89,123.11,1166.78,123.29Z"/><path class="cls-4" d="M1166.89,123.55s13.62-36.45,5.36-39.36-6.09,36.69-6.09,36.69-20-41.66-28.86-30c-5.63,6.71,24,29.07,24,29.07s-34.59-21.58-37.41-8.76S1161.79,123.79,1166.89,123.55Z"/><path class="cls-9" d="M2000,1533.07v77c-105.22-3.35-309.78-8.65-549.75-8.65-168.3,0-354,2.61-535.11,10.31q-24.12,1-47.29,1c-128.29,0-234-23.61-314.74-70.37-98.69-57.14-136.83-135-151.45-190.29s-12.62-114.88,5.7-167.6c18.54-53.32,51.4-94.33,92.54-115.47,43.9-22.56,125-29.57,263-22.75,113.79,5.63,250.31,20,382.33,34,192,20.26,390.61,41.22,476.88,28.9,107-15.28,138.56-100.6,147.19-136.58,18.52-77.24-6.92-158.18-61.89-196.81-26.19-18.41-77.4-31.18-152.2-37.94-71.37-6.46-154.46-6.81-234.82-7.15-75.48-.32-146.77-.63-205.6-5.83-76.39-6.76-119.25-20.58-143.32-46.24-29.06-31-41.11-80.72-55.06-138.31-30.48-125.82-65-268.43-273.43-271.53-222.73-3.32-490.07-2-642.93-.73v-77c81.56-.67,195.41-1.36,317.69-1.36,107.7,0,221.89.53,326.38,2.08,61.68.92,115.82,12.52,160.93,34.48a278.93,278.93,0,0,1,102.25,85c48.64,65.18,68.22,146,84,210.92,10.43,43.07,21.21,87.6,36.38,103.76,2.37,2.53,18.07,15.51,93.94,22.22,55.61,4.92,125.33,5.21,199.15,5.53,82,.35,166.76.71,241.43,7.46,90.89,8.22,151.12,24.63,189.54,51.63,41.46,29.14,71.92,72.34,88.1,124.92,14.87,48.36,16.43,102.64,4.38,152.85-11.76,49.06-35.78,92.64-69.44,126-37.43,37.12-86.44,60.91-141.74,68.81-95.73,13.68-290.08-6.83-495.84-28.55-131-13.82-266.41-28.11-378.06-33.64-147.82-7.32-203.37,3.75-223.94,14.32-23.13,11.88-43.17,38.23-55,72.27-13.34,38.38-14.76,81.93-4,122.62,16.58,62.71,87.79,203.38,391,203.38,14.42,0,29.31-.32,44.8-1C1351.67,1516.13,1818,1527.32,2000,1533.07Z"/><path class="cls-14" d="M2000,1566.09v11c-180.27-5.72-646.63-17-1086.27,1.71q-23.49,1-46,1c-122.31,0-222.41-22.12-298.07-65.93-88.89-51.47-123.07-121-136.09-170.18s-11.22-101.75,5-148.33c15.51-44.61,43.38-79.95,76.46-96.95,83-42.68,359.44-13.51,626.72,14.69,203,21.42,394.69,41.66,485,28.76,88.1-12.59,153.38-73,174.62-161.55,21.6-90.08-9.24-185.28-75-231.51-70.66-49.67-248.74-50.42-405.86-51.09-154-.66-287.06-1.22-325-41.65-23.11-24.62-34.21-70.44-47.06-123.5-31.65-130.66-71-293.28-305-296.76-222.9-3.32-490.36-2-643.42-.73v-11c81.5-.67,195.38-1.36,317.68-1.36,107.55,0,221.57.54,325.9,2.09C886.08,228.42,928.3,402.71,959.12,530c12.49,51.54,23.27,96.06,44.39,118.57,15.38,16.38,53,27,115.11,32.51,57,5,127.38,5.34,201.91,5.66,81.29.34,165.34.7,238.6,7.33,83.73,7.57,140.5,22.54,173.53,45.76,35.41,24.89,61.53,62.11,75.53,107.63,13.17,42.79,14.53,90.89,3.84,135.45-10.33,43.08-31.28,81.22-60.59,110.28-32.82,32.55-74.26,52.6-123.16,59.58-20.1,2.88-45,4.14-73.88,4.14-102.69,0-254.81-16.05-413.84-32.84-131.42-13.87-267.32-28.21-379.89-33.78-126.29-6.25-205-.38-240.66,17.93-66.68,34.27-100.69,138.65-75.82,232.68,12.49,47.22,45.35,113.9,131,163.48,83.1,48.12,196.84,69.46,338.11,63.45,181.76-7.73,368.15-10.34,537-10.34C1689.77,1557.47,1894,1562.73,2000,1566.09Z"/><path class="cls-8" d="M961.52,315.8A45.32,45.32,0,0,0,966,307c-13.94-6.53-12.37-23.18-.83-26.35-3-7.09-8.28-14.74-16.78-23,0,0,32.66-29.75,6.16-52.65s-37.06-38-67.1-28.88c-15.35,4.92-13.26,4.12-26.1,1.86s-35.39.15-46.8,14.1c-5.54,6.77-5.12,12.61-3.23,16.82,28.18-18,52.91,4.48,36.61,35.43l56.25,51.49c27.33-16.7,53.29,3.43,35.55,32.07C948.24,333.56,953.43,328.52,961.52,315.8Zm-37-115.86c-7.55,5-14.3,12.66-18.35,17.09s-7,1.72-13.7-5.77S877,197.08,882.53,194s19.34-10.77,30-9.12S931.43,195.39,924.55,199.94Zm7.78,47.78c-8.05-6-17.71-16.2-20.66-18.9s10.56-17.46,16-23.36,6.81-6,16.4,2.82c11.81,10.8,7.27,20.2,3.4,28.87S940.38,253.74,932.33,247.72Z"/><path class="cls-2" d="M842.6,235.41c5.34-7.32,6.32-17.27-1.06-24-9.59-8.78-21.44-4.71-28.19,2.66s-5.64,16.53,3.88,23.9S837.26,242.72,842.6,235.41Zm-20.14-6.29c-3.41-2.63-3.8-5.9-1.39-8.53s6.64-4.09,10.06-1c2.64,2.41,2.29,6,.38,8.57S825.86,231.75,822.46,229.12Z"/><path class="cls-2" d="M936.31,322.62c5-6.91,6-16.31-1-22.69-9.06-8.29-20.26-4.45-26.64,2.52s-5.32,15.61,3.67,22.57S931.26,329.53,936.31,322.62Zm-19-5.94c-3.22-2.49-3.59-5.57-1.31-8.06s6.27-3.86,9.51-.9c2.48,2.28,2.16,5.63.35,8.1S920.49,319.16,917.28,316.68Z"/><path class="cls-11" d="M966,307c-13.94-6.53-12.37-23.18-.83-26.35C969.25,290.49,968.78,299.25,966,307Z"/><path class="cls-10" d="M1259.5,546.76c0,2.35,0,5.68-.08,9.64-.26,19.66-1.09,54.87-1.92,62.36-.53,4.73-1.6,7-4.69,8-2.78,1-7.2,1-14.31,1h-40.87c-7.09-25.63-38.44-23.9-43.6.61-31.83,1.81-41.63,2.89-42.53-10.61-1-15-2-67-2-80s3-13,22-13,100,4,114,4S1259.5,532.76,1259.5,546.76Z"/><path class="cls-11" d="M1358,604.74c-.31-5-2-8-10-9.48-11-2-37-4-37-4-9.32-36.34-27.32-34.48-51.58-34.86-.26,19.66-1.09,54.87-1.92,62.36-.53,4.73-1.6,7-4.69,8,9.23.57,24.57,1.51,40.4,2.46,7.49-20.18,34.87-20.6,42.09,2.38,7.34.38,12.71.62,14.7.62,5.73,0,7.52-3.94,8-9C1342.35,619.43,1342.33,605.3,1358,604.74Zm-65.45-10h-19c-5,0-5-3-5-8v-15c0-8,4-7,11-6s14,9,18,18S1298.5,594.76,1292.5,594.76Z"/><path class="cls-3" d="M1358,623.26c-15.65-3.83-15.67-18,0-18.52.13,1.88,0,4,0,6.52C1358,615.1,1358.36,619.49,1358,623.26Z"/><path class="cls-2" d="M1192,634.26c-1-9-7-17-17-17-13,0-19,11-19,21s7,16,19,15S1193,643.26,1192,634.26Zm-19.11,9c-4.28.36-6.78-1.78-6.78-5.35s2.14-7.5,6.78-7.5c3.57,0,5.71,2.86,6.07,6.07S1177.18,642.87,1172.89,643.22Z"/><path class="cls-2" d="M1332,637.26c-1-9-7-17-17-17-13,0-19,11-19,21s7,16,19,15S1333,646.26,1332,637.26Zm-19.11,9c-4.28.36-6.78-1.78-6.78-5.35s2.14-7.5,6.78-7.5c3.57,0,5.71,2.86,6.07,6.07S1317.18,645.87,1312.89,646.22Z"/><path class="cls-6" d="M1853,751.77a44.88,44.88,0,0,0,3.26-9.33c-14.66-4.69-15.23-21.4-4.18-26-3.84-6.65-10.1-13.56-19.59-20.65,0,0,28.59-33.68-.6-53s-41.62-33-70.25-20.08c-14.6,6.85-12.63,5.78-25.65,5.18s-35.08,4.67-44.62,20c-4.62,7.42-3.46,13.17-1.05,17.1,25.66-21.44,53.05-2.31,40.84,30.46l62.36,43.88c25-20,53.3-3.4,39.36,27.28C1842.1,771.08,1846.61,765.42,1853,751.77Zm-51.46-110.19c-6.86,5.92-12.57,14.39-16,19.29s-6.72,2.61-14.32-4-17.18-12.09-12.09-15.85,17.81-13.14,28.62-12.87S1807.78,636.19,1801.55,641.58Zm13.81,46.4c-8.75-4.94-19.63-13.81-22.9-16.11s8.24-18.66,12.84-25.2,6-6.79,16.63.69c13.09,9.21,9.78,19.11,7.06,28.2S1824.11,692.92,1815.36,688Z"/><path class="cls-2" d="M1724.8,687.23c4.36-7.94,4-17.93-4.13-23.69-10.63-7.48-21.86-1.94-27.62,6.24s-3.48,17.12,6.91,23.2S1720.43,695.16,1724.8,687.23ZM1704,683.56c-3.71-2.17-4.52-5.36-2.47-8.28s6.07-4.9,9.87-2.23c2.92,2.05,3,5.62,1.47,8.45S1707.72,685.73,1704,683.56Z"/><path class="cls-2" d="M1828.87,761.75c4.12-7.49,3.84-16.93-3.89-22.37-10-7.07-20.66-1.83-26.09,5.9s-3.29,16.16,6.52,21.91S1824.75,769.25,1828.87,761.75Zm-19.63-3.46c-3.5-2-4.27-5.07-2.33-7.82s5.73-4.63,9.32-2.11c2.76,1.94,2.86,5.31,1.39,8S1812.74,760.34,1809.24,758.29Z"/><path class="cls-3" d="M1856.27,742.44c-14.66-4.69-15.23-21.4-4.18-26C1857.44,725.68,1858.09,734.43,1856.27,742.44Z"/><path class="cls-12" d="M1497.84,1007.56c-.13,2.34-.29,5.67-.47,9.63-.85,19.64-2,54.84-1.61,62.37.26,4.75,1.2,7.06,4.23,8.29,2.72,1.11,7.13,1.36,14.23,1.77l40.81,2.31c8.53-25.19,39.73-21.69,43.49,3.07,31.68,3.61,41.4,5.24,43.06-8.18,1.85-14.92,5.79-66.78,6.53-79.76s-2.26-13.15-21.23-14.23-100.07-1.66-114.05-2.45S1498.63,993.58,1497.84,1007.56Z"/><path class="cls-13" d="M1395.17,1078.36c.19,5.08,1.76,9.12,7.48,9.44,2,.11,7.36.18,14.71.21,8.51-22.53,35.82-20.56,42.15,0,15.86,0,31.23-.12,40.48-.17-3-1.23-4-3.54-4.23-8.29-.4-7.53.76-42.73,1.61-62.37-24.24-1-42.11-3.87-53.47,31.88,0,0-26.07.53-37.16,1.9-8,1-9.88,3.93-10.47,8.91C1411.83,1061.32,1411,1075.42,1395.17,1078.36Zm62.64-36c4.5-8.76,11.94-16.35,19-16.95s11.09-1.38,10.64,6.61l-.85,15c-.28,5-.45,8-5.45,7.7l-19-1.08C1456.18,1053.28,1453.3,1051.11,1457.81,1042.35Z"/><path class="cls-3" d="M1395.17,1078.36c15.84-2.94,16.66-17,1.1-18.48-.24,1.87-.28,4-.42,6.5C1395.63,1070.22,1395,1074.58,1395.17,1078.36Z"/><path class="cls-2" d="M1576.18,1118.67c11.92,1.68,19.25-3.92,19.82-13.9s-4.81-21.31-17.79-22c-10-.57-16.42,7.08-17.93,16S1564.25,1117,1576.18,1118.67Zm-3-17c.54-3.19,2.84-5.92,6.41-5.72,4.63.26,6.55,4.31,6.35,7.87s-2.82,5.56-7.08,5S1572.64,1104.84,1573.17,1101.65Z"/><path class="cls-2" d="M1436.23,1113.74c11.93,1.68,19.25-3.91,19.82-13.9s-4.8-21.3-17.78-22c-10-.57-16.43,7.08-17.94,16S1424.31,1112.07,1436.23,1113.74Zm-3-17c.54-3.18,2.84-5.92,6.4-5.71,4.64.26,6.55,4.3,6.35,7.87s-2.82,5.56-7.07,5S1432.69,1099.91,1433.23,1096.72Z"/><path class="cls-2" d="M1029.8,1073.32c11.79,2.44,19.46-2.68,20.67-12.6s-3.43-21.57-16.34-23.14c-9.92-1.2-16.84,6-18.92,14.83S1018,1070.88,1029.8,1073.32Zm-1.91-17.18c.74-3.14,3.21-5.72,6.76-5.29,4.61.56,6.26,4.71,5.83,8.26s-3.17,5.37-7.38,4.5S1027.15,1059.29,1027.89,1056.14Z"/><path class="cls-2" d="M928.42,1062c11.79,2.44,19.46-2.68,20.67-12.6s-3.43-21.57-16.33-23.14c-9.93-1.2-16.85,6-18.93,14.83S916.63,1059.59,928.42,1062Zm-1.91-17.18c.74-3.14,3.22-5.72,6.76-5.29,4.61.56,6.26,4.71,5.83,8.26s-3.17,5.37-7.38,4.5S925.77,1048,926.51,1044.85Z"/><path class="cls-15" d="M875.94,1024.13c-.63,9.49,3.27,11.28,17.72,13,1.74.21,4.9.55,9.22,1,8.39-29.69,53-25.91,56.18,5.52,15,1.44,31.09,3,46.83,4.53,9.77-26.39,50.11-22.91,55.09,5.49,18.1,1.85,31.26,3.31,34.69,4,15.76,2.92,22.32-1.33,22-15.46-.17-7.86-1.65-17.75-3.68-28.72-33-4.25-172.93-22.12-227.94-26a39.06,39.06,0,0,0-4.7,10.19C900.82,1007.33,891.77,1022.27,875.94,1024.13Z"/><path class="cls-3" d="M875.94,1024.13c15.83-1.86,24.88-16.8,5.43-26.45a144.84,144.84,0,0,0-4.28,18.33A79.47,79.47,0,0,0,875.94,1024.13Z"/><path class="cls-12" d="M886.07,987.49c55,3.85,194.93,21.72,227.94,26-1.63-8.75-3.62-18.18-5.58-27.81-4.42-21.69-16.22-24.13-31-26.93S948,938,930.13,935.82,910,952.51,904.44,964.94s-4.79,14.53-11.1,16.78A14,14,0,0,0,886.07,987.49Zm162.82-1c2.08-8.82,2.56-12.79,4.16-17.63s4.45-3.49,12.39-2.53,21.21-.45,24.85,11.07c2.29,7.27,5.92,25.91-2,24.94s-32.64-5-36.61-5.44S1046.82,995.3,1048.89,986.49Zm-82-13c2.07-8.81,3.67-13.65,6.14-17.38s4.57-4.48,18.35-1.81,39.47,6.81,45.3,8.52,6.59,3.82,6.23,6.8l-2.17,17.87c-.48,4,.15,7.07-7.79,6.1s-59.81-5.23-64.77-5.84S964.78,982.33,966.86,973.51Zm-54-3.52c2.71-5.71,8.12-17.15,11.58-20.76s5.57-4.36,18.47-2.79,23,1.77,21.12,8.6c-2.09,7.79-5.75,22.47-7.34,27.32s-5.57,4.36-11.52,3.64-26.93-2.26-32.88-3S910.18,975.71,912.89,970Z"/><path class="cls-8" d="M596,1450a46.05,46.05,0,0,0,6.44-7.49c-11.94-9.73-6.36-25.49,5.61-25.76-1.14-7.6-4.44-16.31-10.68-26.38,0,0,38.92-20.91,18.8-49.56s-26.7-45.88-58.05-44.36c-16.09,1-13.87.77-25.78-4.55s-34.35-8.47-48.82,2.28c-7,5.22-8,11-7.23,15.54,31.72-10.59,50.23,17.22,26.89,43.27l42,63.63c30.57-9.54,50.85,16.31,26.67,39.77C578.81,1463.93,585.07,1460.31,596,1450Zm-7.65-121.38c-8.55,3-17,8.8-22,12.11s-7.21,0-11.88-8.93-11.58-17.52-5.47-19.16,21.38-5.73,31.35-1.53S596.15,1325.83,588.37,1328.57Zm-4.1,48.24c-6.34-7.79-13.22-20-15.43-23.36s14.49-14.36,21.16-18.77,8.07-4.13,15.23,6.72c8.82,13.35,2.12,21.37-3.73,28.83S590.62,1384.6,584.27,1376.81Z"/><path class="cls-2" d="M500.24,1343c7-5.79,10.33-15.21,4.82-23.55-7.16-10.85-19.65-9.8-28-4.29s-9.5,14.66-2.05,24.12S493.29,1348.81,500.24,1343Zm-18-11c-2.66-3.37-2.25-6.64.73-8.61s7.44-2.34,10,1.53c2,3,.77,6.34-1.72,8.41S484.9,1335.39,482.24,1332Z"/><path class="cls-2" d="M569.9,1450.42c6.57-5.47,9.75-14.36,4.55-22.25-6.77-10.24-18.56-9.25-26.44-4s-9,13.84-1.94,22.78S563.32,1455.9,569.9,1450.42Zm-17-10.4c-2.51-3.19-2.13-6.27.69-8.13s7-2.21,9.44,1.44c1.86,2.82.72,6-1.63,8S555.4,1443.22,552.89,1440Z"/><path class="cls-11" d="M602.46,1442.46c-11.94-9.73-6.36-25.49,5.61-25.76C609.67,1427.28,607.08,1435.67,602.46,1442.46Z"/><polygon class="cls-1" points="921.63 1421.86 928.77 1405.47 931.82 1406.31 926.72 1423.6 921.63 1421.86"/><polygon class="cls-1" points="934.61 1421.18 938.81 1405.94 940.86 1406.83 939.65 1421.92 934.61 1421.18"/><polygon class="cls-1" points="1022.33 1413.56 1013.5 1398 1010.55 1399.16 1017.44 1415.82 1022.33 1413.56"/><polygon class="cls-1" points="1009.35 1414.24 1003.56 1399.53 1001.62 1400.63 1004.4 1415.51 1009.35 1414.24"/><path class="cls-2" d="M955.79,1519.2c-1.48-8.93-7.89-16.61-17.87-16.08-13,.68-18.4,12-17.87,22s7.83,15.61,19.76,14S957.26,1528.14,955.79,1519.2Zm-18.62,10c-4.26.58-6.86-1.43-7-5s1.74-7.6,6.38-7.84c3.57-.19,5.85,2.55,6.38,5.74S941.43,1528.58,937.17,1529.16Z"/><path class="cls-2" d="M1057.7,1514.84c-1.47-8.93-7.89-16.61-17.87-16.08-13,.68-18.4,12-17.87,22s7.83,15.61,19.76,14S1059.17,1523.78,1057.7,1514.84Zm-18.61,10c-4.26.58-6.87-1.43-7.06-5s1.75-7.6,6.38-7.84c3.57-.19,5.86,2.55,6.38,5.74S1043.35,1524.21,1039.09,1524.8Z"/><path class="cls-1" d="M1096.66,1500.47c0,9.51-4,11-18.57,11.8-1.75.09-4.93.21-9.26.36-6.35-30.19-51.12-29.46-56.43,1.67-15,.42-31.22.87-47,1.33-8-27-48.43-26.26-55.33,1.73-18.19.62-31.42,1.18-34.88,1.58-15.92,1.84-22.18-2.84-20.92-16.93.7-7.82,2.85-17.59,5.63-28.39,33.22-2,174-10.3,229.18-10.4a39.53,39.53,0,0,1,4,10.49C1073,1482,1081,1497.54,1096.66,1500.47Z"/><path class="cls-3" d="M1096.66,1500.47c-15.67-2.93-23.68-18.46-3.61-26.76a146,146,0,0,1,3,18.59A79.68,79.68,0,0,1,1096.66,1500.47Z"/><path class="cls-4" d="M1082.19,1457c-6.15-2.68-5.25-4.73-9.93-17.51s-5.68-31.74-23.65-30.8-133.61,11-148.53,12.83-26.86,3.41-32.75,24.75c-2.62,9.47-5.24,18.75-7.46,27.37,33.22-2,174-10.3,229.18-10.4A13.91,13.91,0,0,0,1082.19,1457Zm-159,4.36c-4,.21-28.91,2.52-36.9,2.94s-3.09-17.93-.31-25c4.41-11.25,17.55-8.93,25.54-9.35s10.94-1.58,12.2,3.36,1.47,8.93,2.94,17.87S927.2,1461.13,923.2,1461.34Zm83.94-3.42c-5,.26-57,1-65,1.42s-7.15-2.63-7.36-6.62l-.94-18c-.16-3,.73-5,6.67-6.36s31.85-3.68,45.78-5.41,16-.84,18.19,3,3.47,8.83,4.94,17.76S1012.13,1457.66,1007.14,1457.92Zm56-.94c-6,.31-27,.42-33,.73s-10,.53-11.25-4.41-3.91-19.85-5.47-27.76c-1.36-6.93,8.68-6.46,21.66-7.14s15,.21,18.24,4,7.83,15.61,10.14,21.5S1069.16,1456.66,1063.16,1457Z"/><path class="cls-5" d="M934.13,1393.17c23-1.21,76.69-8,102.6-10.41s20.29,4.94,6.52,9.67-56.24,16-88.25,16.66-66.28-3.52-65.54-8.57S926.15,1393.59,934.13,1393.17Z"/><path class="cls-6" d="M1649,1486.21a44.57,44.57,0,0,0-2.71-9.5c-14.68,4.6-24.77-8.73-18.4-18.87-7-3.23-16.07-5.28-27.91-5.61,0,0,4-44-31-43s-53-3-69,24c-8,14-7,12-18,19s-26,24-25,42c.49,8.73,4.75,12.76,9,14.58,8.62-32.3,42-32.43,50.92,1.39l76.26,0c8.86-30.77,41.61-33.47,47.88-.36C1651.21,1508.28,1651.63,1501.06,1649,1486.21Zm-105.53-60.46c-2.19,8.79-2,19-2,25s-4,6-14,5-21,0-19-6,7-21,16-27S1545.48,1417.75,1543.48,1425.75Zm38,30c-10,1-24,0-28,0s-4-20-4-28,1-9,14-9c16,0,19,10,22,19S1591.49,1454.73,1581.49,1455.74Z"/><path class="cls-2" d="M1507,1507.27c-1-9-7-17-17-17-13,0-19,11-19,21s7,16,19,15S1508,1516.27,1507,1507.27Zm-19.11,9c-4.28.36-6.78-1.79-6.78-5.36s2.13-7.5,6.78-7.5c3.57,0,5.71,2.86,6.07,6.07S1492.2,1515.88,1487.91,1516.24Z"/><path class="cls-2" d="M1635,1508.27c-1-8.5-6.62-16-16.06-16-12.28,0-18,10.4-17.94,19.84s6.62,15.12,18,14.17S1636,1516.77,1635,1508.27Zm-18,8.47c-4,.34-6.41-1.68-6.41-5s2-7.09,6.4-7.09c3.37,0,5.4,2.7,5.74,5.73S1621,1516.41,1617,1516.74Z"/><path class="cls-3" d="M1646.3,1476.71c-14.68,4.6-24.77-8.73-18.4-18.87C1637.61,1462.33,1643.18,1469.11,1646.3,1476.71Z"/></g></g></svg>