<svg xmlns="http://www.w3.org/2000/svg" viewBox="0 0 287.02 255.45"><defs><style>.cls-1{fill:#acce22;}.cls-2{fill:#ed1c24;}.cls-3{fill:#f0c723;}.cls-4{fill:#4d2401;}.cls-5{fill:#4c7d2f;}.cls-6{fill:#c5d8f8;}.cls-7{fill:#7fc9cc;}.cls-8{fill:#e57009;}.cls-9{fill:#994801;}.cls-10{fill:#f5c69d;}.cls-11{fill:#e8effc;}.cls-12{fill:#16acb2;}.cls-13{fill:#aaa;}.cls-14{fill:#2b2b2b;}.cls-15{fill:#6ea2f8;}.cls-16{fill:#9bbefe;}.cls-17{fill:#73a7fd;}.cls-18{fill:#f5c817;}.cls-19{fill:none;stroke:#f5c817;stroke-miterlimit:10;stroke-width:0.25px;}.cls-20{fill:#7dbb39;}.cls-21{fill:#e96f2c;}.cls-22{fill:#25610a;}.cls-23{fill:#2e4c4c;}.cls-24{fill:#fff;}.cls-25{fill:#395e23;}.cls-26{fill:#ed8219;}.cls-27{fill:#822c04;}.cls-28{fill:#310c08;}</style></defs><g id="Layer_2" data-name="Layer 2"><g id="Layer_1-2" data-name="Layer 1"><path class="cls-1" d="M76.19,200.61c-3.84,2.3-4.67-1.43-2.47-2.3-3.85-1.72-2.75-4-1.92-5.17-7.14-.86-3-5.46-.83-5.46-6.31-2.87-2.47-8.05.28-6-1.92-3.74-.28-4.89,1.37-4.32,0-3.44,2.74-3.73,3.57-.57Z"/><path class="cls-1" d="M271.13,185.6c-3.84,2.3-4.67-1.44-2.47-2.3-3.84-1.73-2.74-4-1.92-5.18-7.14-.86-3-5.46-.82-5.46-6.32-2.87-2.47-8,.27-6-1.92-3.74-.27-4.89,1.37-4.31,0-3.45,2.75-3.74,3.57-.58Z"/><rect x="95.61" y="17.16" width="7.35" height="18.06" rx="3.21"/><ellipse class="cls-2" cx="99.28" cy="21.43" rx="1.8" ry="1.88"/><ellipse class="cls-1" cx="99.28" cy="26.19" rx="1.8" ry="1.88"/><ellipse class="cls-3" cx="99.28" cy="30.96" rx="1.8" ry="1.88"/><rect x="98.35" y="34.62" width="1.92" height="11.12"/><rect x="244.75" y="178.31" width="7.35" height="18.06" rx="3.21"/><ellipse class="cls-2" cx="248.42" cy="182.58" rx="1.8" ry="1.88"/><ellipse class="cls-1" cx="248.42" cy="187.34" rx="1.8" ry="1.88"/><ellipse class="cls-3" cx="248.42" cy="192.11" rx="1.8" ry="1.88"/><rect x="247.48" y="195.77" width="1.92" height="11.12"/><polygon class="cls-4" points="27.69 88.5 26.64 116.42 29.26 116.42 27.69 88.5"/><path class="cls-5" d="M27.82,102.87C18.15,102.33,17.64,85,26.05,81.2c8.89-4.06,12.75,4.7,9.88,9.08C44,92.47,37.76,103.42,27.82,102.87Z"/><polygon class="cls-4" points="51.44 90.12 50.4 118.04 53.01 118.04 51.44 90.12"/><path class="cls-5" d="M51.57,104.49c-9.67-.55-10.18-17.84-1.77-21.68,8.89-4.06,12.75,4.71,9.88,9.09C67.78,94.09,61.51,105,51.57,104.49Z"/><polygon class="cls-4" points="86.61 95.93 85.56 123.85 88.17 123.85 86.61 95.93"/><path class="cls-5" d="M86.74,110.3c-9.68-.55-10.18-17.84-1.77-21.68,8.88-4.05,12.75,4.71,9.87,9.09C102.94,99.9,96.67,110.85,86.74,110.3Z"/><polygon class="cls-4" points="23.06 155.68 22.02 183.59 24.63 183.59 23.06 155.68"/><path class="cls-5" d="M23.19,170.05c-9.67-.55-10.18-17.84-1.76-21.68,8.88-4.06,12.74,4.71,9.87,9.09C39.4,159.65,33.13,170.59,23.19,170.05Z"/><polygon class="cls-4" points="46.81 157.29 45.77 185.21 48.38 185.21 46.81 157.29"/><path class="cls-1" d="M47,171.66c-9.68-.55-10.19-17.84-1.77-21.68,8.88-4,12.75,4.71,9.87,9.09C63.15,161.26,56.88,172.21,47,171.66Z"/><path class="cls-6" d="M41.53,31.73l1.93.15c0-.31.1-.6.15-.9.1-.65.17-1.28.23-1.89a31,31,0,0,0-.12-6.92,18.32,18.32,0,0,1-2,.2l-.12,5,0,2Z"/><path class="cls-6" d="M31.57,31.61c2.07,0,4.17,0,5.93,0l1.87,0c0-.38.08-.89.12-1.46s.1-1.52.14-2.38c0-.65,0-1.33.07-2,0-1.18,0-2.35-.05-3.38-1.4,0-2.78,0-3.71,0h-.46l-2.58,0h-.8L32,24.25l-.17,2.89Z"/><path class="cls-6" d="M22.2,31.63s2.86,0,6.4,0h.81c0-.38.06-.83.1-1.34.11-1.35.23-3.08.29-4.74,0-1.06.06-2.09.05-3v-.07H22.54s-.08.88-.17,2.14c0,.59-.08,1.26-.12,2A48.25,48.25,0,0,0,22.2,31.63Z"/><path class="cls-7" d="M42.37,18.07l-.12,0c-.26-.09-.55-.18-.86-.26-3.6-.86-10.34-.67-14.91-.54a9.71,9.71,0,0,0-3.82.66,3.71,3.71,0,0,0-1.79,1.73,6.61,6.61,0,0,0-.38.89,17.63,17.63,0,0,0-.56,1.93,29.15,29.15,0,0,0-.53,3.31c0,.21-.06.44-.08.66-.1.92-.21,1.91-.3,2.94,0,.39-.08.79-.11,1.19s-.07.76-.1,1.14h0l1,0H21l.59,0h.66q0-.24,0-.51c0-.18,0-.37,0-.56s0-.39,0-.59,0-.41,0-.61v-.25c0-.82.05-1.67.09-2.48v0h0c0-.09,0-.17,0-.26s0-.19,0-.29l0-.29c0-.1,0-.2,0-.29l0-.52,0-.24V24.6l0-.38a.25.25,0,0,1,0-.08c0-.07,0-.14,0-.21s0-.2,0-.3,0-.27,0-.39a2.88,2.88,0,0,1,0-.32v-.1s0-.06,0-.08,0-.07,0-.1v-.08a.82.82,0,0,0,0-.1h7.31v.06c0,.26,0,.54,0,.82V24c0,.1,0,.2,0,.29v0c0,.4,0,.8,0,1.21l0,.63c0,.4,0,.81-.06,1.21v.08c0,.19,0,.38,0,.56h0l0,.52c0,.23,0,.45-.05.67s0,.37,0,.54,0,.36,0,.53c0,.51-.07,1-.11,1.34h2.17l.07-1.19.06-1,.13-2.28,0-.53.07-1.19L32,24.25l.09-1.56v-.21h7.55c0,.29,0,.59,0,.91v.33c0,.15,0,.3,0,.45v.94c0,.24,0,.49,0,.74s0,.29,0,.44v.35l0,.7c0,.17,0,.35,0,.52l0,.36,0,.32c0,.3,0,.59-.05.86l0,.33,0,.46v0c0,.18,0,.36,0,.52s0,.57-.07.8v.14h.07l1.14,0h0l.93,0h0l0-1.25,0-1.1h0l0-2,0-.75,0-1.17.06-2.73v-.33l.55,0h0c.52,0,1-.09,1.38-.16a3.86,3.86,0,0,0,.81-.22.72.72,0,0,0,.34-.25c0-.06.07-.12.1-.19C45.41,20.6,45.31,19.15,42.37,18.07Z"/><path class="cls-8" d="M41.23,18.18a.58.58,0,1,0,1.15,0,.45.45,0,0,0,0-.11l-.12,0a6.25,6.25,0,0,0-.86-.25A.58.58,0,0,0,41.23,18.18Z"/><ellipse class="cls-8" cx="38.53" cy="18.18" rx="0.57" ry="0.6"/><ellipse class="cls-8" cx="35.26" cy="18.18" rx="0.57" ry="0.6"/><ellipse class="cls-8" cx="31.98" cy="18.18" rx="0.57" ry="0.6"/><ellipse class="cls-8" cx="28.71" cy="18.18" rx="0.57" ry="0.6"/><ellipse class="cls-8" cx="25.43" cy="18.18" rx="0.57" ry="0.6"/><path class="cls-8" d="M21.69,18.53a.56.56,0,0,0,.47.25.58.58,0,0,0,.57-.6.59.59,0,0,0-.07-.29A3.8,3.8,0,0,0,21.69,18.53Z"/><ellipse class="cls-8" cx="43.29" cy="19.92" rx="0.57" ry="0.6"/><ellipse class="cls-8" cx="40.02" cy="19.92" rx="0.57" ry="0.6"/><ellipse class="cls-8" cx="36.75" cy="19.92" rx="0.57" ry="0.6"/><ellipse class="cls-8" cx="33.47" cy="19.92" rx="0.57" ry="0.6"/><ellipse class="cls-8" cx="30.2" cy="19.92" rx="0.57" ry="0.6"/><ellipse class="cls-8" cx="26.92" cy="19.92" rx="0.57" ry="0.6"/><ellipse class="cls-8" cx="23.65" cy="19.92" rx="0.57" ry="0.6"/><path class="cls-8" d="M20.48,20.51a.59.59,0,0,0,.47-.59.61.61,0,0,0-.08-.3A8.2,8.2,0,0,0,20.48,20.51Z"/><path class="cls-8" d="M44.53,22a.72.72,0,0,0,.34-.25,1.14,1.14,0,0,0,.1-.19A.58.58,0,0,0,44.53,22Z"/><path class="cls-8" d="M41.23,22.1a.6.6,0,0,0,.51.6v-.33l.59,0a.58.58,0,1,0-1.11-.23Z"/><path class="cls-8" d="M38,22.1a.68.68,0,0,0,.1.35H39a.62.62,0,0,0,.1-.34.59.59,0,0,0-.58-.6A.58.58,0,0,0,38,22.1Z"/><path class="cls-8" d="M34.68,22.1a.65.65,0,0,0,.12.37h.92a.61.61,0,0,0,.11-.36.58.58,0,1,0-1.15,0Z"/><path class="cls-8" d="M31.41,22.1a.59.59,0,0,0,.57.6h.11v-.21h.33a.65.65,0,0,0,.13-.38.58.58,0,1,0-1.15,0Z"/><path class="cls-8" d="M28.13,22.1a.59.59,0,0,0,.13.37h.9a.64.64,0,0,0,.12-.38.58.58,0,0,0-.57-.6A.59.59,0,0,0,28.13,22.1Z"/><path class="cls-8" d="M24.86,22.1a.59.59,0,0,0,.12.37h.91A.65.65,0,0,0,26,22.1a.58.58,0,1,0-1.15,0Z"/><path class="cls-8" d="M21.59,22.1a.58.58,0,0,0,.57.6.55.55,0,0,0,.37-.14v-.1h.08a.61.61,0,0,0,.11-.36.57.57,0,1,0-1.14,0Z"/><path class="cls-8" d="M39.69,23.35c0,.32,0,.65,0,1a.57.57,0,0,0,.31.1.6.6,0,0,0,0-1.2A.55.55,0,0,0,39.69,23.35Z"/><path class="cls-8" d="M29.84,24.31a.57.57,0,0,0,.36.13.6.6,0,0,0,0-1.2.55.55,0,0,0-.35.12C29.85,23.66,29.85,24,29.84,24.31Z"/><ellipse class="cls-8" cx="20.37" cy="23.84" rx="0.57" ry="0.6"/><path class="cls-8" d="M41.23,26a.6.6,0,0,0,.42.58l0-1.17A.6.6,0,0,0,41.23,26Z"/><path class="cls-8" d="M31.41,26a.59.59,0,0,0,.45.59l.07-1.19A.6.6,0,0,0,31.41,26Z"/><path class="cls-8" d="M21.59,26a.58.58,0,0,0,.57.6h.09c0-.4,0-.79.07-1.17l-.16,0A.58.58,0,0,0,21.59,26Z"/><path class="cls-8" d="M19.32,26.41a.58.58,0,0,0,.14-.39.6.6,0,0,0-.06-.27C19.37,26,19.35,26.19,19.32,26.41Z"/><path class="cls-8" d="M39.61,28.18h0a.56.56,0,0,0,.41.18.58.58,0,0,0,.57-.6.58.58,0,0,0-.57-.6.55.55,0,0,0-.37.14C39.64,27.59,39.62,27.89,39.61,28.18Z"/><path class="cls-8" d="M29.67,28a.58.58,0,0,0,.53.36.59.59,0,0,0,.57-.6.58.58,0,0,0-.57-.6.56.56,0,0,0-.49.28h0C29.7,27.63,29.68,27.82,29.67,28Z"/><ellipse class="cls-8" cx="20.37" cy="27.76" rx="0.57" ry="0.6"/><path class="cls-8" d="M41.23,29.94a.6.6,0,0,0,.33.54l0-1.1A.61.61,0,0,0,41.23,29.94Z"/><path class="cls-8" d="M31.41,29.94a.6.6,0,0,0,.23.48l.06-1A.6.6,0,0,0,31.41,29.94Z"/><path class="cls-8" d="M21.59,29.94a.58.58,0,0,0,.57.6c0-.38,0-.79,0-1.2A.58.58,0,0,0,21.59,29.94Z"/><path class="cls-8" d="M18.91,30.54a.59.59,0,0,0,.55-.6.61.61,0,0,0-.44-.59C19,29.74,18.94,30.14,18.91,30.54Z"/><path class="cls-8" d="M39.45,31.66l1.14,0v0a.57.57,0,1,0-1.14,0Z"/><path class="cls-8" d="M29.63,31.61h1.14a.59.59,0,0,0-.57-.54A.58.58,0,0,0,29.63,31.61Z"/><path class="cls-8" d="M19.8,31.66l1.15,0a.58.58,0,1,0-1.15,0Z"/><path class="cls-9" d="M18.1,41.45h.72l1.4,0,1.32,0,1.41,0,1.31,0,1.41,0,1.32,0,1.4,0,1.32,0,1.4,0,1.32,0,1.4,0,1.32,0,1.4,0,1.32,0,1.41,0,1.31,0,1.41,0,1.32,0,1.4,0,1.32,0,1.4,0,1.32,0,1.4,0,1.32,0,1.11,0s-.15-7.81-.66-8.57a1,1,0,0,0-.45-.27,8.3,8.3,0,0,0-1.32-.37c-.42-.09-.89-.18-1.4-.26l-1.32-.19c-.46-.07-.93-.13-1.4-.18L44.72,32l-1.26-.12-.14,0L42,31.76l-.45,0h0l-.94,0-1.22-.05h-.09l-1.41,0H22.2v0h-.66l-1.32,0-1.4,0h0C18.39,36.58,18.1,41.45,18.1,41.45Z"/><path class="cls-10" d="M50.16,32.77v9.17l1.32,0V33.14A8.3,8.3,0,0,0,50.16,32.77Z"/><path class="cls-10" d="M47.44,32.32V41.9l1.32,0V32.51Z"/><path class="cls-10" d="M44.72,32v9.86l1.32,0V32.14Z"/><path class="cls-10" d="M42,31.76V41.82l1.32,0v-10Z"/><path class="cls-10" d="M39.28,31.66V41.78l1.31,0V31.7l-1.22-.05h-.09Z"/><path class="cls-10" d="M36.55,31.63v10.1l1.32,0V31.64Z"/><path class="cls-10" d="M33.83,31.61V41.69l1.32,0V31.62Z"/><path class="cls-10" d="M31.11,31.61v10l1.32,0V31.61H31.11Z"/><path class="cls-10" d="M28.39,31.61v10l1.32,0v-10H28.39Z"/><path class="cls-10" d="M25.67,31.62v9.94l1.32,0v-10Z"/><path class="cls-10" d="M23,31.63v9.89l1.31,0V31.62Z"/><polygon class="cls-10" points="20.23 31.65 20.23 41.48 21.54 41.5 21.54 31.62 20.23 31.65"/><path class="cls-10" d="M18.1,41.45h.72V31.69h0C18.39,36.58,18.1,41.45,18.1,41.45Z"/><path class="cls-11" d="M41.63,27.35l0,2,2,1.6c.1-.65.17-1.28.23-1.89Z"/><path class="cls-11" d="M32.9,22.48l6.73,5.34c0-.65,0-1.33.07-2l-4.22-3.35Z"/><path class="cls-11" d="M22.25,26.57l6.35,5h.81c0-.38.06-.83.1-1.34L22.37,24.6C22.33,25.19,22.29,25.86,22.25,26.57Z"/><path class="cls-11" d="M32,24.25l-.17,2.89,5.67,4.5,1.87,0c0-.38.08-.89.12-1.46Z"/><path class="cls-11" d="M26,22.47l3.85,3.06c0-1.06.06-2.09.05-3l-.09-.07Z"/><path class="cls-4" d="M49.33,43.83V41.25s4.21-.63,4.34,1.11S49.33,43.83,49.33,43.83Z"/><path class="cls-4" d="M14.7,41.27a7.73,7.73,0,0,0,1.12.15v-.33a7.56,7.56,0,0,1,.55-2.87c-.76-.08-2.22-.14-2.31.65C13.93,39.93,13.85,41.09,14.7,41.27Z"/><ellipse cx="43.32" cy="40.76" rx="4.61" ry="4.61"/><ellipse cx="22.27" cy="40.76" rx="4.61" ry="4.61"/><path class="cls-12" d="M28.39,39.79A7.35,7.35,0,0,0,27,36.55a6.76,6.76,0,0,0-1.32-1.3,6.19,6.19,0,0,0-1.4-.77A6.13,6.13,0,0,0,23,34.13a6.84,6.84,0,0,0-.79-.05c-.21,0-.41,0-.62,0a5.84,5.84,0,0,0-2.72,1l-.3.22a6.9,6.9,0,0,0-2.15,2.87,7.56,7.56,0,0,0-.55,2.87v.33a7.56,7.56,0,0,0,.2,1.45,4.92,4.92,0,0,0,2.12,0l.18,0A4.92,4.92,0,0,1,18,41.09a5.11,5.11,0,0,1,.17-1.31h0a4.94,4.94,0,0,1,.62-1.36,4.29,4.29,0,0,1,1.4-1.35,3.88,3.88,0,0,1,1.32-.48,4.21,4.21,0,0,1,.62,0,4.15,4.15,0,0,1,.79.08,3.84,3.84,0,0,1,1.32.56,4.27,4.27,0,0,1,1.4,1.52,4.92,4.92,0,0,1,.61,2.4,3.77,3.77,0,0,1,0,.48,4.58,4.58,0,0,1-.3,1.29,2.42,2.42,0,0,0,.35.12,3.32,3.32,0,0,0,2,0,7.67,7.67,0,0,0,.21-1.37c0-.17,0-.34,0-.52A8,8,0,0,0,28.39,39.79Z"/><path class="cls-12" d="M48.76,37.7a6.74,6.74,0,0,0-1.32-1.83,6.18,6.18,0,0,0-1.4-1,5.82,5.82,0,0,0-1.32-.54,5.91,5.91,0,0,0-1.4-.2h-.11a5.41,5.41,0,0,0-1.21.13,5.68,5.68,0,0,0-1.4.49,5.88,5.88,0,0,0-1.32.89,6.76,6.76,0,0,0-1.41,1.72,7.56,7.56,0,0,0-1,3.78c0,.22,0,.44,0,.65a8.32,8.32,0,0,0,.18,1.13,4.92,4.92,0,0,0,2.12,0l.18,0a5.51,5.51,0,0,1-.24-1,5.06,5.06,0,0,1-.05-.68,4.8,4.8,0,0,1,.2-1.38,4.5,4.5,0,0,1,1.32-2.15,3.83,3.83,0,0,1,1.4-.83,3.74,3.74,0,0,1,1.21-.2h.11a3.54,3.54,0,0,1,1.4.32,4,4,0,0,1,1.32.92,4.81,4.81,0,0,1,1.29,3.32,5.32,5.32,0,0,1-.06.81,4.54,4.54,0,0,1-.26,1l.34.12a3.35,3.35,0,0,0,2,0v-.07a6.27,6.27,0,0,0,.17-1c0-.23,0-.47,0-.71v-.13A7.62,7.62,0,0,0,48.76,37.7Z"/><ellipse class="cls-13" cx="43.36" cy="40.76" rx="2.86" ry="2.72"/><ellipse class="cls-13" cx="22.31" cy="40.76" rx="2.86" ry="2.72"/><ellipse class="cls-14" cx="43.36" cy="40.76" rx="1.59" ry="1.51"/><ellipse class="cls-14" cx="22.31" cy="40.76" rx="1.59" ry="1.51"/><path d="M31.81,33.2h2a.32.32,0,0,0,.32-.33.32.32,0,0,0-.32-.33h-2a.32.32,0,0,0-.32.33A.33.33,0,0,0,31.81,33.2Z"/><path d="M22.29,33.21h2a.34.34,0,0,0,0-.67h-2a.34.34,0,0,0,0,.67Z"/><path class="cls-6" d="M203.94,193.37c-.57,0-1.23.08-1.92.14q-.09-.45-.15-.9c-.1-.65-.18-1.28-.23-1.88a31.24,31.24,0,0,1,.11-6.93,16.26,16.26,0,0,0,2,.2l.11,5,0,2Z"/><path class="cls-6" d="M213.91,193.24c-2.07,0-4.17,0-5.93,0l-1.88,0c0-.39-.07-.89-.11-1.47s-.1-1.51-.14-2.38c0-.65-.06-1.33-.07-2,0-1.18,0-2.35.05-3.37,1.39,0,2.77,0,3.71,0h3.83l.11,1.78.16,2.88Z"/><path class="cls-6" d="M223.27,193.26l-6.39,0h-.81c0-.37-.07-.83-.11-1.34-.1-1.35-.22-3.07-.29-4.74,0-1.06-.06-2.09,0-3v-.07h7.3s.08.88.17,2.14c0,.59.09,1.27.12,2A45.49,45.49,0,0,1,223.27,193.26Z"/><path class="cls-7" d="M200.5,183.15l.11.19a.81.81,0,0,0,.34.25,4.54,4.54,0,0,0,.8.21c.4.07.87.13,1.39.17h0l.55,0v.33l.07,2.74,0,1.16,0,.75,0,2h0l0,1.1,0,1.25h0l.93,0h0l1.15-.05h.07v-.14q0-.36-.06-.81c0-.16,0-.33,0-.51v0c0-.15,0-.31,0-.46l0-.33c0-.28,0-.57-.05-.86v-.33l0-.35c0-.18,0-.35,0-.53l0-.69v-.35c0-.15,0-.3,0-.45s0-.49,0-.74,0-.48,0-.72a1.55,1.55,0,0,1,0-.22c0-.15,0-.3,0-.45V185c0-.31,0-.62,0-.91h7.54l0,.22.09,1.56.07,1.17.06,1.18,0,.53.14,2.28.06,1,.07,1.19h2.16c0-.38-.07-.83-.11-1.34,0-.17,0-.34,0-.52s0-.36,0-.55,0-.44,0-.67,0-.34,0-.51h0l0-.56a.28.28,0,0,0,0-.09l-.06-1.2c0-.21,0-.42,0-.63,0-.41,0-.82,0-1.22h0c0-.1,0-.2,0-.29v-.18c0-.16,0-.31,0-.47s0-.55,0-.81v-.07h7.3a.45.45,0,0,1,0,.1.25.25,0,0,0,0,.08.38.38,0,0,0,0,.1.28.28,0,0,0,0,.09v.09l0,.32c0,.12,0,.26,0,.4s0,.19,0,.3a1.48,1.48,0,0,0,0,.21.25.25,0,0,0,0,.08c0,.12,0,.24,0,.38a.2.2,0,0,0,0,.07l0,.25c0,.17,0,.34,0,.52s0,.19,0,.28l0,.29c0,.1,0,.2,0,.3s0,.17,0,.26h0v0c.05.81.08,1.66.09,2.47,0,.08,0,.17,0,.25v1.2c0,.2,0,.38,0,.57s0,.34,0,.5l.66,0h.6l.72,0h.43l1,0h0c0-.38-.07-.77-.1-1.15s-.08-.79-.11-1.18c-.1-1-.2-2-.3-2.94,0-.23-.06-.45-.08-.67a32.09,32.09,0,0,0-.53-3.31c-.18-.73-.36-1.37-.56-1.93a6.61,6.61,0,0,0-.38-.89,4.27,4.27,0,0,0-.82-1.09,4,4,0,0,0-1-.64,10.08,10.08,0,0,0-3.81-.66c-4.58-.12-11.31-.32-14.91.55a8.26,8.26,0,0,0-.87.25l-.11,0C200.17,180.78,200.06,182.24,200.5,183.15Z"/><path class="cls-8" d="M204.24,179.82a.57.57,0,1,1-1.14,0,.49.49,0,0,1,0-.12l.11,0a9,9,0,0,1,.87-.25A.59.59,0,0,1,204.24,179.82Z"/><ellipse class="cls-8" cx="206.94" cy="179.82" rx="0.57" ry="0.6"/><ellipse class="cls-8" cx="210.22" cy="179.82" rx="0.57" ry="0.6"/><ellipse class="cls-8" cx="213.49" cy="179.82" rx="0.57" ry="0.6"/><ellipse class="cls-8" cx="216.77" cy="179.82" rx="0.57" ry="0.6"/><ellipse class="cls-8" cx="220.04" cy="179.82" rx="0.57" ry="0.6"/><path class="cls-8" d="M223.79,180.16a.57.57,0,0,1-.47.26.59.59,0,0,1-.58-.6.65.65,0,0,1,.07-.29A3.75,3.75,0,0,1,223.79,180.16Z"/><ellipse class="cls-8" cx="202.18" cy="181.55" rx="0.57" ry="0.6"/><ellipse class="cls-8" cx="205.46" cy="181.55" rx="0.57" ry="0.6"/><ellipse class="cls-8" cx="208.73" cy="181.55" rx="0.57" ry="0.6"/><ellipse class="cls-8" cx="212" cy="181.55" rx="0.57" ry="0.6"/><ellipse class="cls-8" cx="215.28" cy="181.55" rx="0.57" ry="0.6"/><ellipse class="cls-8" cx="218.55" cy="181.55" rx="0.57" ry="0.6"/><ellipse class="cls-8" cx="221.83" cy="181.55" rx="0.57" ry="0.6"/><path class="cls-8" d="M225,182.14a.59.59,0,0,1-.46-.59.61.61,0,0,1,.08-.3A6.61,6.61,0,0,1,225,182.14Z"/><path class="cls-8" d="M201,183.58a.72.72,0,0,1-.34-.24l-.11-.19A.58.58,0,0,1,201,183.58Z"/><path class="cls-8" d="M204.24,183.74a.58.58,0,0,1-.51.59V184l-.59,0a.54.54,0,0,1,0-.22.57.57,0,1,1,1.14,0Z"/><path class="cls-8" d="M207.52,183.74a.6.6,0,0,1-.11.34h-.94a.67.67,0,0,1-.1-.34.58.58,0,1,1,1.15,0Z"/><path class="cls-8" d="M210.79,183.74a.56.56,0,0,1-.12.36h-.91a.65.65,0,0,1-.12-.36.59.59,0,0,1,.58-.6A.58.58,0,0,1,210.79,183.74Z"/><path class="cls-8" d="M214.07,183.74a.59.59,0,0,1-.58.6h-.1l0-.22H213a.65.65,0,0,1-.12-.37.58.58,0,1,1,1.15,0Z"/><path class="cls-8" d="M217.34,183.74a.65.65,0,0,1-.12.37h-.9a.59.59,0,0,1-.13-.37.58.58,0,1,1,1.15,0Z"/><path class="cls-8" d="M220.62,183.74a.65.65,0,0,1-.12.36h-.91a.6.6,0,0,1,.45-1A.59.59,0,0,1,220.62,183.74Z"/><path class="cls-8" d="M223.89,183.74a.59.59,0,0,1-.57.6.56.56,0,0,1-.38-.15v-.1h-.08a.61.61,0,0,1-.11-.35.58.58,0,1,1,1.15,0Z"/><path class="cls-8" d="M205.78,185c0,.32,0,.66,0,1a.56.56,0,0,1-.31.09.6.6,0,0,1,0-1.2A.52.52,0,0,1,205.78,185Z"/><path class="cls-8" d="M215.64,185.94a.59.59,0,1,1-.36-1.07.56.56,0,0,1,.34.12C215.62,185.3,215.63,185.62,215.64,185.94Z"/><ellipse class="cls-8" cx="225.1" cy="185.47" rx="0.57" ry="0.6"/><path class="cls-8" d="M204.24,187.65a.59.59,0,0,1-.42.58l0-1.16A.59.59,0,0,1,204.24,187.65Z"/><path class="cls-8" d="M214.07,187.65a.6.6,0,0,1-.46.59l-.06-1.18A.58.58,0,0,1,214.07,187.65Z"/><path class="cls-8" d="M223.89,187.65a.59.59,0,0,1-.57.61h-.09c0-.41,0-.8-.07-1.17a.41.41,0,0,1,.16,0A.59.59,0,0,1,223.89,187.65Z"/><path class="cls-8" d="M226.16,188.05a.64.64,0,0,1-.08-.67C226.1,187.6,226.13,187.82,226.16,188.05Z"/><path class="cls-8" d="M205.87,189.81h0a.58.58,0,0,1-.41.18.6.6,0,0,1,0-1.2.55.55,0,0,1,.37.14C205.84,189.23,205.85,189.52,205.87,189.81Z"/><path class="cls-8" d="M215.8,189.64a.57.57,0,0,1-.52.35.6.6,0,0,1,0-1.2.55.55,0,0,1,.49.29h0Z"/><ellipse class="cls-8" cx="225.1" cy="189.39" rx="0.57" ry="0.6"/><path class="cls-8" d="M204.24,191.57a.61.61,0,0,1-.33.55l0-1.1A.59.59,0,0,1,204.24,191.57Z"/><path class="cls-8" d="M214.07,191.57a.6.6,0,0,1-.23.48l-.06-1A.61.61,0,0,1,214.07,191.57Z"/><path class="cls-8" d="M223.89,191.57a.59.59,0,0,1-.57.6V191A.59.59,0,0,1,223.89,191.57Z"/><path class="cls-8" d="M226.57,192.17a.6.6,0,0,1-.11-1.18C226.5,191.38,226.53,191.77,226.57,192.17Z"/><path class="cls-8" d="M206,193.29l-1.15.05v0a.59.59,0,0,1,.58-.6A.59.59,0,0,1,206,193.29Z"/><path class="cls-8" d="M215.85,193.24h-1.14a.58.58,0,0,1,.57-.53A.58.58,0,0,1,215.85,193.24Z"/><path class="cls-8" d="M225.68,193.3l-1.15,0a.58.58,0,0,1,1.15,0Z"/><path class="cls-9" d="M227.38,203.08h-.73l-1.4,0-1.32,0-1.4,0-1.32,0-1.4,0-1.32,0-1.4,0-1.32,0-1.41,0-1.31,0-1.41,0-1.32,0-1.4,0-1.32,0-1.4,0-1.32,0-1.4,0-1.32,0-1.4,0-1.32,0-1.41,0-1.31,0-1.41,0-1.32,0-1.1,0s.15-7.82.66-8.57a.89.89,0,0,1,.44-.28,8.78,8.78,0,0,1,1.32-.36c.42-.09.9-.18,1.41-.26L198,194l1.41-.18,1.32-.14,1.26-.12h.14l1.32-.1.45,0h0l.93,0,1.22-.05h.1l1.4,0h15.67v0l.66,0,1.32,0,1.4,0h0C227.08,198.22,227.38,203.08,227.38,203.08Z"/><path class="cls-10" d="M195.31,194.41v9.17l-1.32,0v-8.83A8.78,8.78,0,0,1,195.31,194.41Z"/><path class="cls-10" d="M198,194v9.59l-1.31,0v-9.41Z"/><path class="cls-10" d="M200.76,193.63v9.86l-1.32,0v-9.74Z"/><path class="cls-10" d="M203.48,193.4v10l-1.32,0v-10Z"/><path class="cls-10" d="M206.2,193.29v10.12l-1.32,0V193.34l1.22-.05h.1Z"/><path class="cls-10" d="M208.92,193.26v10.11l-1.32,0V193.27Z"/><path class="cls-10" d="M211.64,193.25v10.08l-1.32,0v-10.1Z"/><path class="cls-10" d="M214.36,193.24v10l-1.31,0V193.24h1.31Z"/><path class="cls-10" d="M217.09,193.24v10l-1.32,0v-10h1.32Z"/><path class="cls-10" d="M219.81,193.25v9.95l-1.32,0v-10Z"/><path class="cls-10" d="M222.53,193.26v9.9l-1.32,0v-9.93Z"/><polygon class="cls-10" points="225.25 193.29 225.25 203.12 223.93 203.13 223.93 193.26 225.25 193.29"/><path class="cls-10" d="M227.38,203.08h-.73v-9.77h0C227.08,198.22,227.38,203.08,227.38,203.08Z"/><path class="cls-11" d="M203.84,189l0,2-2,1.6c-.1-.65-.18-1.28-.23-1.88Z"/><path class="cls-11" d="M212.58,184.11l-6.73,5.34c0-.65-.06-1.33-.07-2L210,184.1Z"/><path class="cls-11" d="M223.22,188.21l-6.34,5h-.81c0-.37-.07-.83-.11-1.34l7.14-5.67C223.14,186.82,223.19,187.5,223.22,188.21Z"/><path class="cls-11" d="M213.48,185.89l.16,2.88-5.66,4.5-1.88,0c0-.39-.07-.89-.11-1.47Z"/><path class="cls-11" d="M219.52,184.1l-3.85,3.06c0-1.06-.06-2.09,0-3l.08-.07Z"/><path class="cls-4" d="M196.14,205.46v-2.58s-4.21-.62-4.34,1.11S196.14,205.46,196.14,205.46Z"/><path class="cls-4" d="M230.78,202.9a9.82,9.82,0,0,1-1.13.16c0-.11,0-.22,0-.33a7.68,7.68,0,0,0-.55-2.87c.76-.09,2.21-.15,2.31.64C231.54,201.57,231.63,202.73,230.78,202.9Z"/><ellipse cx="202.16" cy="202.39" rx="4.61" ry="4.61"/><ellipse cx="223.21" cy="202.39" rx="4.61" ry="4.61"/><path class="cls-12" d="M217,202.73c0,.17,0,.34,0,.51a7.94,7.94,0,0,0,.22,1.38,3.4,3.4,0,0,0,2,0l.34-.13a4.88,4.88,0,0,1-.3-1.28c0-.16,0-.32,0-.48a4.93,4.93,0,0,1,.62-2.41,4.45,4.45,0,0,1,1.4-1.52,3.94,3.94,0,0,1,1.32-.55,3.42,3.42,0,0,1,.79-.09,4.07,4.07,0,0,1,.61.05,3.94,3.94,0,0,1,1.32.48,4.2,4.2,0,0,1,1.4,1.35,4.37,4.37,0,0,1,.62,1.37h0a4.78,4.78,0,0,1,.18,1.32,4.91,4.91,0,0,1-.3,1.68l.18.05a4.77,4.77,0,0,0,2.12,0,7.46,7.46,0,0,0,.2-1.44c0-.11,0-.22,0-.33a7.49,7.49,0,0,0-.56-2.87A6.89,6.89,0,0,0,227,197l-.31-.22a5.59,5.59,0,0,0-1.4-.71,5.76,5.76,0,0,0-1.32-.3c-.2,0-.41,0-.61,0a5.16,5.16,0,0,0-.79.06,5.8,5.8,0,0,0-2.72,1.12,6.45,6.45,0,0,0-1.32,1.29,7.24,7.24,0,0,0-1.4,3.24A7.09,7.09,0,0,0,217,202.73Z"/><path class="cls-12" d="M195.93,202.73v.12c0,.25,0,.48,0,.72a7.55,7.55,0,0,0,.17,1l0,.08a3.4,3.4,0,0,0,2,0l.34-.13a5.37,5.37,0,0,1-.32-1.76,4.78,4.78,0,0,1,1.3-3.33,4.14,4.14,0,0,1,1.32-.92,3.67,3.67,0,0,1,1.4-.31h.11a3.74,3.74,0,0,1,1.21.2,3.94,3.94,0,0,1,1.4.84,4.63,4.63,0,0,1,1.32,2.14,4.86,4.86,0,0,1,.19,1.39,5.17,5.17,0,0,1,0,.68,4.72,4.72,0,0,1-.25,1l.18.05a4.78,4.78,0,0,0,2.12,0,6.83,6.83,0,0,0,.18-1.13c0-.21,0-.43,0-.64a7.47,7.47,0,0,0-1-3.79,6.5,6.5,0,0,0-2.72-2.61,5.89,5.89,0,0,0-2.61-.62h-.11a5.43,5.43,0,0,0-1.4.19,6.1,6.1,0,0,0-1.32.54,6.51,6.51,0,0,0-1.41,1.06,6.93,6.93,0,0,0-1.31,1.83A7.46,7.46,0,0,0,195.93,202.73Z"/><ellipse class="cls-13" cx="202.12" cy="202.39" rx="2.86" ry="2.72"/><ellipse class="cls-13" cx="223.17" cy="202.39" rx="2.86" ry="2.72"/><ellipse class="cls-14" cx="202.12" cy="202.39" rx="1.59" ry="1.51"/><ellipse class="cls-14" cx="223.17" cy="202.39" rx="1.59" ry="1.51"/><path d="M213.66,194.84h-2a.34.34,0,0,1,0-.67h2a.34.34,0,0,1,0,.67Z"/><path d="M223.19,194.84h-2a.32.32,0,0,1-.32-.33.32.32,0,0,1,.32-.33h2a.33.33,0,0,1,.32.33A.32.32,0,0,1,223.19,194.84Z"/><path class="cls-15" d="M255.54,18.9a72.88,72.88,0,0,1,10.54,1.29v-.07a5.43,5.43,0,0,0-5.34-5.51A5.37,5.37,0,0,0,255.54,18.9Z"/><path class="cls-15" d="M233.14,19a5.84,5.84,0,0,0,.05.73c4-.46,7.21-.7,10.63-.82a5.34,5.34,0,1,0-10.68.09Z"/><path class="cls-16" d="M271.27,13.93c-.51-.29-2.51-1-4.66-1.84a10.28,10.28,0,0,0-1.86,4.4l0,0s0,0,0,0l.07.08.13.18a.66.66,0,0,1,.12.17l.06.08a3.79,3.79,0,0,1,.2.34,2.44,2.44,0,0,1,.14.28.47.47,0,0,1,.05.1,1.17,1.17,0,0,0,.05.11h0a1.67,1.67,0,0,1,.08.2s0,0,0,0,0,.1,0,.15v0a.31.31,0,0,1,0,.08.49.49,0,0,1,0,.11v0a1.05,1.05,0,0,0,.05.19v0a2,2,0,0,1,0,.24v0c0,.09,0,.18,0,.28l0,.23v0c0,.09,0,.17,0,.26s0,.19,0,.28v.07c0,.16,0,.32,0,.48,1.32.27,2.41.53,3.21.73s1.42.38,1.42.38.26-1,.61-2.34c.17-.68.36-1.47.54-2.28C272.39,14.71,272.5,14.63,271.27,13.93Zm-39.16-1.21c-1.94.59-3.45,1.17-3.35,2.26.05.52.23,1.56.42,2.58v0c.25,1.32.51,2.59.51,2.59l3.53-.24c0-.07,0-.12,0-.18a6,6,0,0,1-.05-.74c0-.09,0-.18,0-.28h0c0-.08,0-.16,0-.24v0h0v-.07c0-.05,0-.11,0-.17v-.06c0-.07,0-.15,0-.22v0l0-.11v0c0-.06,0-.11,0-.17l.06-.22a1.87,1.87,0,0,0,.07-.22A11.73,11.73,0,0,0,232.11,12.72Zm28.26-2.86h0c-.16,0-1,.19-2.36.37V6.89c0-.57,0-1.11,0-1.58V4.08h1.23a.94.94,0,0,0,.43-.1c.34-.2.27-.65.27-1.3,0-.86,0-1.17-.44-1.32-4.16-1.59-10.87-1.44-15.4-1.2s-5.67,1.05-6,2.67-1.11,8.4-1.11,8.4l-2,.63a11.73,11.73,0,0,1,.8,2.43l.18-.1.13-.07.14-.07h0a3.52,3.52,0,0,1,.4-.18l.25-.09.51-.13.27-.05a2.3,2.3,0,0,1,.26,0h0l.28,0h.27a5.42,5.42,0,0,1,5.34,5.41V19c0,.12,0,.23,0,.34,2.38-.1,4.85-.18,7.25-.23,1.49,0,3,0,4.41.1a3.4,3.4,0,0,1,.07-.34,5.37,5.37,0,0,1,5.2-4.29H261l.28,0,.26,0h0l.24.05.23,0,.19.05a10.55,10.55,0,0,1,1.51-3.78Zm-13.51,1.05h-.12c-1.11,0-2.21.06-3.22.07h-4.45a.28.28,0,0,0,0-.08.28.28,0,0,1,0-.09c0-.06,0-.13,0-.22a.61.61,0,0,0,0-.14c0-.1,0-.21,0-.34a2,2,0,0,1,0-.23c0-.08,0-.17,0-.25.05-.62.1-1.37.16-2.09,0-.25,0-.5,0-.73l0-.35,0-.33c0-.07,0-.13,0-.2s0-.13,0-.2,0-.1,0-.15,0-.34,0-.46a.13.13,0,0,1,0-.06h0a.14.14,0,0,1,0-.06l0,0s0,0,0,0l0,0,0,0a2.32,2.32,0,0,1,1-.43l.18,0,.38-.06c.54-.09,1.18-.15,1.88-.2h.15l.24,0,.31,0h.32l.65,0h2.05Zm9.25-5.48,0,1.15,0,1.78,0,2.11h-.12c-.9.09-1.92.18-3,.23h0l-.74,0c-1.1.05-2.41.09-3.77.12l.09-3.7h0l.06-2.59v-.5h7.57Z"/><path class="cls-15" d="M232.11,12.72a11.73,11.73,0,0,1,1.34,4.46,5.55,5.55,0,0,1,2.33-2.9,11.73,11.73,0,0,0-.8-2.43l-2.25.69Z"/><path class="cls-17" d="M262.23,14.83a5.32,5.32,0,0,1,2.52,1.66,10.33,10.33,0,0,1,1.86-4.4c-1-.36-2-.72-2.87-1A10.55,10.55,0,0,0,262.23,14.83Z"/><path class="cls-6" d="M258,10.24c1.34-.19,2.2-.35,2.36-.38a8.12,8.12,0,0,0,0-1.11,14.77,14.77,0,0,0-.14-1.9A24.11,24.11,0,0,0,259.65,4a1.09,1.09,0,0,1-.43.1H258v1c0,.52,0,1.14,0,1.77Z"/><path class="cls-6" d="M248.4,10.87c1.36,0,2.67-.07,3.77-.12l.74,0h0c1.08-.05,2.1-.14,3-.23H256l0-2.12,0-1.77,0-1.15,0-1.37h-7.57v.51l-.06,2.58h0Z"/><path class="cls-6" d="M239.07,11.06l4.45-.08,3.22-.07h.12V4.09c-1.25,0-2.49,0-3.58.1-.76,0-1.45.12-2,.21-1,.15-1.65.39-1.73.74a.11.11,0,0,0,0,.05c0,.49-.12,1.44-.19,2.43C239.2,9.27,239.07,11.06,239.07,11.06Z"/><ellipse cx="260.74" cy="20.12" rx="4.36" ry="4.5"/><ellipse class="cls-13" cx="260.78" cy="20.12" rx="2.7" ry="2.65"/><ellipse class="cls-14" cx="260.78" cy="20.12" rx="1.51" ry="1.48"/><ellipse cx="238.48" cy="19.03" rx="4.36" ry="4.5"/><ellipse class="cls-13" cx="238.52" cy="19.03" rx="2.7" ry="2.65"/><ellipse class="cls-14" cx="238.52" cy="19.03" rx="1.51" ry="1.48"/><path d="M248.9,12.28h1.77a.29.29,0,0,0,0-.58H248.9a.29.29,0,0,0,0,.58Z"/><path d="M244.82,12.28h1.77a.29.29,0,0,0,0-.58h-1.77a.29.29,0,0,0,0,.58Z"/><path class="cls-12" d="M270.11,19.24c.33,0,2.11.23,2,.89s-.34,1.86-1,1.94-1.85-.29-1.89-.67A4.64,4.64,0,0,1,270.11,19.24Z"/><path class="cls-12" d="M229.18,17.56l.24,1.27,3.72-.45s.92,2.39.2,2.14c-.11,0-4.23.58-4.93.19A1.73,1.73,0,0,1,229.18,17.56Z"/><ellipse class="cls-18" cx="270.09" cy="17.18" rx="1.24" ry="0.61" transform="translate(203.56 279.51) rotate(-79.41)"/><path class="cls-11" d="M250.56,4.07l5.5,4.28,0-1.77-3.26-2.52h-2.27Z"/><path class="cls-11" d="M258,5.11c0,.52,0,1.14,0,1.77l2.4,1.87a14.77,14.77,0,0,0-.14-1.9Z"/><path class="cls-11" d="M254.35,4.06l1.76,1.37,0-1.37Z"/><path class="cls-11" d="M248.49,7.17h0l4.42,3.54h0c1.08-.05,2.1-.14,3-.23l-7.36-5.89Z"/><path class="cls-11" d="M241.26,4.4l5.6,4.36V7l-3.58-2.77C242.52,4.24,241.83,4.31,241.26,4.4Z"/><path class="cls-11" d="M239.33,7.62,243.52,11l3.22-.07-7.21-5.77a.11.11,0,0,0,0,.05C239.48,5.68,239.4,6.63,239.33,7.62Z"/><path class="cls-15" d="M120.51,142.1A72.7,72.7,0,0,0,110,143.39v-.07a5.32,5.32,0,0,1,10.54-1.22Z"/><path class="cls-15" d="M142.9,142.24a6,6,0,0,1,0,.73c-4-.47-7.21-.71-10.63-.82a5.34,5.34,0,1,1,10.67.09Z"/><path class="cls-16" d="M104.22,140.36c.18.81.37,1.6.54,2.28.34,1.38.61,2.34.61,2.34s.51-.15,1.42-.38,1.89-.46,3.21-.73c0-.15,0-.32,0-.48v-.07c0-.09,0-.18,0-.28s0-.17,0-.25v0l0-.24a2.56,2.56,0,0,1,0-.27v0l.06-.25h0a1.8,1.8,0,0,0,0-.19v0l0-.1,0-.08v0a.75.75,0,0,1,0-.16l0,0a1.8,1.8,0,0,1,.08-.21h0l0-.1a.54.54,0,0,1,0-.11l.14-.28.2-.34a.56.56,0,0,0,0-.08L111,140c0-.06.09-.12.14-.17l.06-.09,0,0s0,0,0,0a10.26,10.26,0,0,0-1.87-4.4c-2.14.79-4.14,1.56-4.66,1.85C103.55,137.84,103.66,137.91,104.22,140.36Zm38.37,0c0,.07,0,.14.08.22l.06.22,0,.16v0l0,.12v0c0,.07,0,.14,0,.22v0c0,.06,0,.12,0,.17v.07h0v0c0,.08,0,.16,0,.24v.3a5.85,5.85,0,0,1,0,.73l0,.18,3.53.24s.26-1.26.5-2.58v-.05c.19-1,.37-2,.42-2.57.1-1.09-1.42-1.67-3.35-2.27A12,12,0,0,0,142.59,140.39Zm-30.28-6.14a10.53,10.53,0,0,1,1.51,3.79L114,138l.23,0,.25-.05h0l.26,0,.27,0h.28a5.37,5.37,0,0,1,5.2,4.28c0,.11,0,.23.07.34,1.44-.09,2.92-.12,4.41-.1,2.4,0,4.87.13,7.25.24,0-.12,0-.23,0-.34v-.1a5.43,5.43,0,0,1,5.34-5.41h.27l.27,0h0l.26,0,.26.05.52.14.24.09a3,3,0,0,1,.41.17h0l.14.07.13.06.18.11a11.83,11.83,0,0,1,.8-2.44c-1.17-.36-2-.63-2-.63s-.78-6.76-1.11-8.39-1.49-2.45-6-2.68-11.24-.39-15.4,1.2c-.41.16-.44.47-.44,1.32,0,.66-.07,1.11.27,1.3a.94.94,0,0,0,.43.1c.26,0,.66,0,1.23,0v1.23c0,.48,0,1,0,1.58v3.35c-1.34-.18-2.21-.34-2.36-.37h0Zm16.87-7h2.06l.65,0,.32,0h.31l.24,0h.15a18,18,0,0,1,1.88.19l.38.07.18,0a2.46,2.46,0,0,1,1,.42l0,0,0,0s0,0,0,0l0,0s0,0,0,.05h0a.07.07,0,0,1,0,.05c0,.12,0,.28,0,.46s0,.11,0,.16,0,.13,0,.19,0,.14,0,.21l0,.33c0,.11,0,.22,0,.34l.06.74c.05.72.11,1.47.16,2.08,0,.09,0,.17,0,.25a2.12,2.12,0,0,1,0,.24c0,.12,0,.23,0,.33s0,.1,0,.14,0,.16,0,.22,0,.07,0,.09v.08h-4.45l-3.21-.07h-.13Zm-9.26,0h7.57v.51l.06,2.58h0l.09,3.7c-1.36,0-2.67-.08-3.77-.13l-.74,0h0c-1.08-.06-2.1-.14-3-.24H120l0-2.11,0-1.78,0-1.15Z"/><path class="cls-15" d="M143.93,135.92a11.93,11.93,0,0,0-1.33,4.47,5.51,5.51,0,0,0-2.33-2.9,11.26,11.26,0,0,1,.8-2.44l2.25.69Z"/><path class="cls-17" d="M113.82,138a5.32,5.32,0,0,0-2.52,1.66,10.33,10.33,0,0,0-1.86-4.4l2.87-1A10.55,10.55,0,0,1,113.82,138Z"/><path class="cls-6" d="M118.07,133.44c-1.35-.18-2.21-.34-2.36-.38a8,8,0,0,1,0-1.1,14.79,14.79,0,0,1,.14-1.91,24.11,24.11,0,0,1,.59-2.88.94.94,0,0,0,.43.1c.26,0,.66,0,1.23,0v1c0,.52,0,1.14,0,1.78Z"/><path class="cls-6" d="M127.65,134.08c-1.36,0-2.67-.08-3.77-.13l-.74,0h0c-1.09-.06-2.1-.14-3-.24H120l0-2.11,0-1.78,0-1.15,0-1.36h7.57v.51l.06,2.58h0Z"/><path class="cls-6" d="M137,134.26s-1.92,0-4.45-.07l-3.21-.07h-.13v-6.83c1.26,0,2.5,0,3.59.11a20,20,0,0,1,2,.2c1,.16,1.65.39,1.73.75a.07.07,0,0,1,0,.05c0,.48.11,1.43.19,2.42Z"/><ellipse cx="115.31" cy="143.32" rx="4.36" ry="4.5"/><ellipse class="cls-13" cx="115.27" cy="143.32" rx="2.7" ry="2.65"/><ellipse class="cls-14" cx="115.27" cy="143.32" rx="1.51" ry="1.48"/><ellipse cx="137.57" cy="142.24" rx="4.36" ry="4.5"/><ellipse class="cls-13" cx="137.53" cy="142.24" rx="2.7" ry="2.65"/><ellipse class="cls-14" cx="137.53" cy="142.24" rx="1.51" ry="1.48"/><path d="M127.14,135.49h-1.76a.29.29,0,0,1-.28-.29.3.3,0,0,1,.28-.3h1.76a.29.29,0,0,1,.28.3A.28.28,0,0,1,127.14,135.49Z"/><path d="M131.22,135.49h-1.76a.29.29,0,0,1-.28-.29.3.3,0,0,1,.28-.3h1.76a.29.29,0,0,1,.28.3A.28.28,0,0,1,131.22,135.49Z"/><path class="cls-12" d="M105.94,142.44c-.33,0-2.11.23-2,.89s.34,1.87,1,1.95,1.85-.3,1.89-.68A4.8,4.8,0,0,0,105.94,142.44Z"/><path class="cls-12" d="M146.87,140.76l-.24,1.28-3.73-.45s-.91,2.38-.19,2.13c.11,0,4.23.58,4.93.2A1.74,1.74,0,0,0,146.87,140.76Z"/><ellipse class="cls-18" cx="105.96" cy="140.38" rx="0.61" ry="1.24" transform="translate(-24 21.87) rotate(-10.59)"/><path class="cls-11" d="M125.48,127.28l-5.5,4.28,0-1.78,3.26-2.52h2.26Z"/><path class="cls-11" d="M118.06,128.31c0,.52,0,1.14,0,1.78l-2.4,1.87a14.79,14.79,0,0,1,.14-1.91Z"/><path class="cls-11" d="M121.7,127.26l-1.76,1.37,0-1.36Z"/><path class="cls-11" d="M127.56,130.37h0l-4.42,3.54h0c-1.09-.06-2.1-.14-3-.24l7.37-5.89Z"/><path class="cls-11" d="M134.79,127.6,129.18,132v-1.8l3.59-2.76A20,20,0,0,1,134.79,127.6Z"/><path class="cls-11" d="M136.72,130.82l-4.2,3.37-3.21-.07,7.21-5.77a.07.07,0,0,1,0,.05C136.57,128.88,136.64,129.83,136.72,130.82Z"/><path class="cls-6" d="M170.21,76.13a14,14,0,0,0,.16,2,2.84,2.84,0,0,1,1.95-.32,3.1,3.1,0,0,1,.79.24h0a17.54,17.54,0,0,0-.2-2.48,12.67,12.67,0,0,0-1.15-3.76,3.11,3.11,0,0,0-1.26,1.83A8.66,8.66,0,0,0,170.21,76.13Z"/><path class="cls-19" d="M166.05,72.54l-.21-.2Z"/><path class="cls-19" d="M165.69,72.2l-.15-.13Z"/><path class="cls-19" d="M165.54,72.07l-.25-.19Z"/><path class="cls-19" d="M165.29,71.88l-.35-.23Z"/><path class="cls-19" d="M164.84,71.59a3.58,3.58,0,0,0-.39-.21Z"/><path class="cls-19" d="M164.45,71.38l-.2-.1Z"/><path class="cls-19" d="M163.92,71.14l-.22-.08Z"/><path class="cls-19" d="M163.7,71.06l-.23-.08Z"/><path class="cls-19" d="M163.1,70.88l-.25-.06Z"/><path class="cls-19" d="M158.42,70.85l-.29.07Z"/><path class="cls-19" d="M157.84,71l-.4.13Z"/><path class="cls-19" d="M157.31,71.16l-.39.14Z"/><path class="cls-19" d="M156.8,71.35l-.24.11Z"/><path class="cls-19" d="M156.56,71.46l-.45.23Z"/><path class="cls-19" d="M155.59,72l-.19.13Z"/><path class="cls-19" d="M155.4,72.13a4.57,4.57,0,0,0-.54.42A4.57,4.57,0,0,1,155.4,72.13Z"/><path class="cls-19" d="M153.82,73.66c-.11.15-.22.3-.31.45Z"/><path class="cls-19" d="M153.42,74.26a2.39,2.39,0,0,0-.13.21A2.39,2.39,0,0,1,153.42,74.26Z"/><path class="cls-19" d="M153.18,74.69c-.05.08-.09.16-.13.24C153.09,74.85,153.13,74.77,153.18,74.69Z"/><path class="cls-19" d="M153.05,74.93l-.07.16Z"/><path class="cls-20" d="M173.13,78.06v0h0a4,4,0,0,0-.76-.22h-.14l-.18,0h-.59a.9.9,0,0,0-.16,0h0l-.12,0h0l-.15,0h0l-.17.06-.18.08-.18.1,0-.2a.78.78,0,0,0,0-.14c0-.18,0-.42-.07-.7,0,0,0-.1,0-.15v-.29a.81.81,0,0,1,0-.16.92.92,0,0,0,0-.16v-.61a11.4,11.4,0,0,1,.1-1.15.77.77,0,0,0,0-.15c0-.17.07-.33.11-.5a2.68,2.68,0,0,1,.07-.27v0a1.43,1.43,0,0,1,.09-.27h0c0-.09.07-.17.11-.26h0l.12-.25h0l.11-.19a1,1,0,0,1,.09-.13h0l.11-.13a1.18,1.18,0,0,1,.18-.21l.1-.1h0l.16-.13.18-.12c-1.87-3.74-5.51-5.43-9.9-5.43-6.36,0-11.29,3.59-12.49,9.07a37.56,37.56,0,0,0-.63,4.1,4.39,4.39,0,0,1,3.42.2c1.43.85,2.51,1.81,4.44.28l.24-.19.28-.2.29-.18a2.74,2.74,0,0,1,.42-.21,1.78,1.78,0,0,1,.29-.12l.26-.07h0l.23,0a1.85,1.85,0,0,1,.47,0h.08l.21,0,.15,0,.18,0c.19,0,.38.1.59.16l.36.12h0l1,.36.29.1.78.25.23,0,.11,0,.1,0h0l.35,0a3.07,3.07,0,0,0,1.11-.15,7.07,7.07,0,0,0,.7-.27l.41-.18,1-.47c2.54-1.17,5.09,2.55,8.32.45a4.79,4.79,0,0,1,1-.51A10.46,10.46,0,0,0,173.13,78.06ZM159,73.55l-.12,1.77-.14,2.23,0,.58h-6.51v0a.35.35,0,0,0,0-.06v-.11s0,0,0,0,0-.25,0-.42v0a7.5,7.5,0,0,1,.15-.78l0-.14a.14.14,0,0,0,0-.06s0-.1,0-.14a.64.64,0,0,1,0-.07s0,0,0-.08l0-.07s0-.1,0-.15a.88.88,0,0,0,.05-.15l.06-.16,0-.07.06-.16a1.11,1.11,0,0,1,.07-.16,1.11,1.11,0,0,1,.07-.16l.07-.16c0-.08.08-.16.13-.24a1.51,1.51,0,0,1,.11-.22,2.39,2.39,0,0,1,.13-.21l.09-.15.31-.45,0,0,.19-.23.06-.08.07-.08.07-.08.07-.08a.46.46,0,0,0,.07-.07l.08-.08.07-.08.08-.07.08-.07.17-.15a2.11,2.11,0,0,1,.23-.19l.08-.06,0,0a1.33,1.33,0,0,1,.19-.14l.19-.13.1-.07.1-.06.1-.06.11-.06a.6.6,0,0,1,.11-.06l.3-.16.15-.07.24-.11.12,0,.39-.14.13,0,.41-.13.14,0,.14,0h0l.29-.07.15,0,.14,0h0l.14,0,.32,0Zm9,4.58h-7.47V70.62h.74l.46,0,.39,0,.24,0,.47.09.25.06.36.1.24.08.22.08.11,0,.22.09.2.1.15.08.15.08.09,0,.1.06.35.23.24.19.16.13.15.14.21.2.22.24.19.24a1.88,1.88,0,0,1,.18.24l.1.14a6.46,6.46,0,0,1,.49.88l0,.07h0l.09.19.06.16s0,.1.07.16l.05.15,0,.08s0,.11.05.16a1.87,1.87,0,0,0,.07.22,10.09,10.09,0,0,1,.23,1,1.1,1.1,0,0,1,0,.18,0,0,0,0,1,0,0h0A8.39,8.39,0,0,1,168,78.13Z"/><path class="cls-21" d="M148.45,85.21h31.8a7.24,7.24,0,0,0-4.09-6.1,4.79,4.79,0,0,0-1,.51c-3.24,2.1-5.78-1.62-8.32-.45s-2.78,1.42-5.13.57-3.16-1.25-5.08.28-3,.57-4.44-.28a4.39,4.39,0,0,0-3.42-.2C148.54,81.66,148.46,83.7,148.45,85.21Z"/><path class="cls-20" d="M148.47,87.75H180.1a10.31,10.31,0,0,0,.15-2.54h-31.8C148.43,86.75,148.47,87.75,148.47,87.75Z"/><path class="cls-6" d="M152.22,78.13h6.51l0-.58.14-2.23.12-1.77.18-2.83-.32,0-.14,0h0l-.14,0-.15,0-.29.07h0L158,71l-.15,0-.4.13-.13,0-.39.14-.12,0-.24.11-.15.07-.3.16a.6.6,0,0,0-.11.06l-.1.06-.11.06-.1.06-.1.07-.19.13-.31.22-.23.2-.17.15-.08.07-.07.08-.08.07-.08.08-.07.07-.07.08-.07.08-.07.08-.06.08-.19.23,0,0-.31.45-.09.15a2.39,2.39,0,0,0-.13.21,1.51,1.51,0,0,0-.11.22c-.05.08-.09.16-.13.24l-.07.16-.07.16-.07.16s0,.07,0,.11l0,0,0,.08-.06.15a.88.88,0,0,1-.05.15s0,.1,0,.15l0,.07,0,.07,0,.08s0,.09,0,.14l0,.07,0,.13c-.07.29-.12.56-.15.78v0c0,.17,0,.32,0,.42V78a.35.35,0,0,1,0,.06v0Z"/><path class="cls-6" d="M160.55,70.62v7.51H168a8.42,8.42,0,0,0-.08-1.4,8.72,8.72,0,0,0-.33-1.48s0-.11-.05-.16l0-.08-.06-.15a.44.44,0,0,0-.06-.16l-.06-.16a1.54,1.54,0,0,1-.08-.19,6.63,6.63,0,0,0-1.22-1.81l-.21-.2-.15-.14h0l-.15-.13-.25-.19-.35-.23-.1-.06-.39-.21-.2-.1-.22-.09-.11,0-.22-.08h0l-.23-.08-.37-.1-.25-.06-.25,0a9.76,9.76,0,0,0-1.79-.16h-.26Z"/><ellipse cx="171.29" cy="87.43" rx="4.73" ry="4.72"/><ellipse class="cls-13" cx="171.34" cy="87.43" rx="2.93" ry="2.78"/><ellipse class="cls-14" cx="171.34" cy="87.43" rx="1.63" ry="1.55"/><ellipse cx="151.45" cy="87.43" rx="4.73" ry="4.72"/><ellipse class="cls-13" cx="151.49" cy="87.43" rx="2.93" ry="2.78"/><ellipse class="cls-14" cx="151.49" cy="87.43" rx="1.63" ry="1.55"/><rect class="cls-22" x="178.54" y="85.19" width="0.81" height="2.54" transform="translate(357.89 172.91) rotate(-180)"/><rect class="cls-22" x="163.36" y="85.19" width="0.81" height="2.54" transform="translate(327.53 172.91) rotate(-180)"/><rect class="cls-22" x="161.43" y="85.19" width="0.81" height="2.54" transform="translate(323.68 172.91) rotate(-180)"/><rect class="cls-22" x="159.51" y="85.19" width="0.81" height="2.54" transform="translate(319.82 172.91) rotate(-180)"/><rect class="cls-22" x="157.58" y="85.19" width="0.81" height="2.54" transform="translate(315.97 172.91) rotate(-180)"/><path d="M160.93,79.84h1.83a.3.3,0,0,0,0-.6h-1.83a.3.3,0,0,0,0,.6Z"/><path d="M156.92,79.84h1.84a.3.3,0,0,0,0-.6h-1.84a.3.3,0,0,0,0,.6Z"/><path class="cls-11" d="M160.55,70.62V71l7.39,5.71a8.72,8.72,0,0,0-.33-1.48s0-.11-.05-.16l0-.08-.06-.15a.44.44,0,0,0-.06-.16l-.06-.16a1.54,1.54,0,0,1-.08-.19l-4.67-3.58a9.76,9.76,0,0,0-1.79-.16h-.26Z"/><polygon class="cls-11" points="160.55 73.18 160.55 75.92 163.29 78.13 166.72 78.13 160.55 73.18"/><path class="cls-11" d="M170.21,76.13l2.11,1.68a3.1,3.1,0,0,1,.79.24h0a17.54,17.54,0,0,0-.2-2.48l-2.41-1.93A8.66,8.66,0,0,0,170.21,76.13Z"/><path class="cls-11" d="M155.09,72.35l3.81,3,.12-1.77-2.61-2-.3.16a.6.6,0,0,0-.11.06l-.1.06-.11.06-.1.06-.1.07-.19.13Z"/><path class="cls-11" d="M152.8,75.52l3.25,2.61h2.68l0-.58-4.91-3.93,0,0-.31.45-.09.15a2.39,2.39,0,0,0-.13.21,1.51,1.51,0,0,0-.11.22c-.05.08-.09.16-.13.24l-.07.16-.07.16-.07.16S152.81,75.48,152.8,75.52Z"/><path class="cls-21" d="M177.33,89c1.73.08,4.39,0,4.35-1.82s-1.42-1.61-1.42-1.61v.89s-2.53-.39-2.91.46S176.89,88.94,177.33,89Z"/><path class="cls-21" d="M145.63,85.67s-2.31-.6-2.46.81-.31,2.14,1.08,2.3,1.38,0,1.38,0Z"/><path class="cls-12" d="M177.59,86.61a8.17,8.17,0,0,0-.34-1.4,6.3,6.3,0,0,0-12.14,0,7.82,7.82,0,0,0-.42,2.54v0a7.75,7.75,0,0,0,.21,1.82,5,5,0,0,0,2.17,0l.18,0a5.2,5.2,0,0,1-.3-1.73v0a5.1,5.1,0,0,1,.69-2.54,4,4,0,0,1,7.08,0,5.1,5.1,0,0,1,.69,2.54v0a5.15,5.15,0,0,1-.33,1.81l.35.13a3.53,3.53,0,0,0,2,0,6.06,6.06,0,0,0,.15-.74,7.88,7.88,0,0,0,.09-1.2v0A7.12,7.12,0,0,0,177.59,86.61Z"/><path class="cls-12" d="M157.58,85.8a5.76,5.76,0,0,0-.18-.59,6.54,6.54,0,0,0-6.06-4.62,6,6,0,0,0-2.73.66,7,7,0,0,0-3.46,4.33,7.83,7.83,0,0,0-.31,2.19,9.45,9.45,0,0,0,.07,1.07c0,.25.08.5.14.75a5,5,0,0,0,2.18,0l.18,0a5,5,0,0,1-.3-1.73,4.89,4.89,0,0,1,1.35-3.42,4,4,0,0,1,2.88-1.26,4.13,4.13,0,0,1,3.53,2.12,5,5,0,0,1,.69,2.54v0a5.15,5.15,0,0,1-.33,1.81l.35.13a3.57,3.57,0,0,0,2,0,7.75,7.75,0,0,0,.24-1.94v0A7.62,7.62,0,0,0,157.58,85.8Z"/><path class="cls-6" d="M31.78,221.45a14,14,0,0,1-.16,2,2.83,2.83,0,0,0-1.95-.31,3.38,3.38,0,0,0-.79.23h0a17.42,17.42,0,0,1,.2-2.48,12.67,12.67,0,0,1,1.15-3.76A3.08,3.08,0,0,1,31.47,219,8.59,8.59,0,0,1,31.78,221.45Z"/><path class="cls-19" d="M35.94,217.87l.21-.21Z"/><path class="cls-19" d="M36.3,217.53l.15-.13Z"/><path class="cls-19" d="M36.45,217.4l.25-.19Z"/><path class="cls-19" d="M36.7,217.21l.35-.24Z"/><path class="cls-19" d="M37.15,216.92c.12-.08.25-.15.38-.22C37.4,216.77,37.27,216.84,37.15,216.92Z"/><path class="cls-19" d="M37.53,216.7l.21-.09Z"/><path class="cls-19" d="M38.06,216.47l.23-.08Z"/><path class="cls-19" d="M38.29,216.39l.23-.08Z"/><path class="cls-19" d="M38.89,216.21l.25-.07Z"/><path class="cls-19" d="M43.57,216.18l.29.06Z"/><path class="cls-19" d="M44.14,216.32l.41.12Z"/><path class="cls-19" d="M44.68,216.49l.38.14Z"/><path class="cls-19" d="M45.19,216.68l.24.1Z"/><path class="cls-19" d="M45.43,216.78l.45.23Z"/><path class="cls-19" d="M46.4,217.32l.19.13Z"/><path class="cls-19" d="M46.59,217.45l.54.42Z"/><path class="cls-19" d="M48.17,219c.11.15.21.31.31.46C48.38,219.29,48.28,219.13,48.17,219Z"/><path class="cls-19" d="M48.57,219.58l.13.22Z"/><path class="cls-19" d="M48.81,220a2,2,0,0,1,.13.25A2,2,0,0,0,48.81,220Z"/><path class="cls-19" d="M48.94,220.26c0,.05.05.1.07.16S49,220.31,48.94,220.26Z"/><path class="cls-20" d="M25.83,224.44a4.73,4.73,0,0,1,1,.5c3.23,2.1,5.78-1.61,8.32-.44l1,.46.42.19a7.07,7.07,0,0,0,.7.27,2.78,2.78,0,0,0,1.1.14l.36,0h0l.1,0,.11,0,.23-.06q.35-.09.78-.24l.29-.1,1-.37h0l.35-.12.6-.17.18,0,.15,0,.21,0h.08a2.46,2.46,0,0,1,.47,0l.23,0h0l.26.07.29.12a2.82,2.82,0,0,1,.42.22,2.2,2.2,0,0,1,.28.18l.29.2.24.19c1.93,1.53,3,.56,4.43-.28a4.38,4.38,0,0,1,3.43-.2,37.19,37.19,0,0,0-.63-4.1c-1.2-5.49-6.13-9.08-12.49-9.08-4.39,0-8,1.7-9.9,5.44a.66.66,0,0,1,.17.12l.17.12h0l.1.09c.06.07.13.14.18.21l.11.13h0L31,218a1.18,1.18,0,0,1,.11.19h0l.12.25v0a2,2,0,0,1,.11.26h0a1.43,1.43,0,0,1,.09.27h0a2.86,2.86,0,0,1,.07.28c0,.16.08.33.11.5a.68.68,0,0,0,0,.14c.05.39.08.78.09,1.15,0,.14,0,.28,0,.41a1.48,1.48,0,0,1,0,.21v.16a.92.92,0,0,1,0,.16v.29s0,.1,0,.14c0,.29,0,.53-.07.71a.68.68,0,0,0,0,.14l0,.19a1.51,1.51,0,0,0-.18-.09l-.18-.08a1.15,1.15,0,0,0-.17-.06h0l-.15-.05h-.05l-.12,0h0l-.16,0-.17,0H30l-.18,0h-.14a4,4,0,0,0-.76.22h-.05v0A10.46,10.46,0,0,0,25.83,224.44Zm17-8.39.32,0,.14,0h0l.14,0,.15,0,.29.07h0l.14,0,.14,0,.41.12.13.05.39.14.12.05.24.1.15.08.3.15.11.06.1.06.11.07.1.06.1.06.19.13.19.14,0,0,.08.06.23.19.17.15.08.08.08.07.07.08.08.07.07.08.07.08.07.08a.46.46,0,0,0,.07.07l.06.08.19.24,0,0c.11.15.21.31.31.46l.09.14.13.22a2.12,2.12,0,0,1,.11.21,2,2,0,0,1,.13.25c0,.05.05.1.07.16s.05.1.07.16a1,1,0,0,1,.07.15l.06.16,0,.08.06.15a.75.75,0,0,0,.05.16c0,.05,0,.1,0,.14l0,.08a.19.19,0,0,0,0,.07s0,.05,0,.07,0,.1,0,.14,0,.05,0,.07a.93.93,0,0,1,0,.13q.11.45.15.78v0c0,.17,0,.31,0,.42v0s0,0,0,0v.15h0v0h-6.5l0-.57-.14-2.23L43,218.87Zm-8.74,6h0a0,0,0,0,1,0,0,1.41,1.41,0,0,1,0-.18,9.94,9.94,0,0,1,.23-1c0-.08,0-.15.07-.23s0-.1,0-.15l0-.08,0-.16a.76.76,0,0,0,.06-.16,1,1,0,0,0,.07-.15l.09-.2h0l0-.06a5.91,5.91,0,0,1,.49-.88l.09-.14c.06-.08.12-.17.19-.25l.19-.24.22-.23c.07-.07.13-.14.21-.21l.15-.13.15-.13.25-.19.35-.24.1-.05.09-.06.15-.08.15-.08.2-.1.21-.09.12,0,.22-.08.23-.08.37-.11.25-.06.47-.08.24,0,.39,0,.46,0h.74v7.51H34A8.42,8.42,0,0,1,34.05,222.05Z"/><path class="cls-21" d="M53.54,230.53H21.74a7.24,7.24,0,0,1,4.09-6.09,4.73,4.73,0,0,1,1,.5c3.23,2.1,5.78-1.61,8.32-.44s2.78,1.41,5.13.57,3.16-1.26,5.08.28,3,.56,4.43-.28a4.38,4.38,0,0,1,3.43-.2C53.45,227,53.53,229,53.54,230.53Z"/><path class="cls-20" d="M53.52,233.07H21.89a9.82,9.82,0,0,1-.15-2.54h31.8C53.56,232.07,53.52,233.07,53.52,233.07Z"/><path class="cls-6" d="M49.77,223.45H43.26l0-.57-.15-2.23L43,218.87l-.18-2.82.32,0,.14,0h0l.14,0,.15,0,.29.06h0l.14,0,.14,0,.41.12.13.05.38.14.13.05.24.1.15.08.3.15.11.06.1.06.11.06.1.07.1.06.19.13.31.23.23.19.17.15.08.08.07.07.08.08.07.07.08.08.07.08.07.08a.46.46,0,0,0,.07.07l.06.08.19.24,0,0c.11.15.21.31.31.46l.09.14.13.22a2.12,2.12,0,0,1,.11.21,2,2,0,0,1,.13.25c0,.05.05.1.07.16a.77.77,0,0,1,.07.16s.05.1.07.16l0,.1,0,0,0,.08a.88.88,0,0,1,0,.15l.06.16c0,.05,0,.1,0,.14l0,.08,0,.07,0,.07a.57.57,0,0,0,0,.14v.07a.93.93,0,0,1,0,.13q.11.45.15.78v0c0,.17,0,.31,0,.42v.2h0Z"/><path class="cls-6" d="M41.44,215.94v7.51H34a8.42,8.42,0,0,1,.08-1.4,9.16,9.16,0,0,1,.33-1.48s0-.1,0-.15l0-.08c0-.05,0-.11,0-.16l.07-.16.06-.15c0-.07,0-.13.08-.19a6.49,6.49,0,0,1,1.22-1.81l.21-.21.15-.13h0l.15-.13.25-.19.35-.24.1-.05c.12-.08.25-.15.38-.22l.21-.09.21-.1.11,0,.23-.08h0l.23-.08.37-.1.25-.07.25,0a9,9,0,0,1,1.79-.16h.26Z"/><ellipse cx="30.7" cy="232.75" rx="4.73" ry="4.72"/><ellipse class="cls-13" cx="30.65" cy="232.75" rx="2.93" ry="2.78"/><ellipse class="cls-14" cx="30.65" cy="232.75" rx="1.63" ry="1.55"/><ellipse cx="50.54" cy="232.75" rx="4.73" ry="4.72"/><ellipse class="cls-13" cx="50.5" cy="232.75" rx="2.93" ry="2.78"/><ellipse class="cls-14" cx="50.5" cy="232.75" rx="1.63" ry="1.55"/><rect class="cls-22" x="22.64" y="230.51" width="0.81" height="2.54"/><rect class="cls-22" x="37.82" y="230.51" width="0.81" height="2.54"/><rect class="cls-22" x="39.75" y="230.51" width="0.81" height="2.54"/><rect class="cls-22" x="41.67" y="230.51" width="0.81" height="2.54"/><rect class="cls-22" x="43.6" y="230.51" width="0.81" height="2.54"/><path d="M41.06,225.17H39.23a.31.31,0,0,1,0-.61h1.83a.31.31,0,0,1,0,.61Z"/><path d="M45.06,225.17H43.23a.31.31,0,0,1,0-.61h1.83a.31.31,0,0,1,0,.61Z"/><path class="cls-11" d="M41.44,215.94v.4l-7.39,5.71a9.16,9.16,0,0,1,.33-1.48s0-.1,0-.15l0-.08c0-.05,0-.11,0-.16l.07-.16.06-.15c0-.07,0-.13.08-.19l4.67-3.58a9,9,0,0,1,1.79-.16h.26Z"/><polygon class="cls-11" points="41.44 218.51 41.44 221.25 38.69 223.45 35.27 223.45 41.44 218.51"/><path class="cls-11" d="M31.78,221.45l-2.11,1.69a3.38,3.38,0,0,0-.79.23h0a17.42,17.42,0,0,1,.2-2.48L31.47,219A8.59,8.59,0,0,1,31.78,221.45Z"/><path class="cls-11" d="M46.9,217.68l-3.82,3L43,218.87l2.61-2,.3.15.11.06.1.06.11.06.1.07.1.06.19.13Z"/><path class="cls-11" d="M49.19,220.84l-3.25,2.61H43.26l0-.57L48.14,219l0,0c.11.15.21.31.31.46l.09.14.13.22a2.12,2.12,0,0,1,.11.21,2,2,0,0,1,.13.25c0,.05.05.1.07.16a.77.77,0,0,1,.07.16s.05.1.07.16Z"/><path class="cls-21" d="M24.66,234.28c-1.73.08-4.39,0-4.35-1.81s1.42-1.62,1.42-1.62v.89s2.53-.38,2.91.47S25.1,234.26,24.66,234.28Z"/><path class="cls-21" d="M56.36,231s2.31-.61,2.46.8.31,2.14-1.08,2.3-1.38,0-1.38,0Z"/><path class="cls-12" d="M24.31,233.07v0a9.41,9.41,0,0,0,.09,1.2c0,.26.09.5.15.74a3.4,3.4,0,0,0,2,0,2.48,2.48,0,0,0,.35-.13,5.11,5.11,0,0,1-.33-1.81v0a5.13,5.13,0,0,1,.69-2.54,4,4,0,0,1,7.08,0,5.13,5.13,0,0,1,.69,2.54v0a5.15,5.15,0,0,1-.3,1.73l.18.05a5,5,0,0,0,2.17,0,7.9,7.9,0,0,0,.21-1.83v0a7.87,7.87,0,0,0-.42-2.54,6.56,6.56,0,0,0-6.07-4.62,6.56,6.56,0,0,0-6.07,4.62,8.06,8.06,0,0,0-.34,1.41A7.08,7.08,0,0,0,24.31,233.07Z"/><path class="cls-12" d="M44.16,233.05v0A7.7,7.7,0,0,0,44.4,235a3.4,3.4,0,0,0,2,0,3,3,0,0,0,.35-.13,5.11,5.11,0,0,1-.33-1.81v0a5,5,0,0,1,.69-2.54,4.12,4.12,0,0,1,3.53-2.11,4,4,0,0,1,2.88,1.25,4.89,4.89,0,0,1,1.35,3.42,5.15,5.15,0,0,1-.3,1.73l.18.05a5,5,0,0,0,2.18,0c.05-.25.1-.5.14-.76a9.3,9.3,0,0,0,.07-1.07,7.88,7.88,0,0,0-.31-2.19,7,7,0,0,0-3.46-4.32,5.89,5.89,0,0,0-2.73-.67,6.54,6.54,0,0,0-6.06,4.62c-.07.2-.13.39-.18.59A7.68,7.68,0,0,0,44.16,233.05Z"/><path class="cls-23" d="M286,53.12V191.35c0,17.22-13.38,31.24-29.84,31.24H182c-16.46,0-29.85-14-29.85-31.24V176.49c0-8.33-6.46-15.1-14.42-15.1H105.49c-7.95,0-14.42,6.77-14.42,15.1v46c0,17.23-13.39,31.24-29.84,31.24H0V237.61H61.23c8,0,14.42-6.77,14.42-15.1v-46c0-17.23,13.39-31.25,29.84-31.25h32.23c16.46,0,29.85,14,29.85,31.25v14.86c0,8.32,6.47,15.09,14.42,15.09h74.18c7.95,0,14.42-6.77,14.42-15.09V53.12c0-8.32-6.47-15.09-14.42-15.09h-15c-8,0-14.42,6.77-14.42,15.09V75.89c0,17.23-13.39,31.25-29.84,31.25H142.66c-16.46,0-29.84-14-29.84-31.25,0-8.32-6.47-15.1-14.42-15.1H0V44.65H98.4c16.45,0,29.84,14,29.84,31.24,0,8.33,6.47,15.1,14.42,15.1H197c8,0,14.42-6.77,14.42-15.1V53.12c0-17.22,13.38-31.24,29.84-31.24h15C272.63,21.88,286,35.9,286,53.12Z"/><path class="cls-24" d="M61.19,246.49H50.3v-1.62H61.19Zm-21.77,0H28.54v-1.62H39.42Zm-21.77,0H6.77v-1.62H17.65ZM72,243.67l-.72-1.42A21.92,21.92,0,0,0,79,234.94l1.28.9A23.55,23.55,0,0,1,72,243.67Zm12-18.82-1.53-.15c.06-.72.1-1.46.1-2.19v-9.12h1.54v9.12C84.13,223.29,84.09,224.08,84,224.85Zm172.15-9.53h-9.86v-1.61h9.86l1,0,.07,1.61C256.88,215.32,256.52,215.32,256.17,215.32Zm-20.74,0H224.55v-1.61h10.88Zm-21.77,0H202.78v-1.61h10.88Zm-21.76,0H182c-.34,0-.68,0-1,0l.07-1.61.94,0h9.91ZM170.3,212a23.72,23.72,0,0,1-7.92-8.22l1.32-.84a22.14,22.14,0,0,0,7.38,7.67Zm97.61,0-.8-1.39a22.05,22.05,0,0,0,7.37-7.68l1.32.83A23.69,23.69,0,0,1,267.91,211.94ZM84.13,202H82.59V190.6h1.54Zm75-9.4c0-.41,0-.83,0-1.25V181.16h1.54v10.19c0,.38,0,.77,0,1.16Zm119.93-.05-1.54-.08c0-.37,0-.74,0-1.11V181.1h1.54v10.25C279.07,191.74,279.06,192.14,279.05,192.54ZM84.13,179.2H82.59v-2.71a24.9,24.9,0,0,1,1.58-8.78l1.44.6a23.1,23.1,0,0,0-1.48,8.18Zm74.07-9.11a22.64,22.64,0,0,0-5.32-9.36l1.1-1.14a24.5,24.5,0,0,1,5.7,10Zm120.87-.38h-1.54v-11.4h1.54ZM91.66,159.45l-1-1.23a22.4,22.4,0,0,1,10-5.17l.32,1.58A21,21,0,0,0,91.66,159.45ZM144,155.1a20.37,20.37,0,0,0-6.26-1h-4.29v-1.62h4.29a21.85,21.85,0,0,1,6.72,1.05Zm-21.44-1H111.66v-1.62h10.88Zm156.53-7.21h-1.54v-11.4h1.54Zm0-22.79h-1.54v-11.4h1.54Zm0-22.79h-1.54V90h1.54Zm-90.93-1.47H177.25V98.26h10.89Zm-21.77,0H155.49V98.26h10.88Zm-21.77,0h-1.94a22,22,0,0,1-9-1.92l.6-1.49a20.46,20.46,0,0,0,8.4,1.8h1.94Zm54.49-.1-.15-1.61a20.78,20.78,0,0,0,9.81-3.62l.85,1.34A22.29,22.29,0,0,1,199.09,99.77Zm-74.31-8.89a24.5,24.5,0,0,1-4.64-10.61l1.52-.29A22.77,22.77,0,0,0,126,89.87Zm92.34-3.61-1.36-.77A23.26,23.26,0,0,0,218.31,76h1.54A25,25,0,0,1,217.12,87.27Zm61.95-8.72h-1.54V67.16h1.54ZM118.76,69.12a22.67,22.67,0,0,0-5.47-9.26l1.07-1.16a24.25,24.25,0,0,1,5.87,9.93Zm101.09-4.56h-1.54V53.16h1.54Zm59.22-8.8h-1.54V53.12a23.1,23.1,0,0,0-1.5-8.25l1.43-.59a24.77,24.77,0,0,1,1.61,8.84ZM104.3,54.39a20.64,20.64,0,0,0-5.9-.86H93.71V51.91H98.4a22.07,22.07,0,0,1,6.32.93Zm-21.47-.86H71.94V51.91H82.83Zm-21.77,0H50.18V51.91H61.06Zm-21.77,0H28.41V51.91H39.29Zm-21.76,0H6.64V51.91H17.53ZM222.36,42.6,221,41.84a23.8,23.8,0,0,1,7.48-8.65l.86,1.34A22.07,22.07,0,0,0,222.36,42.6ZM270,36a20.94,20.94,0,0,0-9.33-4.79l.32-1.58a22.47,22.47,0,0,1,10,5.14Zm-30.82-5.17L239,29.26a20.81,20.81,0,0,1,2.23-.11h8.72v1.61h-8.72A20.55,20.55,0,0,0,239.13,30.87Z"/><polygon class="cls-4" points="39.41 97.71 38.37 125.63 40.98 125.63 39.41 97.71"/><path class="cls-1" d="M39.54,112.08c-9.67-.55-10.18-17.84-1.77-21.68,8.89-4.06,12.75,4.71,9.88,9.09C55.75,101.68,49.48,112.63,39.54,112.08Z"/><polygon class="cls-4" points="74.58 103.52 73.53 131.44 76.14 131.44 74.58 103.52"/><path class="cls-1" d="M74.71,117.89c-9.68-.55-10.18-17.84-1.77-21.68,8.88-4,12.75,4.71,9.87,9.09C90.91,107.49,84.64,118.44,74.71,117.89Z"/><polygon class="cls-4" points="62.85 94.32 61.81 122.23 64.42 122.23 62.85 94.32"/><path class="cls-25" d="M63,108.69C53.31,108.14,52.8,90.85,61.22,87,70.1,83,74,91.72,71.09,96.1,79.19,98.29,72.92,109.23,63,108.69Z"/><polygon class="cls-4" points="34.79 164.88 33.74 192.8 36.35 192.8 34.79 164.88"/><path class="cls-25" d="M34.92,179.25c-9.68-.55-10.18-17.84-1.77-21.68,8.88-4,12.75,4.71,9.87,9.09C51.12,168.85,44.85,179.8,34.92,179.25Z"/><polygon class="cls-4" points="108.35 200.08 107.31 228 109.92 228 108.35 200.08"/><path class="cls-5" d="M108.48,214.45c-9.67-.55-10.18-17.84-1.77-21.68,8.89-4.05,12.75,4.71,9.88,9.09C124.69,204.05,118.42,215,108.48,214.45Z"/><polygon class="cls-4" points="148.76 13.42 147.71 41.34 150.33 41.34 148.76 13.42"/><path class="cls-5" d="M148.89,27.79c-9.67-.55-10.18-17.84-1.77-21.68C156,2.06,159.87,10.82,157,15.2,165.1,17.39,158.82,28.34,148.89,27.79Z"/><polygon class="cls-4" points="132.1 201.7 131.06 229.61 133.67 229.61 132.1 201.7"/><path class="cls-1" d="M132.23,216.07c-9.67-.55-10.18-17.84-1.77-21.68,8.89-4.06,12.75,4.71,9.88,9.09C148.44,205.67,142.17,216.61,132.23,216.07Z"/><polygon class="cls-4" points="191.48 128.06 190.43 155.98 193.05 155.98 191.48 128.06"/><path class="cls-1" d="M191.61,142.43c-9.67-.54-10.18-17.84-1.77-21.67,8.89-4.06,12.75,4.71,9.87,9.08C207.82,132,201.54,143,191.61,142.43Z"/><polygon class="cls-4" points="200.73 9.71 199.69 37.62 202.3 37.62 200.73 9.71"/><path class="cls-1" d="M200.86,24.08c-9.67-.55-10.18-17.84-1.77-21.68C208-1.66,211.84,7.11,209,11.48,217.07,13.67,210.8,24.62,200.86,24.08Z"/><polygon class="cls-4" points="120.07 209.29 119.03 237.2 121.64 237.2 120.07 209.29"/><path class="cls-25" d="M120.2,223.66c-9.67-.55-10.18-17.84-1.77-21.68,8.89-4.06,12.75,4.71,9.88,9.09C136.41,213.25,130.14,224.2,120.2,223.66Z"/><polygon class="cls-4" points="221.86 143.41 220.82 171.32 223.43 171.32 221.86 143.41"/><path class="cls-25" d="M222,157.77c-9.67-.54-10.18-17.84-1.77-21.67,8.89-4.06,12.75,4.71,9.88,9.08C238.2,147.37,231.93,158.32,222,157.77Z"/><polygon class="cls-4" points="174.05 27.14 173.01 55.06 175.62 55.06 174.05 27.14"/><path class="cls-25" d="M174.18,41.51C164.51,41,164,23.67,172.41,19.84c8.89-4.06,12.75,4.7,9.88,9.08C190.39,31.11,184.12,42.06,174.18,41.51Z"/><path class="cls-1" d="M29.33,63.3c-2.2-4,1.37-4.89,2.19-2.59,1.65-4,3.85-2.87,4.94-2,.83-7.47,5.22-3.16,5.22-.86,2.74-6.61,7.69-2.59,5.76.28,3.57-2,4.67-.28,4.12,1.44,3.29,0,3.57,2.88.55,3.74Z"/><path class="cls-1" d="M170.14,108.83c-2.2-4,1.37-4.88,2.19-2.58,1.65-4,3.85-2.88,4.94-2,.83-7.47,5.22-3.16,5.22-.86,2.74-6.61,7.68-2.58,5.76.29,3.57-2,4.67-.29,4.12,1.44,3.29,0,3.57,2.87.55,3.73Z"/><path class="cls-1" d="M205.3,224.29c-2.2-4,1.37-4.89,2.2-2.59,1.64-4,3.84-2.87,4.94-2,.82-7.47,5.21-3.16,5.21-.86,2.75-6.61,7.69-2.59,5.77.28,3.57-2,4.66-.28,4.11,1.44,3.3,0,3.57,2.87.55,3.74Z"/><path class="cls-1" d="M117.08,162.93c-2.19-4,1.37-4.89,2.2-2.59,1.65-4,3.84-2.87,4.94-2,.82-7.47,5.21-3.16,5.21-.86,2.75-6.61,7.69-2.59,5.77.28,3.57-2,4.67-.28,4.12,1.44,3.29,0,3.56,2.87.55,3.74Z"/><path class="cls-1" d="M23.62,255.45c-2.2-4,1.37-4.89,2.2-2.59,1.64-4,3.84-2.87,4.94-2,.82-7.47,5.21-3.16,5.21-.86,2.75-6.61,7.69-2.59,5.77.29,3.57-2,4.66-.29,4.11,1.43,3.3,0,3.57,2.88.55,3.74Z"/><path class="cls-1" d="M287,100.34c-3.85,2.3-4.67-1.44-2.47-2.3-3.85-1.72-2.75-4-1.93-5.17-7.13-.87-3-5.46-.82-5.46-6.31-2.88-2.47-8,.28-6-1.93-3.73-.28-4.88,1.37-4.31,0-3.45,2.74-3.74,3.57-.57Z"/><path class="cls-6" d="M257,122.18c0,1,.06,2,.1,3.17,0,1.36.07,2.77.11,4.13h0c0,1.18.06,2.33.09,3.35h0c0,1.09.05,2.06.08,2.81,0,.52,0,.94,0,1.23a10.86,10.86,0,0,1-.61,3.44L256,140c-.59-.19-1.45-.45-2.49-.72-.6-.16-1.25-.32-1.95-.47-.22,0-.43-.1-.61-.16.16-.62.38-1.43.57-2.1s.29-1,.36-1.13a6.06,6.06,0,0,0,.06-1c0-1.35-.06-3.88-.14-6.52,0-1-.06-1.91-.1-2.84,0-1.28-.09-2.48-.13-3.49h0c-.06-1.68-.11-2.82-.11-2.82l.67-.38c1.16-.66,3.47-2,3.94-2.19C256.66,115.89,256.83,117.13,257,122.18Z"/><path class="cls-11" d="M251.66,125.09l5.64,7.74h0c0,1.09.05,2.06.08,2.81l-5.62-7.72C251.73,127,251.7,126,251.66,125.09Z"/><path class="cls-11" d="M251.9,134.45,256,140c-.59-.19-1.45-.45-2.49-.72l-2-2.73c.15-.52.29-1,.36-1.13A6.06,6.06,0,0,0,251.9,134.45Z"/><path class="cls-11" d="M252.09,118.39l5,7c0,1.36.07,2.77.11,4.13l-5.68-7.88h0c-.06-1.68-.11-2.82-.11-2.82Z"/><path class="cls-26" d="M265.18,98.83h.34c.51,6.59.73,14.41.8,22.07H257c-.12-3-.25-4.31-.56-4.65a.27.27,0,0,0-.36,0c-.15.07-.47.24-.87.47s-.63.34-1,.54l-1.23.69-1,.55-.57.32s.49,11.67.48,15.5l.09,0c.29.13.62.26,1,.39s.81.26,1.23.37.65.18,1,.25.84.2,1.23.27l1,.19h0c0-.23,0-.49,0-.78,0-.78-.05-1.74-.08-2.78h9c-.11,12.37-.49,22.16-.49,22.16h-5a2.84,2.84,0,0,1-1.22-.16c-.44-.22-.63-.75-.87-2,0-.16-.07-.35-.1-.57-.31-1.71-.84-5.13-1.23-7.77-.3-2-.53-3.57-.53-3.57h0a13.88,13.88,0,0,0,.55-2.32c0-.18,0-.36.05-.53l-.05,0c-.31-.1-.64-.19-1-.28l-1.23-.33-1-.23-1.23-.28-1-.21-.34-.07c-.22.71-.53,1.84-.74,2.64l-.15-.05a3.51,3.51,0,0,1-1-.48c-.92-.69-1.09-1.82-1.23-3.87,0-.62-.07-1.33-.12-2.13-.25-3.85-.55-10.91.12-14a3,3,0,0,1,.55-1.35,8.26,8.26,0,0,1,.68-.6c.27-.22.6-.47,1-.75s.79-.58,1.23-.88l1-.69,1.23-.84,1-.65c.43-.3.85-.57,1.23-.82l1-.65,1.1-.72c0-.72.07-1.51.13-2.33a69.83,69.83,0,0,1,1-7.83,2.73,2.73,0,0,1,.21-.68c.08-.13.39-.22.82-.29a5.12,5.12,0,0,0,.19,1.27c.15.35.41.32.93.35h.05c.76,0,1.17-.83,1.13-1.82H263l1,0Z"/><path class="cls-8" d="M261.65,154.37h1.9a.88.88,0,0,1-1,.95c-.69,0-1.35.06-1.4-.95Z"/><path class="cls-8" d="M262.89,98.87c0,1-.38,1.86-1.18,1.82s-1,.07-1.12-1.62A22.44,22.44,0,0,1,262.89,98.87Z"/><path class="cls-27" d="M265.18,98.83v55.55H264V98.84Z"/><path class="cls-27" d="M263,98.87v55.5h-1.22V100.69c.76,0,1.17-.83,1.13-1.82Z"/><path class="cls-27" d="M260.59,99.07a5.12,5.12,0,0,0,.19,1.27v54a2.84,2.84,0,0,1-1.22-.16V100a2.73,2.73,0,0,1,.21-.68C259.85,99.23,260.16,99.14,260.59,99.07Z"/><path class="cls-27" d="M258.59,107.87v43.8c-.31-1.71-.84-5.13-1.23-7.77v-33l1.1-.72C258.48,109.48,258.53,108.69,258.59,107.87Z"/><path class="cls-27" d="M255.16,136.84v-1.51c.43.1.84.2,1.23.27v1.57Z"/><path class="cls-27" d="M256.39,116.25a.27.27,0,0,0-.36,0c-.15.07-.47.24-.87.47v-4.28c.43-.3.85-.57,1.23-.82Z"/><path class="cls-27" d="M253,136.33v-1.62c.39.13.81.26,1.23.37v1.53Z"/><path class="cls-27" d="M254.19,113v4.17l-1.23.69v-4Z"/><path class="cls-27" d="M252,114.57v3.88l-.57.32s.49,11.67.48,15.5l.09,0v1.8l-.34-.07c-.22.71-.53,1.84-.74,2.64l-.15-.05V115.45C251.14,115.17,251.55,114.87,252,114.57Z"/><path class="cls-27" d="M249.79,116.2v22c-.92-.69-1.09-1.82-1.23-3.87V118.15a3,3,0,0,1,.55-1.35A8.26,8.26,0,0,1,249.79,116.2Z"/><path class="cls-18" d="M257,120.9h9.37v1.29c0,.76,0,1.53,0,2.29v1.46c0,.82,0,1.64,0,2.46V130c0,.74,0,1.48,0,2.21h-9c0-.13,0-.26,0-.4l0-1.08c0-1-.05-2.09-.08-3.16,0-.29,0-.58,0-.86,0-1-.06-2.07-.09-3,0-.21,0-.42,0-.62l0-.89C257,121.72,257,121.29,257,120.9Z"/><path class="cls-28" d="M258.15,120.9h.55l.52.53-1.94,1.94,1.94,1.81-2,2,2,2.06-1.94,2.08.89.95h-.54l-.37-.4,0-1.08,1.46-1.55-1.54-1.61c0-.29,0-.58,0-.86l1.52-1.53-1.61-1.51c0-.21,0-.42,0-.62l1.64-1.65Z"/><polygon class="cls-28" points="259.46 120.9 260.01 120.9 260.53 121.43 258.59 123.37 260.54 125.19 258.58 127.14 260.54 129.19 258.6 131.28 259.49 132.23 258.95 132.23 258.06 131.28 260.01 129.2 258.04 127.14 259.98 125.19 258.03 123.38 259.98 121.42 259.46 120.9"/><polygon class="cls-28" points="260.77 120.9 261.32 120.9 261.84 121.43 259.9 123.37 261.85 125.19 259.89 127.14 261.86 129.19 259.91 131.28 260.8 132.23 260.26 132.23 259.38 131.28 261.32 129.2 259.35 127.14 261.29 125.19 259.34 123.38 261.29 121.42 260.77 120.9"/><polygon class="cls-28" points="262.09 120.9 262.63 120.9 263.15 121.43 261.21 123.37 263.16 125.19 261.2 127.14 263.17 129.19 261.22 131.28 262.11 132.23 261.58 132.23 260.69 131.28 262.63 129.2 260.66 127.14 262.6 125.19 260.65 123.38 262.6 121.42 262.09 120.9"/><polygon class="cls-28" points="263.4 120.9 263.94 120.9 264.46 121.43 262.52 123.37 264.47 125.19 262.51 127.14 264.48 129.19 262.53 131.28 263.42 132.23 262.89 132.23 262 131.28 263.94 129.2 261.97 127.14 263.91 125.19 261.96 123.38 263.91 121.42 263.4 120.9"/><polygon class="cls-28" points="264.71 120.9 265.25 120.9 265.77 121.43 263.83 123.37 265.78 125.19 263.83 127.14 265.79 129.19 263.84 131.28 264.73 132.23 264.2 132.23 263.31 131.28 265.25 129.2 263.28 127.14 265.22 125.19 263.27 123.38 265.23 121.42 264.71 120.9"/><path class="cls-28" d="M264.62,131.28l1.71-1.83V130l-1.18,1.26.89.95h-.53Z"/><path class="cls-28" d="M264.59,127.13l1.75-1.74v.55l-1.2,1.2,1.19,1.26V129Z"/><path class="cls-28" d="M264.58,123.38l1.74-1.74v.55l-1.19,1.18,1.2,1.11V125Z"/><path class="cls-28" d="M266,120.9h.3v.3Z"/><path d="M259,122.22v2.11a.33.33,0,0,1-.32.33.32.32,0,0,1-.32-.33v-2.11a.32.32,0,0,1,.32-.33A.33.33,0,0,1,259,122.22Z"/><ellipse cx="266.95" cy="139.28" rx="3.94" ry="4.19"/><ellipse class="cls-13" cx="266.95" cy="139.31" rx="2.32" ry="2.6"/><ellipse class="cls-14" cx="266.95" cy="139.31" rx="1.3" ry="1.45"/><ellipse cx="266.95" cy="110.28" rx="3.94" ry="4.19"/><ellipse class="cls-13" cx="266.95" cy="110.32" rx="2.32" ry="2.6"/><ellipse class="cls-14" cx="266.95" cy="110.32" rx="1.3" ry="1.45"/><path class="cls-18" d="M263.91,154.39h.76s-.42-3.54.93-3.54,1.23-.18,1.23,2.43-.89,2.48-1.69,2.48S264,155,263.91,154.39Z"/><path class="cls-18" d="M263.87,101.31h1.82s.63-4.21-.55-4.25S263.62,98.69,263.87,101.31Z"/></g></g></svg>