<svg xmlns="http://www.w3.org/2000/svg" xmlns:xlink="http://www.w3.org/1999/xlink" viewBox="0 0 320 186"><defs><style>.cls-1{isolation:isolate;}.cls-2{fill:url(#linear-gradient);}.cls-3{fill:url(#linear-gradient-2);}.cls-4{fill:url(#linear-gradient-3);}.cls-5{fill:url(#linear-gradient-4);}.cls-18,.cls-19,.cls-6{fill:#fff;}.cls-7{fill:url(#linear-gradient-5);}.cls-8{fill:url(#linear-gradient-6);}.cls-9{fill:url(#linear-gradient-7);}.cls-10{fill:url(#linear-gradient-8);}.cls-11{fill:url(#linear-gradient-9);}.cls-12{fill:url(#linear-gradient-10);}.cls-13{fill:url(#linear-gradient-11);}.cls-14,.cls-18{opacity:0.8;}.cls-15,.cls-21,.cls-25,.cls-26,.cls-27,.cls-28,.cls-43{opacity:0.3;}.cls-15,.cls-21,.cls-25,.cls-27,.cls-28{mix-blend-mode:multiply;}.cls-16{fill:url(#linear-gradient-12);}.cls-17{fill:url(#linear-gradient-13);}.cls-19{opacity:0.4;mix-blend-mode:soft-light;}.cls-20{fill:url(#linear-gradient-14);}.cls-21{fill:url(#linear-gradient-15);}.cls-22{fill:url(#linear-gradient-16);}.cls-23{fill:url(#linear-gradient-17);}.cls-24{fill:url(#linear-gradient-18);}.cls-25{fill:url(#linear-gradient-19);}.cls-26{fill:url(#linear-gradient-20);}.cls-27{fill:url(#linear-gradient-21);}.cls-28{fill:url(#linear-gradient-22);}.cls-29{fill:url(#linear-gradient-23);}.cls-30{fill:url(#linear-gradient-24);}.cls-31,.cls-43{fill:#443982;}.cls-32{fill:#ffa4a6;}.cls-33{fill:#ffd47b;}.cls-34{fill:#6c67c3;}.cls-35{fill:#f3f0f4;}.cls-36,.cls-37,.cls-38,.cls-40,.cls-41,.cls-42,.cls-46{fill:none;stroke-miterlimit:10;}.cls-36,.cls-38{stroke:#6c67c3;}.cls-36,.cls-40{stroke-width:1.58px;}.cls-37,.cls-42{stroke:#f3f0f4;}.cls-37{stroke-width:1.66px;}.cls-38{stroke-width:1.74px;}.cls-39{fill:#ff8096;}.cls-40{stroke:#ff576f;}.cls-41{stroke:#ff8389;stroke-width:1.31px;}.cls-42{stroke-width:0.87px;}.cls-44{fill:#ff8389;}.cls-45{fill:#25225f;}.cls-46{stroke:#ea4b59;stroke-width:1.23px;}</style><linearGradient id="linear-gradient" x1="4462.35" y1="158.23" x2="4477.31" y2="143.48" gradientTransform="matrix(-1, 0, 0, 1, 4503.22, 0)" gradientUnits="userSpaceOnUse"><stop offset="0" stop-color="#aa80f9"/><stop offset="1" stop-color="#6165d7"/></linearGradient><linearGradient id="linear-gradient-2" x1="4345.04" y1="193.58" x2="4375.85" y2="163.2" xlink:href="#linear-gradient"/><linearGradient id="linear-gradient-3" x1="4347.87" y1="165.6" x2="4380.05" y2="165.6" gradientTransform="matrix(-1, 0, 0, 1, 4503.22, 0)" gradientUnits="userSpaceOnUse"><stop offset="0" stop-color="#444b8c"/><stop offset="1" stop-color="#3e4177"/></linearGradient><linearGradient id="linear-gradient-4" x1="4396.38" y1="130.1" x2="4366.91" y2="187.88" gradientTransform="matrix(-1, 0, 0, 1, 4503.22, 0)" gradientUnits="userSpaceOnUse"><stop offset="0" stop-color="#ebeff2"/><stop offset="0.99" stop-color="#b7c0ce"/></linearGradient><linearGradient id="linear-gradient-5" x1="4453.29" y1="150.89" x2="4479.64" y2="150.89" xlink:href="#linear-gradient-3"/><linearGradient id="linear-gradient-6" x1="4493.71" y1="120.49" x2="4468.47" y2="169.97" xlink:href="#linear-gradient-4"/><linearGradient id="linear-gradient-7" x1="4206.21" y1="161.97" x2="4245.41" y2="161.97" xlink:href="#linear-gradient-3"/><linearGradient id="linear-gradient-8" x1="4263.61" y1="122.65" x2="4230.15" y2="188.23" xlink:href="#linear-gradient-3"/><linearGradient id="linear-gradient-9" x1="4231.57" y1="162.59" x2="4251.82" y2="162.59" xlink:href="#linear-gradient-3"/><linearGradient id="linear-gradient-10" x1="4255.87" y1="246.34" x2="3983" y2="590.34" xlink:href="#linear-gradient"/><linearGradient id="linear-gradient-11" x1="4277.81" y1="113.86" x2="4260.63" y2="209.93" xlink:href="#linear-gradient"/><linearGradient id="linear-gradient-12" x1="4222.03" y1="139.85" x2="4286.68" y2="139.85" xlink:href="#linear-gradient"/><linearGradient id="linear-gradient-13" x1="4226.71" y1="146.73" x2="4280.44" y2="146.73" xlink:href="#linear-gradient"/><linearGradient id="linear-gradient-14" x1="97.54" y1="145.93" x2="58.23" y2="128" gradientTransform="matrix(1, 0, 0, 1, 0, 0)" xlink:href="#linear-gradient"/><linearGradient id="linear-gradient-15" x1="4408.88" y1="186.25" x2="4489.4" y2="106.87" xlink:href="#linear-gradient"/><linearGradient id="linear-gradient-16" x1="4254.44" y1="89.79" x2="4396.93" y2="89.79" xlink:href="#linear-gradient-3"/><linearGradient id="linear-gradient-17" x1="4422.55" y1="88.72" x2="4469.73" y2="88.72" xlink:href="#linear-gradient-3"/><linearGradient id="linear-gradient-18" x1="4388.92" y1="92.39" x2="4435.78" y2="92.39" xlink:href="#linear-gradient-3"/><linearGradient id="linear-gradient-19" x1="4285.66" y1="135.87" x2="4353.15" y2="69.33" xlink:href="#linear-gradient-3"/><linearGradient id="linear-gradient-20" x1="4389.98" y1="111.08" x2="4392.21" y2="108.88" xlink:href="#linear-gradient-3"/><linearGradient id="linear-gradient-21" x1="4413.71" y1="113.67" x2="4432.89" y2="94.76" xlink:href="#linear-gradient-3"/><linearGradient id="linear-gradient-22" x1="4439.82" y1="102.17" x2="4459.29" y2="82.97" xlink:href="#linear-gradient-3"/><linearGradient id="linear-gradient-23" x1="4398.2" y1="111.64" x2="4425.05" y2="85.17" xlink:href="#linear-gradient"/><linearGradient id="linear-gradient-24" x1="165.04" y1="131.19" x2="109.28" y2="107.97" gradientTransform="matrix(1, 0, 0, 1, 0, 0)" xlink:href="#linear-gradient"/></defs><g class="cls-1"><g id="Layer_2" data-name="Layer 2"><g id="Layer_1-2" data-name="Layer 1"><path class="cls-2" d="M13.58,148.45H35.71l-6.27-18.62S13.38,133.45,13.58,148.45Z"/><path class="cls-3" d="M145.26,175.78l-36.72-6.06s-3.34-25.21,13.08-27.61S146.84,159.25,145.26,175.78Z"/><path class="cls-4" d="M143.45,146.12h0a8.16,8.16,0,0,1,3.24,1.07c1,.45,2.22,1,2.22,1.67h0c3.87,3.58,6.41,10.2,6.43,17.6,0,9.86-4.49,17.83-10.44,18.75h0c-.4.05-5.39,1.66-21.09.07-.42-6-.67-40-.67-40S135.72,144.74,143.45,146.12Z"/><path class="cls-5" d="M112.09,164.58c0,11.28,5.87,20.63,13,20.86s12.53-8.42,12.51-19.32-5.57-20.18-12.53-20.79S112.09,153.31,112.09,164.58Z"/><path class="cls-6" d="M117.65,164.84c0,8,3.92,14.65,8.68,14.85s8.47-6,8.46-13.81-3.78-14.45-8.48-14.82S117.65,156.84,117.65,164.84Z"/><path class="cls-7" d="M40,134.11h0a7.42,7.42,0,0,1,2.88.92c.82.39.6.85,2.05,1.44h0a26,26,0,0,1,5,15.16c0,8.49-3.76,15.36-8.59,16.15h0c-.33,0-4.4,1.42-17.15.06-.33-5.17-.55-34.44-.55-34.44S33.75,132.92,40,134.11Z"/><path class="cls-8" d="M14.58,150c0,9.71,4.76,17.77,10.53,18s10.17-7.26,10.15-16.64S30.74,134,25.09,133.43,14.58,140.3,14.58,150Z"/><path class="cls-6" d="M19.1,150.23c0,6.89,3.17,12.63,7,12.8S33,157.86,33,151.13s-3.07-12.44-6.88-12.77S19.09,143.34,19.1,150.23Z"/><path class="cls-9" d="M282.28,138.18h0a9.35,9.35,0,0,1,3.81,1.21,5,5,0,0,1,2.55,2v0C294,145.27,297,153,297,161.81c0,11.78-5.64,21.49-13.1,22.83H284c-.5.08-6.62,2.15-25.44.92-.48-6.84-.73-45.94-.73-45.94S272.8,137.32,282.28,138.18Z"/><ellipse class="cls-10" cx="260.03" cy="162.68" rx="15" ry="22.98"/><ellipse class="cls-11" cx="261.52" cy="162.59" rx="10.12" ry="16.43"/><path class="cls-12" d="M8.72,139.6a6.12,6.12,0,0,0,1.8,5.92l3.05,2.94c.84-8.68,5.89-15.36,12-15.36,6.69,0,12.12,8,12.12,17.9a24.9,24.9,0,0,1-.87,6.64l1.34.49L110.33,170a27.22,27.22,0,0,1-.56-4.09c0-1.26,0-2.49,0-3.69v0c2.42-10.23,8.3-18,16.39-18,9,0,16.5,9.74,16.5,21.74a27.74,27.74,0,0,1-1.47,9.18l10.8,1.77a1,1,0,0,0,.06.23c.34.32,2.95,2.37,15.7,2.37H308.48a10.87,10.87,0,0,0,11.13-10.61v-.47a5.5,5.5,0,0,0-3.36-5.12,38.61,38.61,0,0,0,.81-21.82,36.78,36.78,0,0,0-7.62-14.66,46.87,46.87,0,0,0-9-8.15s-16-11.82-45.41-14.9c0,0-24.35-15.75-46.64-26.19a83.32,83.32,0,0,0-35.46-7.78H91.41a83.28,83.28,0,0,0-40,10.13L30.15,91.58a37,37,0,0,0-10.24,9.12C14,108,8,120.17,9.22,138.72l-.5.88Z"/><path class="cls-13" d="M152,176.88a1.89,1.89,0,0,0,.05.23c1,.54,2.22,3.23,34.87,2.37H308.48a10.87,10.87,0,0,0,11.13-10.61v-.47c0-.12.19-.24.18-.37a5.62,5.62,0,0,0-3.44-4.75l-141.54,1.19s-13.35-2.17-17.93,0a2.59,2.59,0,0,0-1.33,1.17C153.62,169.54,151.11,175,152,176.88Z"/><g class="cls-14"><path class="cls-6" d="M284.4,141.71v1.64a4.44,4.44,0,0,0,1.62,3.38,5.64,5.64,0,0,0,3.85,1.29l15.14-.57a15.45,15.45,0,0,0,9.66-3.77l2.49-2.22a36.93,36.93,0,0,0-7.67-14.66l-.16,0-7.27,5.1a30.52,30.52,0,0,1-13.25,5.17A4.88,4.88,0,0,0,284.4,141.71Z"/></g><g class="cls-15"><path class="cls-16" d="M217.2,139.83a6.2,6.2,0,0,0,3.69,1.94h56.67a4.66,4.66,0,0,0,3.23-1.93h0c.74-1.06.4-1.91-.76-1.91H217.52c-1.16,0-1.32.86-.32,1.91Z"/><path class="cls-17" d="M223.59,146.72a6.23,6.23,0,0,0,3.42,2h46.06a4.61,4.61,0,0,0,2.94-2h0c.79-1.11.62-2-.35-2H223.47c-1,0-.93.89.12,2Z"/></g><path class="cls-18" d="M200.74,148.37c3.45-.08,6.2-2.31,6.2-5v-1.65c0-2.59-2.5-4.75-5.76-5l-6.16-.48-36.63-8.58.8,4.1c1.21,6.21,6.54,11.43,14,13.7l5.44,1.66a35.9,35.9,0,0,0,11.25,1.53Z"/><path class="cls-19" d="M156.91,164.57l15.28,3.72H320a5.77,5.77,0,0,0-3.54-4.88l-141.6,1.19S161.48,162.43,156.91,164.57Z"/><path class="cls-20" d="M60.65,155.39h0c.49-.86.88-.6.87-1,0-.27-.88-26.73,0-37.46.76-9.3,2.51-11,2.67-11.11a.78.78,0,0,0,.39-1,.94.94,0,0,0-1.16-.46c-.64.23-2.81,1.79-3.67,12.36-.89,10.81,0,37.46,0,37.73A1,1,0,0,0,60.65,155.39Z"/><path class="cls-21" d="M8.72,139.6l.49-.88C8,120.17,14,108,19.9,100.7c3.71.19,8.67,1.83,8.29,9.31-.58,11.81,2.07,17.91,12.16,23.31,4.79,2.56,10,4.76,14.29,8,3.8,2.93,5.57,7.43,9.43,10.18,6.54,4.66,15.41,2.59,23,2.28,6.94-.28,22.66-.57,22.66,8.4v0c0,1.2,0,2.43,0,3.69a28.57,28.57,0,0,0,.57,4.09L38.17,158.13l-1.34-.49a25.31,25.31,0,0,0,.86-6.64c0-9.88-5.43-17.9-12.12-17.9-6.11,0-11.16,6.68-12,15.36l-3.05-2.94A6.12,6.12,0,0,1,8.72,139.6Z"/><path class="cls-22" d="M106.29,75.38s9.5,21.63,11.87,24.8a5.09,5.09,0,0,0,.84,1c3.29,2.44,11.33,3,11.33,3H248.77a407.5,407.5,0,0,0-49-28.82Z"/><path class="cls-23" d="M33.48,93.56s12.64,4.59,29.62,8.92A48.33,48.33,0,0,1,66,94,51,51,0,0,1,80.67,75a86.45,86.45,0,0,0-20,3.64A76.24,76.24,0,0,0,33.48,93.56Z"/><path class="cls-24" d="M67.44,103.56a262.74,262.74,0,0,0,27,5.12c5.26.68,10.49,1.14,15.52,1.28,1.47,0,2.93.05,4.36,0a0,0,0,0,0,0,0c-.22-.84-9.22-33.67-17.58-34.64a86,86,0,0,0-8.79-.57A48,48,0,0,0,70.69,94.39,46.94,46.94,0,0,0,67.44,103.56Z"/><path class="cls-25" d="M119,101.15c3.29,2.44,11.33,3,11.33,3H248.77a407.5,407.5,0,0,0-49-28.82h-1.67a16.7,16.7,0,0,0-7.45,5.81C181.5,92.81,130.87,84,119,101.15Z"/><path class="cls-26" d="M109.94,110c1.47,0,2.93.05,4.36,0a0,0,0,0,0,0,0Z"/><path class="cls-27" d="M70.69,94.39a46.94,46.94,0,0,0-3.25,9.17,262.74,262.74,0,0,0,27,5.12,17.63,17.63,0,0,1-3.55-4.41C86.29,96.39,78.19,95,70.69,94.39Z"/><path class="cls-28" d="M33.48,93.56s12.64,4.59,29.62,8.92A48.33,48.33,0,0,1,66,94c-4.52-.4-8.43-1-10.67-3.42-3.92-4.22,1-8.94,5.37-12A76.24,76.24,0,0,0,33.48,93.56Z"/><path class="cls-29" d="M114.63,111.54s-3.75-13.17-9.08-13.69S85,93.46,83.65,100s1.38,9.74,9.07,10.14a109.49,109.49,0,0,0,12.83,0l3.55,3.38S114.82,117,114.63,111.54Z"/><path class="cls-30" d="M116.4,111.54s-3.75-13.17-9.07-13.69S86.81,93.46,85.42,100s1.39,9.74,9.08,10.14a109.49,109.49,0,0,0,12.83,0l3.55,3.38S116.6,117,116.4,111.54Z"/><polygon class="cls-31" points="70.36 63.05 66.93 61.05 68.22 67.83 71.75 66.94 70.36 63.05"/><path class="cls-32" d="M83.59,86.1l-2.13.22h-.21l-1,.1-2.35.24h0l-7,.7L49.24,89.56,41,85l-4.8-2.63-1.34-.75-16-9h0a24.62,24.62,0,0,1,5.92-4.12h0a45.12,45.12,0,0,1,11.76-4.14L38.54,64c1-.17,1.91-.31,2.94-.44q1-.12,2-.21h0l.58-.05.7,0c.6-.05,1.21-.08,1.83-.11a15.49,15.49,0,0,0,1.76-.47,8.73,8.73,0,0,0,2.71-1.31l16.71,2.22v0a6.08,6.08,0,0,0,4,3.31c.49.13,1,.28,1.66.47l1.28.42,1,.35c.73.28,1.51.59,2.32,1h0a13.91,13.91,0,0,1,2.48,2.74,16.8,16.8,0,0,1,2,8.15A32.29,32.29,0,0,1,83.59,86.1Z"/><path class="cls-33" d="M77.15,111.07c-6.27,8.66-1.62,36-1.62,36H21.66L18.9,72.68h0l27.68-9.5L60.15,82.66,62.92,84,63,84l8-4.63.2-4.49,0-.62.2-.36,3.32-6.06a6.42,6.42,0,0,1,2.56.83l0,0a6.49,6.49,0,0,1,.6.37l.13.09a13.91,13.91,0,0,1,2.48,2.74,16.8,16.8,0,0,1,2,8.15,32.29,32.29,0,0,1,1.09,6.07A36.55,36.55,0,0,1,77.15,111.07Z"/><path class="cls-31" d="M80.31,178.76H18.22a143.92,143.92,0,0,1,.05-21.2,67.22,67.22,0,0,1,3.18-16.36,32.08,32.08,0,0,1,1.65-4,24.56,24.56,0,0,1,1.44-2.58c.25-.4.51-.79.78-1.16H74.73l.39,3.13,2.71,22Z"/><path class="cls-34" d="M18.44,119.24S3,142.55,2.41,156.94l44.49,1.73,1.33-37.14Z"/><polygon class="cls-35" points="34.85 140.39 16.42 135.44 17.18 132.68 35.62 137.63 34.85 140.39"/><path class="cls-34" d="M70.89,87.38l.06-8-.6-.74s.32-1.68.8-3.75c.06-.32.14-.65.22-1,.61-2.63,1.4-5.53,2-6.48.15-.21.28-.32.41-.32a10.89,10.89,0,0,1,3.43,1.57l0,0,.6.37.12.09h0a13.91,13.91,0,0,1,2.48,2.74C89.78,85.24,84,119,84,119l3.3,18,.52,2.82,3.44,18.8H70.35l.09-11.59Z"/><polygon class="cls-35" points="87.84 139.87 78.22 142.45 77.46 139.69 87.32 137.05 87.84 139.87"/><path class="cls-34" d="M50.24,63.17l-1.09,57.36H8.09l11.18-49S29.07,62.68,50.24,63.17Z"/><path class="cls-35" d="M51.67,59.57S51.36,74.43,63,84L49.19,77.85,49.7,72,43,70.55s.65-10.61,2.1-11.55l6.72-.74Z"/><path class="cls-35" d="M63,84s9.08-8.21,7.39-21l4.58,3.52s.86,7.61.5,9.41l-3.39-.19L73.8,79.5Z"/><polygon class="cls-31" points="68.38 102.29 41.79 107.29 35.76 76.25 62.35 71.24 68.38 102.29"/><polygon class="cls-35" points="68.38 102.29 65.74 102.78 59.72 71.74 62.35 71.24 68.38 102.29"/><line class="cls-36" x1="39.23" y1="75.59" x2="45.26" y2="106.64"/><polygon class="cls-33" points="58.75 111.43 52.16 116.34 19.81 74.2 26.39 69.3 58.75 111.43"/><line class="cls-37" x1="29.27" y1="73.04" x2="25.75" y2="75.67"/><line class="cls-37" x1="31.74" y1="76.26" x2="28.22" y2="78.89"/><line class="cls-37" x1="34.05" y1="79.27" x2="30.53" y2="81.89"/><line class="cls-37" x1="36.52" y1="82.49" x2="33" y2="85.11"/><line class="cls-37" x1="38.83" y1="85.49" x2="35.31" y2="88.12"/><line class="cls-37" x1="41.3" y1="88.71" x2="37.78" y2="91.34"/><line class="cls-37" x1="43.61" y1="91.72" x2="40.09" y2="94.34"/><line class="cls-37" x1="46.08" y1="94.94" x2="42.56" y2="97.56"/><line class="cls-37" x1="48.74" y1="98.4" x2="45.22" y2="101.02"/><line class="cls-37" x1="51.21" y1="101.62" x2="47.69" y2="104.24"/><line class="cls-37" x1="53.87" y1="105.08" x2="50.35" y2="107.7"/><line class="cls-37" x1="56.34" y1="108.3" x2="52.82" y2="110.92"/><rect class="cls-33" x="48.77" y="80.65" width="27.08" height="38.07" transform="translate(-0.61 0.39) rotate(-0.35)"/><rect class="cls-35" x="73.16" y="80.58" width="2.68" height="38.07" transform="translate(-0.61 0.46) rotate(-0.35)"/><line class="cls-38" x1="52.19" y1="80.71" x2="52.43" y2="118.78"/><polygon class="cls-39" points="61.77 122.23 35.19 127.3 29.09 96.27 55.67 91.2 61.77 122.23"/><polygon class="cls-35" points="61.77 122.23 59.14 122.73 53.04 91.7 55.67 91.2 61.77 122.23"/><line class="cls-40" x1="32.56" y1="95.6" x2="38.66" y2="126.63"/><path class="cls-32" d="M31.26,128.69a2,2,0,0,0,2.5,1.9c-1.61,3,1.68,3.47,1.68,3.47-.19,3,3.6,2.48,3.6,2.48-.4,4.54,12.33,1.11,12.33,1.11l7.27,1.12A45.78,45.78,0,0,1,60.11,128L58,127.8a23,23,0,0,1-14.06-7l-1.8-1.54a1,1,0,0,0-1.64,1,40.66,40.66,0,0,0,1.8,5C40.05,126.17,31.08,126.24,31.26,128.69Z"/><line class="cls-41" x1="33.76" y1="130.59" x2="36.92" y2="129.89"/><line class="cls-41" x1="35.44" y1="134.06" x2="38.14" y2="133.38"/><line class="cls-41" x1="39.04" y1="136.54" x2="40.89" y2="136.27"/><path class="cls-34" d="M99.49,113.07a13.14,13.14,0,0,1-3.2,8c-.47.54-1,1.13-1.58,1.76a56.64,56.64,0,0,1-32.5,17.43,53.94,53.94,0,0,1-6.38.6h-.08l-2.06-11.09,0-.3-.08-.4,1.09-.84,1.92-1.46.8-.62,1.89-1.44,18.57-14.21L76.54,77.45,78.93,70S93.36,84.4,98.05,101.53A37.5,37.5,0,0,1,99.49,113.07Z"/><polygon class="cls-35" points="53.56 129.11 55.98 141.71 62.32 140.9 59.75 126.84 53.56 129.11"/><path class="cls-31" d="M59.11,139.69a1.29,1.29,0,0,1-1.75-.46,1.26,1.26,0,0,1,.47-1.73,1.29,1.29,0,0,1,1.75.47A1.25,1.25,0,0,1,59.11,139.69Z"/><line class="cls-42" x1="77.15" y1="93.39" x2="80.07" y2="107.52"/><line class="cls-42" x1="82.73" y1="105.24" x2="77" y2="109.66"/><path class="cls-43" d="M99.49,113.07a13.14,13.14,0,0,1-3.2,8c-.47.54-1,1.13-1.58,1.76a11.63,11.63,0,0,1,3.34-21.33A37.5,37.5,0,0,1,99.49,113.07Z"/><polygon class="cls-32" points="68.76 69.13 49.06 66.67 53.23 54.34 55 49.11 67.68 50.73 68.49 64.47 68.76 69.13"/><path class="cls-44" d="M68.49,64.75A23.08,23.08,0,0,1,53.23,54.62L55,49.39,67.69,51Z"/><ellipse class="cls-31" cx="40.17" cy="9.01" rx="9.15" ry="9.01"/><ellipse class="cls-35" cx="52.32" cy="17.92" rx="9.15" ry="9.01"/><path class="cls-31" d="M87.64,29.19a26.85,26.85,0,0,0-.46-4A24.87,24.87,0,0,0,75,7.85a21.08,21.08,0,0,0-5.48-2.11h0c-.71-.16-1.43-.29-2.16-.38a20.92,20.92,0,0,0-2.86-.14c-.76,0-1.48,0-2.2.11A23.33,23.33,0,0,0,51.31,9a17.57,17.57,0,0,0-2.12,1.6,19.81,19.81,0,0,0-2.29,2.29h0l-.52.65-.49.63a21.06,21.06,0,0,0-1.28,2,0,0,0,0,0,0,0c-.16.27-.3.56-.45.84,0,.06,0,.11-.08.16l-.18.37a15.6,15.6,0,0,0-.65,1.51l-.09.24h0a1.13,1.13,0,0,0-.08.24,3.12,3.12,0,0,0-.15.39c-.12.32-.21.61-.31.95a0,0,0,0,1,0,0c-.16.52-.29,1-.41,1.58a24.57,24.57,0,0,0-.53,3A30.29,30.29,0,0,0,41.49,30a28,28,0,0,0,.29,2.92,1.57,1.57,0,0,0,0,.23,24.81,24.81,0,0,0,.61,2.58c0,.08,0,.17.08.26.08.3.18.6.28.89.18.53.38,1,.59,1.56s.52,1.18.81,1.75l.13.24h0a19.88,19.88,0,0,0,1.28,2.19A28.84,28.84,0,0,0,47.35,45c.37.44.75.88,1.14,1.29s.67.69,1,1a26.89,26.89,0,0,0,3.91,3.08c.31.2.63.4,1,.59l.08,0,.54.31a23.43,23.43,0,0,0,2.69,1.26,22.63,22.63,0,0,0,3.79,1.13,20.16,20.16,0,0,0,2.79.4q1,.07,2,.06c.54,0,1.07,0,1.59-.11h0a20.69,20.69,0,0,0,3.44-.65c.53-.15,1-.31,1.55-.5l.58-.22A13.84,13.84,0,0,0,74.92,52a19.83,19.83,0,0,0,2.48-1.45h0a22.57,22.57,0,0,0,5.35-5.16.76.76,0,0,1,.08-.11,24.89,24.89,0,0,0,4.41-10.4c.07-.36.12-.73.17-1.1a26.37,26.37,0,0,0,.22-2.69v0Q87.67,30.14,87.64,29.19Z"/><path class="cls-32" d="M50.05,37.09c-3.17-4.48-7-4.58-8.53.84s4,9.73,8.28,8S50.05,37.09,50.05,37.09Z"/><path class="cls-41" d="M44.55,37.46l3.16,3.85a.67.67,0,0,1-.56,1.09l-1.28,0"/><path class="cls-32" d="M81.25,49.5a18.26,18.26,0,0,1-1.31,2.38c-2.82,4.36-7.38,7.24-14.64,6.68A13.51,13.51,0,0,1,54.14,51.7h0c-.16-.27-.31-.55-.46-.83h0A21.09,21.09,0,0,1,52.42,48h0c-3.84-10.81-.79-26-.79-26l31.72-.6S86.42,38.48,81.25,49.5Z"/><path class="cls-31" d="M45.16,23.87l7.61,3.84c.47-6.23,14-6,14-6s.67,0,1.73.07c.73,0,1.66.11,2.68.21,4.49.48,10.76,1.74,10.44,5l2.77-2.49-.66-5.82-9.24-3.25L52.87,14.23Z"/><path class="cls-31" d="M83.45,42.67c4.94-4.43,2-16.54,2-16.54l-2.46-1.52-.89-1.5s-1.31,7.4-.68,12.82C81.93,40.71,83.45,42.67,83.45,42.67Z"/><path class="cls-31" d="M51.23,41.28c-4.53-4.85-.47-16.65-.47-16.65l2.59-1.3,1-1.42S55,29.4,53.9,34.74C52.92,39.45,51.23,41.28,51.23,41.28Z"/><polygon class="cls-31" points="83.58 29.04 76.36 28.73 74.81 22.34 73.11 28.59 68.12 28.37 67.77 23.65 66.99 28.32 62.01 28.11 60.86 21.73 58.76 27.97 52.77 27.71 50.04 23.75 52.74 20.9 62.17 13.83 81.81 18.02 83.58 29.04"/><path class="cls-44" d="M81.7,45.32c-.06,1.3-2.16,2.27-4.68,2.16s-4.53-1.25-4.47-2.56,2.15-2.27,4.68-2.16S81.76,44,81.7,45.32Z"/><path class="cls-44" d="M61.75,44.45c-.06,1.31-2.16,2.27-4.68,2.17s-4.53-1.26-4.47-2.56,2.15-2.27,4.68-2.16S61.81,43.15,61.75,44.45Z"/><path class="cls-45" d="M79.45,38.6h0a.41.41,0,0,0,.06-.61,3.85,3.85,0,0,0-2.22-1.11A4.69,4.69,0,0,0,73.89,38a.4.4,0,0,0-.06.59h0a.42.42,0,0,0,.57.05,3.84,3.84,0,0,1,2.8-1,3,3,0,0,1,1.72.87A.42.42,0,0,0,79.45,38.6Z"/><path class="cls-45" d="M56.91,38.22h0a.4.4,0,0,1,0-.61,3.91,3.91,0,0,1,2.3-.91,4.68,4.68,0,0,1,3.29,1.44.4.4,0,0,1,0,.59h0a.42.42,0,0,1-.57,0,3.85,3.85,0,0,0-2.7-1.22,3.05,3.05,0,0,0-1.8.72A.41.41,0,0,1,56.91,38.22Z"/><path class="cls-31" d="M57.86,31.49c5.19-.38,7.91-2.16,3.39-2.19S55.17,31.69,57.86,31.49Z"/><path class="cls-31" d="M78.28,32c-5.13-.82-7.69-2.84-3.18-2.48S81,32.42,78.28,32Z"/><path class="cls-35" d="M81.2,33a6.53,6.53,0,0,0-4-1.36,4.87,4.87,0,0,0-.54,0,6.57,6.57,0,0,0-6,5.13,4.12,4.12,0,0,0-1.06-.57,3,3,0,0,0-1-.18h0a3,3,0,0,0-1.82.64h0A6.63,6.63,0,0,0,53.67,38a6.47,6.47,0,0,0,1.42,4.07,6.64,6.64,0,0,0,5.16,2.49,6.27,6.27,0,0,0,1.5-.16,6.61,6.61,0,0,0,4.89-4.49,6.37,6.37,0,0,0,.27-1.59,2.3,2.3,0,0,1,1.69-1h0a2.1,2.1,0,0,1,.93.27,3.92,3.92,0,0,1,1,.79,6.5,6.5,0,0,0,2.92,5.22,6.67,6.67,0,0,0,9.36-2,6.41,6.41,0,0,0,1-3.33A6.48,6.48,0,0,0,81.2,33Zm-20,10.23a5.62,5.62,0,0,1-.92.07,5.36,5.36,0,0,1-3.62-1.43A5.17,5.17,0,0,1,55,38a5.35,5.35,0,1,1,6.23,5.24Zm18-.19a5.36,5.36,0,0,1-7.35-4.92,5.32,5.32,0,0,1,5.39-5.23,5.39,5.39,0,0,1,4.08,1.9,5.18,5.18,0,0,1,1.23,3.41,5.07,5.07,0,0,1-.3,1.7A5.28,5.28,0,0,1,79.15,43.06Z"/><polyline class="cls-41" points="68.74 40.07 69.05 46.57 66.61 46.46"/><path class="cls-46" d="M62.29,47.78c1.54,2.51,4.93,3,8.06,2.27"/><path class="cls-32" d="M86.13,118.46a2,2,0,0,1-2.59,1.79c1.48,3-1.83,3.38-1.83,3.38C81.77,126.68,78,126,78,126c.19,4.55-12.38.57-12.38.57l-7.31.81a46,46,0,0,0-1-10.84l2.12-.09A23,23,0,0,0,73.83,110l1.86-1.46a1,1,0,0,1,1.6,1.09,41.06,41.06,0,0,1-2,4.89C77.46,115.55,86.41,116,86.13,118.46Z"/><line class="cls-41" x1="83.54" y1="120.25" x2="80.42" y2="119.41"/><line class="cls-41" x1="81.71" y1="123.63" x2="79.04" y2="122.84"/><line class="cls-41" x1="78.01" y1="125.96" x2="76.17" y2="125.61"/><path class="cls-34" d="M59.38,116.87l-2,9.32L57,127.85l-.27,1.26s-1.14.18-3.11.4h0l-2.31.24h0c-9.42.85-29.17,1.54-43.56-5.47l-.27-.13a14.56,14.56,0,0,1-1.44-.83,13.07,13.07,0,0,1-6-10.91,30.85,30.85,0,0,1,1.26-8.18l.12-.42c4.4-15.26,17.89-32.27,17.89-32.27l-1.42,9.91s13,11.92,13.42,12.43S27,100.09,25,102.54l-.71.87h0l-.18.21s2.87.73,7,1.94l.13,0a171.38,171.38,0,0,1,21.6,7.68A41.55,41.55,0,0,1,59.38,116.87Z"/><polygon class="cls-35" points="52.87 113.2 59.75 114.76 59.01 129.93 51.28 129.75 52.87 113.2"/><path class="cls-31" d="M56,128.32a1.28,1.28,0,0,1-1.75-.47,1.25,1.25,0,0,1,.47-1.72,1.29,1.29,0,0,1,1.75.47A1.25,1.25,0,0,1,56,128.32Z"/><line class="cls-42" x1="19.39" y1="101.87" x2="31.26" y2="105.6"/><line class="cls-42" x1="24.09" y1="103.62" x2="30.32" y2="96.03"/><path class="cls-42" d="M15.49,126.67s17,5.45,33.28,3.22"/><path class="cls-43" d="M11.88,115.43a11.62,11.62,0,0,1-4.12,8.85l-.27-.13a14.56,14.56,0,0,1-1.44-.83,13.07,13.07,0,0,1-6-10.91,30.85,30.85,0,0,1,1.26-8.18l.12-.42A11.77,11.77,0,0,1,11.88,115.43Z"/></g></g></g></svg>