<svg xmlns="http://www.w3.org/2000/svg" xmlns:xlink="http://www.w3.org/1999/xlink" viewBox="0 0 103.18 86.72"><defs><style>.cls-1{isolation:isolate;}.cls-2{mix-blend-mode:luminosity;}.cls-3{fill:url(#linear-gradient);}.cls-4{opacity:0.3;fill:url(#linear-gradient-2);}.cls-4,.cls-8{mix-blend-mode:multiply;}.cls-5{fill:url(#linear-gradient-3);}.cls-6{fill:url(#linear-gradient-4);}.cls-7{fill:#fff;}.cls-8{opacity:0.2;fill:url(#linear-gradient-5);}</style><linearGradient id="linear-gradient" y1="76.12" x2="103.18" y2="76.12" gradientUnits="userSpaceOnUse"><stop offset="0" stop-color="#ffc444"/><stop offset="1" stop-color="#f36f56"/></linearGradient><linearGradient id="linear-gradient-2" x1="77.06" y1="60.87" x2="59.62" y2="108.94" gradientUnits="userSpaceOnUse"><stop offset="0" stop-color="#ffc444"/><stop offset="0.59" stop-color="#f8924f"/><stop offset="1" stop-color="#f36f56"/></linearGradient><linearGradient id="linear-gradient-3" x1="59.05" y1="54.01" x2="40.57" y2="104.93" xlink:href="#linear-gradient-2"/><linearGradient id="linear-gradient-4" x1="51.96" y1="-22.46" x2="48.21" y2="99.8" xlink:href="#linear-gradient"/><linearGradient id="linear-gradient-5" x1="19.1" y1="39.11" x2="58.5" y2="39.11" xlink:href="#linear-gradient"/></defs><g class="cls-1"><g id="Layer_2" data-name="Layer 2"><g id="Layer_1-2" data-name="Layer 1"><g class="cls-2"><path class="cls-3" d="M103.18,75.75v3.76c0,1-.49,1.76-1.15,1.85L43.31,86.68a4.05,4.05,0,0,1-1.3,0l-.34-.07L.75,78.87A1.34,1.34,0,0,1,0,77.52v-4l43.41-5.38L49,65.52l5.55.8,3.28-.63,7.5,2.19Z"/><path class="cls-4" d="M103.18,75.75v3.76c0,1-.49,1.76-1.15,1.85L43.32,86.68a4.33,4.33,0,0,1-1.31,0V66.38l7-.86,5.55.8,3.28-.63,7.5,2.19Z"/><path class="cls-5" d="M57.83,65.69,0,73.37l41.71,7.86a4.11,4.11,0,0,0,1.56.09l59.91-5.57Z"/><path class="cls-6" d="M79,72.63c0,2.75-8.66,4.89-20.63,5.45-3,.14-6.25.18-9.6.1-16.47-.38-29.7-3.44-29.7-6.83a1.21,1.21,0,0,1,0-.25h0l.07-.16a.44.44,0,0,1,.06-.16L23,60.85l4.58-12L34,32.08,39,19.23l6.12-16c.76-2,2.18-3.24,3.71-3.24a2.56,2.56,0,0,1,.62.07,4.72,4.72,0,0,1,3.11,3.18l6.17,16.09-.55,6.44,5.47,6.59,6.5,17.12h0l-3.94,6.27,8.61,6h.07l3.89,10A1.61,1.61,0,0,1,79,72.63Z"/><path class="cls-7" d="M74.84,61.81C71.09,63.07,65.1,64,57.92,64.3c-2.89.14-6,.18-9.14.12C37.72,64.21,28.12,62.79,23,60.85l4.59-12A108.47,108.47,0,0,0,48.79,51c2.69,0,5.31,0,7.81-.09A92.19,92.19,0,0,0,70.14,49.5l4.63,12.3h.07Z"/><path class="cls-7" d="M63.66,32.37c-2.86.3-6,.52-9.35.61-1.79.05-3.63.07-5.51.05a126.29,126.29,0,0,1-14.76-1L39,19.23c3.08.24,6.39.38,9.85.4,1.22,0,2.42,0,3.61,0,2.16,0,4.26-.12,6.27-.26Z"/><path class="cls-8" d="M58.4,78.08c-3,.14-6.25.18-9.6.1-16.47-.38-29.7-3.44-29.7-6.83a1.21,1.21,0,0,1,0-.25h0l.07-.16a.44.44,0,0,1,.06-.16L23,60.85l4.58-12L34,32.08,39,19.23l6.12-16c.76-2,2.18-3.24,3.71-3.24a2.56,2.56,0,0,1,.62.07c.65,4.07,1.77,11.16,3,19.53.62,4.22,1.27,8.75,1.9,13.38.82,6,1.62,12.13,2.29,18,.55,4.76,1,9.31,1.36,13.37A98.48,98.48,0,0,1,58.4,78.08Z"/></g></g></g></g></svg>