<svg xmlns="http://www.w3.org/2000/svg" xmlns:xlink="http://www.w3.org/1999/xlink" viewBox="0 0 127.2 332"><defs><style>.cls-1{fill:#fff;}.cls-2{fill:#dc7c59;}.cls-3{fill:#0f4088;}.cls-4,.cls-6{fill:none;stroke:#000;stroke-linecap:round;stroke-linejoin:round;}.cls-4{stroke-width:0.46px;}.cls-5{fill:#da98c0;}.cls-6{stroke-width:0.44px;}.cls-7{fill:#132a35;}.cls-8{fill:#b95535;}.cls-9{clip-path:url(#clip-path);}.cls-10{clip-path:url(#clip-path-2);}.cls-11{fill:#d8553d;}</style><clipPath id="clip-path"><path class="cls-1" d="M60.07,28.2S58.72,23,52.25,26.89C52.25,26.89,55,31.6,60.07,28.2Z"/></clipPath><clipPath id="clip-path-2"><path class="cls-1" d="M65,28.08s1.87-5.19,5.49-1.67C70.47,26.41,68.45,31.34,65,28.08Z"/></clipPath></defs><g id="Layer_2" data-name="Layer 2"><g id="Layer_1-2" data-name="Layer 1"><path d="M20.28,323.3l-7.87,4.56a2.43,2.43,0,0,0-1.08,2.64c.2.83.87,1.46,2.62,1.5,3.9.08,25.29-2.94,25.29-2.94v2.33l8,0s.51-12-1.93-13.59Z"/><path class="cls-2" d="M35,315.86,20.28,323.3s5.53,4.1,11.54,1.37,13.54-6.85,13.54-6.85l-1.1-3.12Z"/><polygon class="cls-2" points="44.26 314.7 45.36 280.2 34.07 280.92 34.07 319.44 44.26 314.7"/><path d="M118.18,323.3l7.87,4.56a2.43,2.43,0,0,1,1.08,2.64c-.2.83-.87,1.46-2.62,1.5-3.9.08-25.29-2.94-25.29-2.94v2.43l-7.94-.1s-.62-12,1.82-13.57Z"/><path class="cls-2" d="M103.46,315.86l14.72,7.44s-5.53,4.1-11.54,1.37-13.54-6.85-13.54-6.85l1.1-3.12Z"/><polygon class="cls-2" points="94.2 314.7 85.94 280.2 97.23 280.92 105.3 320.23 94.2 314.7"/><path class="cls-3" d="M41.06,113.77S25.51,140.42,25.89,164s5.88,140.3,5.88,140.3H50.39l3.75-147.57,2.24-.14L85.45,304.31l17.49-1.77L84.51,165.32A111.51,111.51,0,0,0,78,140.59c-2.68-6.78-5.91-18.19-10.51-24.17Z"/><line class="cls-4" x1="54.24" y1="156.77" x2="64.65" y2="156.11"/><path class="cls-2" d="M15,86.79,1.15,108.5c-4.82,8,6.72,16.14,11.93,8.52l23.5-33Z"/><path class="cls-5" d="M35,61.51c-8.72-3-22,20.64-27.24,29.17l21,14.57C32.74,98.51,58.73,71.29,35,61.51Z"/><path class="cls-5" d="M69.71,61.25s15.07,1,15.68,24.36L75,88.12Z"/><path class="cls-5" d="M32.85,61.15c16.85-3.26,26.18-3.26,38.83.52,14.32,4.27,2.19,45-1.17,60.39H37L25.67,76.16C27.21,72.49,27.58,61.49,32.85,61.15Z"/><line class="cls-6" x1="32.2" y1="102.72" x2="28.19" y2="84.87"/><line class="cls-6" x1="75.45" y1="96.61" x2="77.86" y2="78.77"/><path class="cls-1" d="M57.66,66.22,47.18,59.41l.55-3.78H46a2.66,2.66,0,0,0-1.91.83L41,59.76l7.22,11.38a2.22,2.22,0,0,0,3.37.51Z"/><path class="cls-1" d="M60.81,55.63h1.3a2.68,2.68,0,0,1,2.25,1.26l2.17,3.41-1,9.87a1.21,1.21,0,0,1-2,.89l-6-4.84L61,60.32Z"/><path class="cls-1" d="M58.7,70.92a1,1,0,1,1-2.08,0,1,1,0,1,1,2.08,0Z"/><path class="cls-1" d="M58.93,75.27a1,1,0,1,1-1-1.09A1.07,1.07,0,0,1,58.93,75.27Z"/><path class="cls-2" d="M48.51,96.14s5.85-10.91,21.2-4.46L63.76,105l-13.42-.48Z"/><polygon class="cls-2" points="48.51 96.14 7.28 103.58 9.69 119.75 50.34 104.51 48.51 96.14"/><line class="cls-6" x1="22.13" y1="100.9" x2="12.05" y2="102.72"/><path class="cls-1" d="M51.43,130.82l-2.79-3.26,17-41.95s30.47-5.39,42.93-1Z"/><path d="M108.54,84.66l-6.62,1L82.2,126.31s5.72.16,8.28-5.06Z"/><polygon class="cls-7" points="101.92 85.61 68 88.78 51.43 130.82 82.2 126.31 101.92 85.61"/><polygon class="cls-1" points="90.51 95.49 71.57 97.26 69.71 102.03 88.15 100.2 90.51 95.49"/><polygon class="cls-1" points="108.54 84.66 104.55 65.33 100.64 65.33 93.05 83.66 108.54 84.66"/><path class="cls-2" d="M94.23,113.65s4.51,1.16,8.33-5,.12-9.4.12-9.4l-9.57-7.09a1,1,0,0,0-1.3.11h0a1.11,1.11,0,0,0,0,1.54l5.68,5.75-8.59-6a1.34,1.34,0,0,0-1.94.47h0A1.51,1.51,0,0,0,87.3,96l8,6.56-7.15-3.9a1.12,1.12,0,0,0-1.55.53h0a1.26,1.26,0,0,0,.35,1.52l7.28,5.58L88,103.16a1.2,1.2,0,0,0-1.62.56h0a1.33,1.33,0,0,0,.36,1.65l8.38,6.44Z"/><path class="cls-8" d="M65,33.87a14.34,14.34,0,0,1,1.34-5.07c1.06-2.2,2.69-4.32,5.19-3.12,4.26,2.06.17,9.37-4.17,10A1.94,1.94,0,0,1,65,33.87Z"/><ellipse class="cls-1" cx="70.77" cy="34.49" rx="1.17" ry="1.24"/><ellipse cx="38.95" cy="37.4" rx="10.76" ry="11.32"/><path d="M41.59,8.08s-3.18-1.81-6.51,3.22-2.82,15.54,4,17.46Z"/><path d="M41.59,8.08S43.4-1.74,57.44.27,80.76,8.61,71,22.59Z"/><path d="M70.77,19.93c.13,9.52-6.63,17.33-16.37,17.47a17.43,17.43,0,0,1-17.89-17A17.48,17.48,0,0,1,53.93,2.91C63.68,2.76,70.64,10.4,70.77,19.93Z"/><polygon class="cls-2" points="50.9 33.98 47.18 59.41 57.66 66.22 61.02 60.32 59.97 36.79 50.9 33.98"/><polygon class="cls-8" points="60.62 51.45 51.52 42.37 60.02 38.57 60.62 51.45"/><path class="cls-2" d="M51.2,6.84a18.73,18.73,0,0,1,9.19-.51c4.12.84,9.42,3.48,10.19,11.38,1.27,13.15-.11,23-6.25,26.1-4.71,2.36-8.18,1.52-13.69-1.74-2-1.22-4.06-5.72-4.64-8.23l-2.44-7S37,11.16,51.2,6.84Z"/><polyline class="cls-6" points="63.55 30.05 65.26 33.37 63.78 34.63"/><path d="M65.19,18.61s-.5,1.3,1.43,1.54a16,16,0,0,1,3.22.55,1.16,1.16,0,0,0,1.28-.34h0a.75.75,0,0,0,0-.94,4.9,4.9,0,0,0-3.23-1.69C65.61,17.43,65.19,18.61,65.19,18.61Z"/><path d="M59.39,18.57s.66,1.29-2,1.57a39.67,39.67,0,0,0-5.65,1.14A2,2,0,0,1,49.92,21h0A.58.58,0,0,1,50,20a12.53,12.53,0,0,1,5.69-2.28C58.84,17.4,59.39,18.57,59.39,18.57Z"/><path class="cls-1" d="M60.07,28.2S58.72,23,52.25,26.89C52.25,26.89,55,31.6,60.07,28.2Z"/><g class="cls-9"><path d="M58.53,27.28a2.18,2.18,0,0,1-1.74,2.48,2.1,2.1,0,0,1-2.3-1.91,2.16,2.16,0,0,1,1.74-2.47A2.08,2.08,0,0,1,58.53,27.28Z"/></g><path d="M52.14,26.76a6.77,6.77,0,0,1,2-1.14,7,7,0,0,1,2.33-.42,4.37,4.37,0,0,1,2.33.67,3.36,3.36,0,0,1,1.43,2.05.36.36,0,1,1-.7.16h0v0a2.74,2.74,0,0,0-1.08-1.65,3.9,3.9,0,0,0-2-.66,6.75,6.75,0,0,0-2.17.31,6.32,6.32,0,0,0-2,1,.18.18,0,0,1-.25,0A.17.17,0,0,1,52.14,26.76Z"/><path class="cls-1" d="M65,28.08s1.87-5.19,5.49-1.67C70.47,26.41,68.45,31.34,65,28.08Z"/><g class="cls-10"><path d="M66.32,27a1.85,1.85,0,0,0,1.21,2.23c.83.13,1.63-.65,1.79-1.75a1.86,1.86,0,0,0-1.21-2.24C67.28,25.06,66.48,25.85,66.32,27Z"/></g><path d="M70.35,26.49a2.64,2.64,0,0,0-1-.9,2.13,2.13,0,0,0-.66-.16,2,2,0,0,0-.65.06h0a3,3,0,0,0-1.6.88,4.44,4.44,0,0,0-1,1.58v0a.31.31,0,0,1-.58-.21h0A5.1,5.1,0,0,1,66,26a3.52,3.52,0,0,1,1.9-.93h0a2.29,2.29,0,0,1,.82,0,2.54,2.54,0,0,1,.77.23,2.94,2.94,0,0,1,1.14,1.07.15.15,0,0,1,0,.2A.14.14,0,0,1,70.35,26.49Z"/><path class="cls-11" d="M65,37.49a2.59,2.59,0,0,1-2.68,1.89,5,5,0,0,1-4.14-2.65Z"/><path class="cls-11" d="M58.48,36.73s6.06-1.11,6.44.68C64.92,37.41,60.71,38.08,58.48,36.73Z"/><path class="cls-6" d="M65.36,37.24s-3.22,1.63-7.36-.78"/><path d="M45.85,30.67s6.7-15.23-2.51-20.1c0,0-3-3.08-4.44,5.17C36.5,29,45.85,30.67,45.85,30.67Z"/><path class="cls-2" d="M47.7,34.1A15,15,0,0,0,45.6,29c-1.41-2.14-3.4-4.1-5.84-2.46-4.16,2.79,1.11,9.79,5.72,9.8A2.09,2.09,0,0,0,47.7,34.1Z"/><path class="cls-6" d="M41,30.09c3.25-1.22,5,2.61,5,2.61"/><path class="cls-1" d="M46,35.87a1.18,1.18,0,1,1-2.35,0,1.18,1.18,0,1,1,2.35,0Z"/><path d="M44.41,11.23s8.13,3.53,15.05,0,11,3.16,11,3.16S68,3.74,56.52,4.58,44.41,11.23,44.41,11.23Z"/></g></g></svg>